<?xml version="1.0" encoding="UTF-8"?>
<!DOCTYPE svg PUBLIC "-//W3C//DTD SVG 1.1//EN" "http://www.w3.org/Graphics/SVG/1.1/DTD/svg11.dtd">
<!-- Creator: CorelDRAW 2021 (64-Bit) -->
<svg xmlns="http://www.w3.org/2000/svg" xml:space="preserve" width="27.4608mm" height="26.2427mm" version="1.1" style="shape-rendering:geometricPrecision; text-rendering:geometricPrecision; image-rendering:optimizeQuality; fill-rule:evenodd; clip-rule:evenodd"
viewBox="0 0 2746.08 2624.27"
 xmlns:xlink="http://www.w3.org/1999/xlink"
 xmlns:xodm="http://www.corel.com/coreldraw/odm/2003">
 <defs>
  <style type="text/css">
   <![CDATA[
    .str2 {stroke:#FEFEFE;stroke-width:17.64;stroke-miterlimit:2.61313}
    .str1 {stroke:#2B2A29;stroke-width:17.64;stroke-miterlimit:2.61313}
    .str0 {stroke:#2B2A29;stroke-width:7.62;stroke-miterlimit:2.61313}
    .fil1 {fill:none}
    .fil0 {fill:#FEFEFE}
   ]]>
  </style>
 </defs>
 <g id="Layer_x0020_1">
  <metadata id="CorelCorpID_0Corel-Layer"/>
  <g id="_2245562679568">
   <ellipse class="fil0 str0" cx="1373.04" cy="1312.14" rx="858.08" ry="1016.98"/>
   <ellipse class="fil0 str0" cx="1373.04" cy="1312.14" rx="683.28" ry="842.19"/>
   <circle class="fil1 str0" cx="1373.04" cy="382.84" r="79.45"/>
   <circle class="fil1 str0" transform="matrix(1.75881E-14 -0.664089 0.664089 1.75881E-14 601.946 1312.14)" r="119.64"/>
   <circle class="fil1 str0" transform="matrix(1.75881E-14 -0.664089 0.664089 1.75881E-14 617.82 1126.67)" r="119.64"/>
   <circle class="fil1 str0" transform="matrix(1.75881E-14 -0.664089 0.664089 1.75881E-14 666.969 944.867)" r="119.64"/>
   <circle class="fil1 str0" transform="matrix(1.75881E-14 -0.664089 0.664089 1.75881E-14 746.103 770.359)" r="119.64"/>
   <circle class="fil1 str0" transform="matrix(1.75881E-14 -0.664089 0.664089 1.75881E-14 864.788 614.38)" r="119.64"/>
   <circle class="fil1 str0" transform="matrix(1.75881E-14 -0.664089 0.664089 1.75881E-14 1015.98 486.256)" r="119.64"/>
   <circle class="fil1 str0" transform="matrix(1.75881E-14 -0.664089 0.664089 1.75881E-14 1186.42 409.156)" r="119.64"/>
   <rect class="fil0 str0" transform="matrix(0.828422 -0.113063 0.113063 0.828422 1224.44 313.419)" width="48.53" height="48.53" rx="12.19" ry="12.19"/>
   <rect class="fil0 str0" transform="matrix(0.828422 -0.113063 0.113063 0.828422 1270.95 306.847)" width="48.53" height="48.53" rx="12.19" ry="12.19"/>
   <rect class="fil0 str0" transform="matrix(0.706596 -0.0964361 0.0964361 0.706596 1249.13 444.788)" width="48.53" height="48.53" rx="12.19" ry="12.19"/>
   <rect class="fil0 str0" transform="matrix(0.706596 -0.0964361 0.0964361 0.706596 1288.8 439.183)" width="48.53" height="48.53" rx="12.19" ry="12.19"/>
   <rect class="fil0 str0" transform="matrix(0.0608134 -0.833888 0.833888 0.0608134 517.97 1257.25)" width="48.53" height="48.53" rx="12.19" ry="12.19"/>
   <rect class="fil0 str0" transform="matrix(0.0608134 -0.833888 0.833888 0.0608134 521.166 1210.38)" width="48.53" height="48.53" rx="12.19" ry="12.19"/>
   <rect class="fil0 str0" transform="matrix(0.0518702 -0.711257 0.711257 0.0518702 651.606 1260.28)" width="48.53" height="48.53" rx="12.19" ry="12.19"/>
   <rect class="fil0 str0" transform="matrix(0.0518702 -0.711257 0.711257 0.0518702 654.331 1220.3)" width="48.53" height="48.53" rx="12.19" ry="12.19"/>
   <rect class="fil0 str0" transform="matrix(0.210464 -0.80918 0.80918 0.210464 545.221 1053.96)" width="48.53" height="48.53" rx="12.19" ry="12.19"/>
   <rect class="fil0 str0" transform="matrix(0.210464 -0.80918 0.80918 0.210464 556.83 1008.44)" width="48.53" height="48.53" rx="12.19" ry="12.19"/>
   <rect class="fil0 str0" transform="matrix(0.216947 -0.679346 0.679346 0.216947 674.709 1081.31)" width="48.53" height="48.53" rx="12.19" ry="12.19"/>
   <rect class="fil0 str0" transform="matrix(0.216947 -0.679346 0.679346 0.216947 686.717 1043.09)" width="48.53" height="48.53" rx="12.19" ry="12.19"/>
   <rect class="fil0 str0" transform="matrix(0.360022 -0.75462 0.75462 0.360022 605.264 860.271)" width="48.53" height="48.53" rx="12.19" ry="12.19"/>
   <rect class="fil0 str0" transform="matrix(0.360022 -0.75462 0.75462 0.360022 625.291 817.781)" width="48.53" height="48.53" rx="12.19" ry="12.19"/>
   <rect class="fil0 str0" transform="matrix(0.309446 -0.669948 0.669948 0.309446 729.936 911.102)" width="48.53" height="48.53" rx="12.19" ry="12.19"/>
   <rect class="fil0 str0" transform="matrix(0.309446 -0.669948 0.669948 0.309446 747.143 873.382)" width="48.53" height="48.53" rx="12.19" ry="12.19"/>
   <rect class="fil0 str0" transform="matrix(0.495306 -0.673602 0.673602 0.495306 709.649 673.355)" width="48.53" height="48.53" rx="12.19" ry="12.19"/>
   <rect class="fil0 str0" transform="matrix(0.495306 -0.673602 0.673602 0.495306 737.297 635.381)" width="48.53" height="48.53" rx="12.19" ry="12.19"/>
   <rect class="fil0 str0" transform="matrix(0.466842 -0.571529 0.571529 0.466842 815.218 747.235)" width="48.53" height="48.53" rx="12.19" ry="12.19"/>
   <rect class="fil0 str0" transform="matrix(0.466842 -0.571529 0.571529 0.466842 841.294 715.003)" width="48.53" height="48.53" rx="12.19" ry="12.19"/>
   <rect class="fil0 str0" transform="matrix(0.676862 -0.551231 0.551231 0.676862 848.014 511.042)" width="48.53" height="48.53" rx="12.19" ry="12.19"/>
   <rect class="fil0 str0" transform="matrix(0.676862 -0.551231 0.551231 0.676862 885.894 479.894)" width="48.53" height="48.53" rx="12.19" ry="12.19"/>
   <rect class="fil0 str0" transform="matrix(0.621138 -0.487551 0.487551 0.621138 933.492 607.538)" width="48.53" height="48.53" rx="12.19" ry="12.19"/>
   <rect class="fil0 str0" transform="matrix(0.621138 -0.487551 0.487551 0.621138 968.259 579.983)" width="48.53" height="48.53" rx="12.19" ry="12.19"/>
   <rect class="fil0 str0" transform="matrix(0.797323 -0.35535 0.35535 0.797323 1023.89 383.817)" width="48.53" height="48.53" rx="12.19" ry="12.19"/>
   <rect class="fil0 str0" transform="matrix(0.797323 -0.35535 0.35535 0.797323 1068.59 363.642)" width="48.53" height="48.53" rx="12.19" ry="12.19"/>
   <rect class="fil0 str0" transform="matrix(0.713919 -0.3374 0.3374 0.713919 1081.52 503.941)" width="48.53" height="48.53" rx="12.19" ry="12.19"/>
   <rect class="fil0 str0" transform="matrix(0.713919 -0.3374 0.3374 0.713919 1121.53 484.797)" width="48.53" height="48.53" rx="12.19" ry="12.19"/>
   <circle class="fil1 str0" cx="1373.04" cy="2241.5" r="79.45"/>
   <circle class="fil1 str0" transform="matrix(1.75881E-14 0.664089 0.664089 -1.75881E-14 617.82 1497.68)" r="119.64"/>
   <circle class="fil1 str0" transform="matrix(1.75881E-14 0.664089 0.664089 -1.75881E-14 666.969 1679.48)" r="119.64"/>
   <circle class="fil1 str0" transform="matrix(1.75881E-14 0.664089 0.664089 -1.75881E-14 746.103 1853.98)" r="119.64"/>
   <circle class="fil1 str0" transform="matrix(1.75881E-14 0.664089 0.664089 -1.75881E-14 864.788 2009.96)" r="119.64"/>
   <circle class="fil1 str0" transform="matrix(1.75881E-14 0.664089 0.664089 -1.75881E-14 1015.98 2138.09)" r="119.64"/>
   <circle class="fil1 str0" transform="matrix(1.75881E-14 0.664089 0.664089 -1.75881E-14 1186.42 2215.19)" r="119.64"/>
   <rect class="fil0 str0" transform="matrix(0.828422 0.113063 0.113063 -0.828422 1224.44 2310.92)" width="48.53" height="48.53" rx="12.19" ry="12.19"/>
   <rect class="fil0 str0" transform="matrix(0.828422 0.113063 0.113063 -0.828422 1270.95 2317.5)" width="48.53" height="48.53" rx="12.19" ry="12.19"/>
   <rect class="fil0 str0" transform="matrix(0.706596 0.0964361 0.0964361 -0.706596 1249.13 2179.56)" width="48.53" height="48.53" rx="12.19" ry="12.19"/>
   <rect class="fil0 str0" transform="matrix(0.706596 0.0964361 0.0964361 -0.706596 1288.8 2185.16)" width="48.53" height="48.53" rx="12.19" ry="12.19"/>
   <rect class="fil0 str0" transform="matrix(0.0608134 0.833888 0.833888 -0.0608134 517.97 1367.1)" width="48.53" height="48.53" rx="12.19" ry="12.19"/>
   <rect class="fil0 str0" transform="matrix(0.0608134 0.833888 0.833888 -0.0608134 521.166 1413.96)" width="48.53" height="48.53" rx="12.19" ry="12.19"/>
   <rect class="fil0 str0" transform="matrix(0.0518702 0.711257 0.711257 -0.0518702 651.606 1364.07)" width="48.53" height="48.53" rx="12.19" ry="12.19"/>
   <rect class="fil0 str0" transform="matrix(0.0518702 0.711257 0.711257 -0.0518702 654.331 1404.04)" width="48.53" height="48.53" rx="12.19" ry="12.19"/>
   <rect class="fil0 str0" transform="matrix(0.210464 0.80918 0.80918 -0.210464 545.221 1570.39)" width="48.53" height="48.53" rx="12.19" ry="12.19"/>
   <rect class="fil0 str0" transform="matrix(0.210464 0.80918 0.80918 -0.210464 556.83 1615.9)" width="48.53" height="48.53" rx="12.19" ry="12.19"/>
   <rect class="fil0 str0" transform="matrix(0.216947 0.679346 0.679346 -0.216947 674.709 1543.03)" width="48.53" height="48.53" rx="12.19" ry="12.19"/>
   <rect class="fil0 str0" transform="matrix(0.216947 0.679346 0.679346 -0.216947 686.717 1581.26)" width="48.53" height="48.53" rx="12.19" ry="12.19"/>
   <rect class="fil0 str0" transform="matrix(0.360022 0.75462 0.75462 -0.360022 605.264 1764.07)" width="48.53" height="48.53" rx="12.19" ry="12.19"/>
   <rect class="fil0 str0" transform="matrix(0.360022 0.75462 0.75462 -0.360022 625.291 1806.56)" width="48.53" height="48.53" rx="12.19" ry="12.19"/>
   <rect class="fil0 str0" transform="matrix(0.309446 0.669948 0.669948 -0.309446 729.936 1713.24)" width="48.53" height="48.53" rx="12.19" ry="12.19"/>
   <rect class="fil0 str0" transform="matrix(0.309446 0.669948 0.669948 -0.309446 747.143 1750.96)" width="48.53" height="48.53" rx="12.19" ry="12.19"/>
   <rect class="fil0 str0" transform="matrix(0.495306 0.673602 0.673602 -0.495306 709.649 1950.99)" width="48.53" height="48.53" rx="12.19" ry="12.19"/>
   <rect class="fil0 str0" transform="matrix(0.495306 0.673602 0.673602 -0.495306 737.297 1988.96)" width="48.53" height="48.53" rx="12.19" ry="12.19"/>
   <rect class="fil0 str0" transform="matrix(0.466842 0.571529 0.571529 -0.466842 815.218 1877.11)" width="48.53" height="48.53" rx="12.19" ry="12.19"/>
   <rect class="fil0 str0" transform="matrix(0.466842 0.571529 0.571529 -0.466842 841.294 1909.34)" width="48.53" height="48.53" rx="12.19" ry="12.19"/>
   <rect class="fil0 str0" transform="matrix(0.676862 0.551231 0.551231 -0.676862 848.014 2113.3)" width="48.53" height="48.53" rx="12.19" ry="12.19"/>
   <rect class="fil0 str0" transform="matrix(0.676862 0.551231 0.551231 -0.676862 885.894 2144.45)" width="48.53" height="48.53" rx="12.19" ry="12.19"/>
   <rect class="fil0 str0" transform="matrix(0.621138 0.487551 0.487551 -0.621138 933.492 2016.81)" width="48.53" height="48.53" rx="12.19" ry="12.19"/>
   <rect class="fil0 str0" transform="matrix(0.621138 0.487551 0.487551 -0.621138 968.259 2044.36)" width="48.53" height="48.53" rx="12.19" ry="12.19"/>
   <rect class="fil0 str0" transform="matrix(0.797323 0.35535 0.35535 -0.797323 1023.89 2240.53)" width="48.53" height="48.53" rx="12.19" ry="12.19"/>
   <rect class="fil0 str0" transform="matrix(0.797323 0.35535 0.35535 -0.797323 1068.59 2260.7)" width="48.53" height="48.53" rx="12.19" ry="12.19"/>
   <rect class="fil0 str0" transform="matrix(0.713919 0.3374 0.3374 -0.713919 1081.52 2120.4)" width="48.53" height="48.53" rx="12.19" ry="12.19"/>
   <rect class="fil0 str0" transform="matrix(0.713919 0.3374 0.3374 -0.713919 1121.53 2139.55)" width="48.53" height="48.53" rx="12.19" ry="12.19"/>
   <circle class="fil1 str0" transform="matrix(-1.75881E-14 -0.664089 -0.664089 1.75881E-14 2144.32 1312.14)" r="119.64"/>
   <circle class="fil1 str0" transform="matrix(-1.75881E-14 -0.664089 -0.664089 1.75881E-14 2128.45 1126.67)" r="119.64"/>
   <circle class="fil1 str0" transform="matrix(-1.75881E-14 -0.664089 -0.664089 1.75881E-14 2079.3 944.867)" r="119.64"/>
   <circle class="fil1 str0" transform="matrix(-1.75881E-14 -0.664089 -0.664089 1.75881E-14 2000.17 770.359)" r="119.64"/>
   <circle class="fil1 str0" transform="matrix(-1.75881E-14 -0.664089 -0.664089 1.75881E-14 1881.48 614.38)" r="119.64"/>
   <circle class="fil1 str0" transform="matrix(-1.75881E-14 -0.664089 -0.664089 1.75881E-14 1730.29 486.256)" r="119.64"/>
   <circle class="fil1 str0" transform="matrix(-1.75881E-14 -0.664089 -0.664089 1.75881E-14 1559.85 409.156)" r="119.64"/>
   <rect class="fil0 str0" transform="matrix(-0.828422 -0.113063 -0.113063 0.828422 1521.84 313.419)" width="48.53" height="48.53" rx="12.19" ry="12.19"/>
   <rect class="fil0 str0" transform="matrix(-0.828422 -0.113063 -0.113063 0.828422 1475.32 306.847)" width="48.53" height="48.53" rx="12.19" ry="12.19"/>
   <rect class="fil0 str0" transform="matrix(-0.706596 -0.0964361 -0.0964361 0.706596 1497.15 444.788)" width="48.53" height="48.53" rx="12.19" ry="12.19"/>
   <rect class="fil0 str0" transform="matrix(-0.706596 -0.0964361 -0.0964361 0.706596 1457.47 439.183)" width="48.53" height="48.53" rx="12.19" ry="12.19"/>
   <rect class="fil0 str0" transform="matrix(-0.0608134 -0.833888 -0.833888 0.0608134 2228.3 1257.25)" width="48.53" height="48.53" rx="12.19" ry="12.19"/>
   <rect class="fil0 str0" transform="matrix(-0.0608134 -0.833888 -0.833888 0.0608134 2225.1 1210.38)" width="48.53" height="48.53" rx="12.19" ry="12.19"/>
   <rect class="fil0 str0" transform="matrix(-0.0518702 -0.711257 -0.711257 0.0518702 2094.67 1260.28)" width="48.53" height="48.53" rx="12.19" ry="12.19"/>
   <rect class="fil0 str0" transform="matrix(-0.0518702 -0.711257 -0.711257 0.0518702 2091.94 1220.3)" width="48.53" height="48.53" rx="12.19" ry="12.19"/>
   <rect class="fil0 str0" transform="matrix(-0.210464 -0.80918 -0.80918 0.210464 2201.05 1053.96)" width="48.53" height="48.53" rx="12.19" ry="12.19"/>
   <rect class="fil0 str0" transform="matrix(-0.210464 -0.80918 -0.80918 0.210464 2189.44 1008.44)" width="48.53" height="48.53" rx="12.19" ry="12.19"/>
   <rect class="fil0 str0" transform="matrix(-0.216947 -0.679346 -0.679346 0.216947 2071.56 1081.31)" width="48.53" height="48.53" rx="12.19" ry="12.19"/>
   <rect class="fil0 str0" transform="matrix(-0.216947 -0.679346 -0.679346 0.216947 2059.55 1043.09)" width="48.53" height="48.53" rx="12.19" ry="12.19"/>
   <rect class="fil0 str0" transform="matrix(-0.360022 -0.75462 -0.75462 0.360022 2141.01 860.271)" width="48.53" height="48.53" rx="12.19" ry="12.19"/>
   <rect class="fil0 str0" transform="matrix(-0.360022 -0.75462 -0.75462 0.360022 2120.98 817.781)" width="48.53" height="48.53" rx="12.19" ry="12.19"/>
   <rect class="fil0 str0" transform="matrix(-0.309446 -0.669948 -0.669948 0.309446 2016.33 911.102)" width="48.53" height="48.53" rx="12.19" ry="12.19"/>
   <rect class="fil0 str0" transform="matrix(-0.309446 -0.669948 -0.669948 0.309446 1999.13 873.382)" width="48.53" height="48.53" rx="12.19" ry="12.19"/>
   <rect class="fil0 str0" transform="matrix(-0.495306 -0.673602 -0.673602 0.495306 2036.62 673.355)" width="48.53" height="48.53" rx="12.19" ry="12.19"/>
   <rect class="fil0 str0" transform="matrix(-0.495306 -0.673602 -0.673602 0.495306 2008.97 635.381)" width="48.53" height="48.53" rx="12.19" ry="12.19"/>
   <rect class="fil0 str0" transform="matrix(-0.466842 -0.571529 -0.571529 0.466842 1931.05 747.235)" width="48.53" height="48.53" rx="12.19" ry="12.19"/>
   <rect class="fil0 str0" transform="matrix(-0.466842 -0.571529 -0.571529 0.466842 1904.98 715.003)" width="48.53" height="48.53" rx="12.19" ry="12.19"/>
   <rect class="fil0 str0" transform="matrix(-0.676862 -0.551231 -0.551231 0.676862 1898.26 511.042)" width="48.53" height="48.53" rx="12.19" ry="12.19"/>
   <rect class="fil0 str0" transform="matrix(-0.676862 -0.551231 -0.551231 0.676862 1860.38 479.894)" width="48.53" height="48.53" rx="12.19" ry="12.19"/>
   <rect class="fil0 str0" transform="matrix(-0.621138 -0.487551 -0.487551 0.621138 1812.78 607.538)" width="48.53" height="48.53" rx="12.19" ry="12.19"/>
   <rect class="fil0 str0" transform="matrix(-0.621138 -0.487551 -0.487551 0.621138 1778.01 579.983)" width="48.53" height="48.53" rx="12.19" ry="12.19"/>
   <rect class="fil0 str0" transform="matrix(-0.797323 -0.35535 -0.35535 0.797323 1722.38 383.817)" width="48.53" height="48.53" rx="12.19" ry="12.19"/>
   <rect class="fil0 str0" transform="matrix(-0.797323 -0.35535 -0.35535 0.797323 1677.68 363.642)" width="48.53" height="48.53" rx="12.19" ry="12.19"/>
   <rect class="fil0 str0" transform="matrix(-0.713919 -0.3374 -0.3374 0.713919 1664.76 503.941)" width="48.53" height="48.53" rx="12.19" ry="12.19"/>
   <rect class="fil0 str0" transform="matrix(-0.713919 -0.3374 -0.3374 0.713919 1624.74 484.797)" width="48.53" height="48.53" rx="12.19" ry="12.19"/>
   <circle class="fil1 str0" transform="matrix(-1.75881E-14 0.664089 -0.664089 -1.75881E-14 2128.45 1497.68)" r="119.64"/>
   <circle class="fil1 str0" transform="matrix(-1.75881E-14 0.664089 -0.664089 -1.75881E-14 2079.3 1679.48)" r="119.64"/>
   <circle class="fil1 str0" transform="matrix(-1.75881E-14 0.664089 -0.664089 -1.75881E-14 2000.17 1853.98)" r="119.64"/>
   <circle class="fil1 str0" transform="matrix(-1.75881E-14 0.664089 -0.664089 -1.75881E-14 1881.48 2009.96)" r="119.64"/>
   <circle class="fil1 str0" transform="matrix(-1.75881E-14 0.664089 -0.664089 -1.75881E-14 1730.29 2138.09)" r="119.64"/>
   <circle class="fil1 str0" transform="matrix(-1.75881E-14 0.664089 -0.664089 -1.75881E-14 1559.85 2215.19)" r="119.64"/>
   <rect class="fil0 str0" transform="matrix(-0.828422 0.113063 -0.113063 -0.828422 1521.84 2310.92)" width="48.53" height="48.53" rx="12.19" ry="12.19"/>
   <rect class="fil0 str0" transform="matrix(-0.828422 0.113063 -0.113063 -0.828422 1475.32 2317.5)" width="48.53" height="48.53" rx="12.19" ry="12.19"/>
   <rect class="fil0 str0" transform="matrix(-0.706596 0.0964361 -0.0964361 -0.706596 1497.15 2179.56)" width="48.53" height="48.53" rx="12.19" ry="12.19"/>
   <rect class="fil0 str0" transform="matrix(-0.706596 0.0964361 -0.0964361 -0.706596 1457.47 2185.16)" width="48.53" height="48.53" rx="12.19" ry="12.19"/>
   <rect class="fil0 str0" transform="matrix(-0.0608134 0.833888 -0.833888 -0.0608134 2228.3 1367.1)" width="48.53" height="48.53" rx="12.19" ry="12.19"/>
   <rect class="fil0 str0" transform="matrix(-0.0608134 0.833888 -0.833888 -0.0608134 2225.1 1413.96)" width="48.53" height="48.53" rx="12.19" ry="12.19"/>
   <rect class="fil0 str0" transform="matrix(-0.0518702 0.711257 -0.711257 -0.0518702 2094.67 1364.07)" width="48.53" height="48.53" rx="12.19" ry="12.19"/>
   <rect class="fil0 str0" transform="matrix(-0.0518702 0.711257 -0.711257 -0.0518702 2091.94 1404.04)" width="48.53" height="48.53" rx="12.19" ry="12.19"/>
   <rect class="fil0 str0" transform="matrix(-0.210464 0.80918 -0.80918 -0.210464 2201.05 1570.39)" width="48.53" height="48.53" rx="12.19" ry="12.19"/>
   <rect class="fil0 str0" transform="matrix(-0.210464 0.80918 -0.80918 -0.210464 2189.44 1615.9)" width="48.53" height="48.53" rx="12.19" ry="12.19"/>
   <rect class="fil0 str0" transform="matrix(-0.216947 0.679346 -0.679346 -0.216947 2071.56 1543.03)" width="48.53" height="48.53" rx="12.19" ry="12.19"/>
   <rect class="fil0 str0" transform="matrix(-0.216947 0.679346 -0.679346 -0.216947 2059.55 1581.26)" width="48.53" height="48.53" rx="12.19" ry="12.19"/>
   <rect class="fil0 str0" transform="matrix(-0.360022 0.75462 -0.75462 -0.360022 2141.01 1764.07)" width="48.53" height="48.53" rx="12.19" ry="12.19"/>
   <rect class="fil0 str0" transform="matrix(-0.360022 0.75462 -0.75462 -0.360022 2120.98 1806.56)" width="48.53" height="48.53" rx="12.19" ry="12.19"/>
   <rect class="fil0 str0" transform="matrix(-0.309446 0.669948 -0.669948 -0.309446 2016.33 1713.24)" width="48.53" height="48.53" rx="12.19" ry="12.19"/>
   <rect class="fil0 str0" transform="matrix(-0.309446 0.669948 -0.669948 -0.309446 1999.13 1750.96)" width="48.53" height="48.53" rx="12.19" ry="12.19"/>
   <rect class="fil0 str0" transform="matrix(-0.495306 0.673602 -0.673602 -0.495306 2036.62 1950.99)" width="48.53" height="48.53" rx="12.19" ry="12.19"/>
   <rect class="fil0 str0" transform="matrix(-0.495306 0.673602 -0.673602 -0.495306 2008.97 1988.96)" width="48.53" height="48.53" rx="12.19" ry="12.19"/>
   <rect class="fil0 str0" transform="matrix(-0.466842 0.571529 -0.571529 -0.466842 1931.05 1877.11)" width="48.53" height="48.53" rx="12.19" ry="12.19"/>
   <rect class="fil0 str0" transform="matrix(-0.466842 0.571529 -0.571529 -0.466842 1904.98 1909.34)" width="48.53" height="48.53" rx="12.19" ry="12.19"/>
   <rect class="fil0 str0" transform="matrix(-0.676862 0.551231 -0.551231 -0.676862 1898.26 2113.3)" width="48.53" height="48.53" rx="12.19" ry="12.19"/>
   <rect class="fil0 str0" transform="matrix(-0.676862 0.551231 -0.551231 -0.676862 1860.38 2144.45)" width="48.53" height="48.53" rx="12.19" ry="12.19"/>
   <rect class="fil0 str0" transform="matrix(-0.621138 0.487551 -0.487551 -0.621138 1812.78 2016.81)" width="48.53" height="48.53" rx="12.19" ry="12.19"/>
   <rect class="fil0 str0" transform="matrix(-0.621138 0.487551 -0.487551 -0.621138 1778.01 2044.36)" width="48.53" height="48.53" rx="12.19" ry="12.19"/>
   <rect class="fil0 str0" transform="matrix(-0.797323 0.35535 -0.35535 -0.797323 1722.38 2240.53)" width="48.53" height="48.53" rx="12.19" ry="12.19"/>
   <rect class="fil0 str0" transform="matrix(-0.797323 0.35535 -0.35535 -0.797323 1677.68 2260.7)" width="48.53" height="48.53" rx="12.19" ry="12.19"/>
   <rect class="fil0 str0" transform="matrix(-0.713919 0.3374 -0.3374 -0.713919 1664.76 2120.4)" width="48.53" height="48.53" rx="12.19" ry="12.19"/>
   <rect class="fil0 str0" transform="matrix(-0.713919 0.3374 -0.3374 -0.713919 1624.74 2139.55)" width="48.53" height="48.53" rx="12.19" ry="12.19"/>
   <ellipse class="fil0 str1" cx="1373.04" cy="1312.14" rx="635.61" ry="794.52"/>
   <polygon class="fil1 str1" points="1373.04,781.01 1197.68,704.01 1373.04,532.51 1548.4,704.01 "/>
   <polygon class="fil1 str1" points="913.06,1054.5 921.51,769.56 1197.67,704.01 1137.3,932.36 "/>
   <polyline class="fil1 str1" points="1373.04,781.02 1137.3,932.36 1015.38,1312.14 913.06,1054.5 "/>
   <polygon class="fil1 str1" points="1373.04,1843.27 1197.68,1920.27 1373.04,2091.77 1548.4,1920.27 "/>
   <polygon class="fil1 str1" points="913.06,1569.78 921.51,1854.72 1197.67,1920.27 1137.3,1691.92 "/>
   <polyline class="fil1 str1" points="779.3,1576.92 913.07,1569.78 741.82,1312.14 913.07,1054.5 779.3,1047.36 "/>
   <polyline class="fil1 str1" points="1373.04,1843.26 1137.3,1691.92 1015.38,1312.14 913.06,1569.78 "/>
   <line class="fil1 str1" x1="1150.51" y1="577.52" x2="1197.68" y2= "704.01" />
   <line class="fil1 str1" x1="1150.51" y1="2046.8" x2="1197.68" y2= "1920.31" />
   <polygon class="fil1 str1" points="1373.04,1843.33 1197.68,1920.33 1373.04,2091.83 1548.4,1920.33 "/>
   <polygon class="fil1 str1" points="913.06,1569.84 921.51,1854.78 1197.67,1920.34 1137.3,1691.99 "/>
   <line class="fil1 str1" x1="1150.51" y1="2046.82" x2="1197.68" y2= "1920.33" />
   <polygon class="fil1 str1" points="1833.08,1054.5 1824.64,769.56 1548.47,704.01 1608.85,932.36 "/>
   <polyline class="fil1 str1" points="1373.1,781.02 1608.85,932.36 1730.76,1312.14 1833.08,1054.5 "/>
   <polygon class="fil1 str1" points="1833.08,1569.78 1824.64,1854.72 1548.47,1920.27 1608.85,1691.92 "/>
   <polyline class="fil1 str1" points="1966.85,1576.92 1833.08,1569.78 2004.33,1312.14 1833.08,1054.5 1966.85,1047.36 "/>
   <polyline class="fil1 str1" points="1373.1,1843.26 1608.85,1691.92 1730.76,1312.14 1833.08,1569.78 "/>
   <line class="fil1 str1" x1="1595.63" y1="577.52" x2="1548.46" y2= "704.01" />
   <line class="fil1 str1" x1="1595.63" y1="2046.8" x2="1548.46" y2= "1920.31" />
   <polygon class="fil1 str1" points="1833.08,1569.84 1824.64,1854.78 1548.47,1920.34 1608.85,1691.99 "/>
   <line class="fil1 str1" x1="1595.63" y1="2046.82" x2="1548.46" y2= "1920.33" />
   <circle class="fil0 str1" cx="893.07" cy="761.14" r="95.34"/>
   <circle class="fil0 str1" cx="1853.2" cy="761.14" r="95.34"/>
   <circle class="fil0 str1" cx="893.07" cy="1863.45" r="95.34"/>
   <circle class="fil0 str1" cx="1853.2" cy="1863.45" r="95.34"/>
  </g>
  <rect class="fil1 str2" x="8.82" y="8.82" width="2728.44" height="2606.63"/>
 </g>
</svg>
