<?xml version="1.0" encoding="UTF-8"?>
<!DOCTYPE svg PUBLIC "-//W3C//DTD SVG 1.1//EN" "http://www.w3.org/Graphics/SVG/1.1/DTD/svg11.dtd">
<!-- Creator: CorelDRAW 2021 (64-Bit) -->
<svg xmlns="http://www.w3.org/2000/svg" xml:space="preserve" width="27.4608mm" height="26.2427mm" version="1.1" style="shape-rendering:geometricPrecision; text-rendering:geometricPrecision; image-rendering:optimizeQuality; fill-rule:evenodd; clip-rule:evenodd"
viewBox="0 0 2746.08 2624.27"
 xmlns:xlink="http://www.w3.org/1999/xlink"
 xmlns:xodm="http://www.corel.com/coreldraw/odm/2003">
 <defs>
  <style type="text/css">
   <![CDATA[
    .str0 {stroke:#FEFEFE;stroke-width:17.64;stroke-miterlimit:2.61313}
    .str3 {stroke:#898989;stroke-width:17.64;stroke-miterlimit:2.61313}
    .str2 {stroke:#2B2A29;stroke-width:17.64;stroke-miterlimit:2.61313}
    .str1 {stroke:#2B2A29;stroke-width:7.62;stroke-miterlimit:2.61313}
    .fil0 {fill:none}
    .fil1 {fill:#FEFEFE}
   ]]>
  </style>
 </defs>
 <g id="Layer_x0020_1">
  <metadata id="CorelCorpID_0Corel-Layer"/>
  <rect class="fil0 str0" x="8.82" y="8.82" width="2728.44" height="2606.63"/>
  <g id="_2245213432496">
   <g>
    <path class="fil1 str1" d="M1373.04 215.34c605.74,0 1096.8,491.06 1096.8,1096.8 0,605.74 -491.06,1096.8 -1096.8,1096.8 -605.74,0 -1096.8,-491.06 -1096.8,-1096.8 0,-605.74 491.06,-1096.8 1096.8,-1096.8z"/>
    <path class="fil1 str1" d="M1373.04 443.71c479.64,0 868.43,388.79 868.43,868.43 0,479.64 -388.79,868.43 -868.43,868.43 -479.64,0 -868.43,-388.79 -868.43,-868.43 0,-479.64 388.79,-868.43 868.43,-868.43z"/>
    <path class="fil1 str1" d="M1373.04 232.89c52.27,0 94.62,42.36 94.62,94.62 0,52.25 -42.35,94.62 -94.62,94.62 -52.27,0 -94.62,-42.37 -94.62,-94.62 0,-52.26 42.35,-94.62 94.62,-94.62z"/>
    <path class="fil1 str1" d="M293.84 1312.19c0,-52.26 42.36,-94.62 94.62,-94.62 52.25,0 94.62,42.36 94.62,94.62 0,52.27 -42.37,94.62 -94.62,94.62 -52.26,0 -94.62,-42.35 -94.62,-94.62z"/>
    <path class="fil1 str1" d="M1136.4 259.17c51,-11.46 101.61,20.57 113.07,71.57 11.45,50.98 -20.58,101.6 -71.57,113.06 -51,11.46 -101.61,-20.59 -113.07,-71.57 -11.46,-50.99 20.58,-101.6 71.57,-113.06z"/>
    <path class="fil1 str1" d="M904 340.17c47.07,-22.72 103.62,-2.98 126.34,44.09 22.7,47.06 2.97,103.63 -44.1,126.34 -47.07,22.72 -103.63,2.97 -126.34,-44.09 -22.71,-47.07 -2.97,-103.63 44.1,-126.34z"/>
    <path class="fil1 str1" d="M700.17 468.37c40.86,-32.59 100.38,-25.88 132.97,14.98 32.57,40.86 25.88,100.39 -14.99,132.97 -40.86,32.59 -100.39,25.87 -132.97,-14.98 -32.58,-40.86 -25.88,-100.38 14.99,-132.97z"/>
    <path class="fil1 str1" d="M528.33 640.46c32.53,-40.91 92.04,-47.7 132.95,-15.17 40.9,32.52 47.7,92.04 15.17,132.95 -32.53,40.91 -92.06,47.69 -132.95,15.17 -40.91,-32.53 -47.7,-92.04 -15.17,-132.95z"/>
    <path class="fil1 str1" d="M400.78 843.74c22.69,-47.08 79.23,-66.86 126.32,-44.17 47.07,22.68 66.85,79.23 44.17,126.31 -22.69,47.09 -79.24,66.85 -126.31,44.17 -47.09,-22.68 -66.86,-79.22 -44.18,-126.31z"/>
    <path class="fil1 str1" d="M319.76 1077.03c11.39,-51.01 61.96,-83.12 112.97,-71.73 50.99,11.38 83.11,61.95 71.73,112.96 -11.39,51.01 -61.97,83.12 -112.97,71.73 -51.01,-11.39 -83.11,-61.95 -71.73,-112.96z"/>
    <g>
     <g>
      <rect class="fil1 str1" transform="matrix(-0.735264 0.0758904 0.0758904 0.735264 1303.39 221.483)" width="68.98" height="68.98" rx="11.47" ry="11.47"/>
      <rect class="fil1 str1" transform="matrix(-0.735264 0.0758904 0.0758904 0.735264 1250.72 226.92)" width="68.98" height="68.98" rx="11.47" ry="11.47"/>
     </g>
     <g>
      <rect class="fil1 str1" transform="matrix(-0.67311 0.0694752 0.0694751 0.67311 1319.8 395.144)" width="68.98" height="68.98" rx="11.47" ry="11.47"/>
      <rect class="fil1 str1" transform="matrix(-0.67311 0.0694752 0.0694751 0.67311 1271.58 400.121)" width="68.98" height="68.98" rx="11.47" ry="11.47"/>
     </g>
    </g>
    <g>
     <g>
      <rect class="fil1 str1" transform="matrix(-0.699804 0.238008 0.238008 0.699804 1061.83 264.519)" width="68.98" height="68.98" rx="11.47" ry="11.47"/>
      <rect class="fil1 str1" transform="matrix(-0.699804 0.238008 0.238008 0.699804 1011.7 281.57)" width="68.98" height="68.98" rx="11.47" ry="11.47"/>
     </g>
     <g>
      <rect class="fil1 str1" transform="matrix(-0.640647 0.217888 0.217888 0.640647 1116.57 430.142)" width="68.98" height="68.98" rx="11.47" ry="11.47"/>
      <rect class="fil1 str1" transform="matrix(-0.640647 0.217888 0.217888 0.640647 1070.68 445.752)" width="68.98" height="68.98" rx="11.47" ry="11.47"/>
     </g>
    </g>
    <g>
     <g>
      <rect class="fil1 str1" transform="matrix(-0.62907 0.388129 0.388129 0.62907 835.965 360.36)" width="68.98" height="68.98" rx="11.47" ry="11.47"/>
      <rect class="fil1 str1" transform="matrix(-0.62907 0.388129 0.388129 0.62907 790.899 388.165)" width="68.98" height="68.98" rx="11.47" ry="11.47"/>
     </g>
     <g>
      <rect class="fil1 str1" transform="matrix(-0.575893 0.355319 0.355319 0.575893 926.272 509.597)" width="68.98" height="68.98" rx="11.47" ry="11.47"/>
      <rect class="fil1 str1" transform="matrix(-0.575893 0.355319 0.355319 0.575893 885.015 535.052)" width="68.98" height="68.98" rx="11.47" ry="11.47"/>
     </g>
    </g>
    <g>
     <g>
      <rect class="fil1 str1" transform="matrix(-0.526628 0.518686 0.518686 0.526628 637.169 504.174)" width="68.98" height="68.98" rx="11.47" ry="11.47"/>
      <rect class="fil1 str1" transform="matrix(-0.526628 0.518686 0.518686 0.526628 599.442 541.333)" width="68.98" height="68.98" rx="11.47" ry="11.47"/>
     </g>
     <g>
      <rect class="fil1 str1" transform="matrix(-0.482111 0.47484 0.47484 0.482111 758.494 629.504)" width="68.98" height="68.98" rx="11.47" ry="11.47"/>
      <rect class="fil1 str1" transform="matrix(-0.482111 0.47484 0.47484 0.482111 723.956 663.522)" width="68.98" height="68.98" rx="11.47" ry="11.47"/>
     </g>
    </g>
    <g>
     <g>
      <rect class="fil1 str1" transform="matrix(-0.397642 0.6231 0.6231 0.397642 475.467 688.714)" width="68.98" height="68.98" rx="11.47" ry="11.47"/>
      <rect class="fil1 str1" transform="matrix(-0.397642 0.6231 0.6231 0.397642 446.98 733.352)" width="68.98" height="68.98" rx="11.47" ry="11.47"/>
     </g>
     <g>
      <rect class="fil1 str1" transform="matrix(-0.364028 0.570427 0.570427 0.364029 621.694 783.819)" width="68.98" height="68.98" rx="11.47" ry="11.47"/>
      <rect class="fil1 str1" transform="matrix(-0.364028 0.570427 0.570427 0.364029 595.615 824.684)" width="68.98" height="68.98" rx="11.47" ry="11.47"/>
     </g>
    </g>
    <g>
     <g>
      <rect class="fil1 str1" transform="matrix(-0.248614 0.696106 0.696106 0.248614 359.009 904.676)" width="68.98" height="68.98" rx="11.47" ry="11.47"/>
      <rect class="fil1 str1" transform="matrix(-0.248614 0.696106 0.696106 0.248614 341.198 954.545)" width="68.98" height="68.98" rx="11.47" ry="11.47"/>
     </g>
     <g>
      <rect class="fil1 str1" transform="matrix(-0.227598 0.637263 0.637263 0.227598 522.767 964.763)" width="68.98" height="68.98" rx="11.47" ry="11.47"/>
      <rect class="fil1 str1" transform="matrix(-0.227598 0.637263 0.637263 0.227598 506.462 1010.42)" width="68.98" height="68.98" rx="11.47" ry="11.47"/>
     </g>
    </g>
    <g>
     <g>
      <rect class="fil1 str1" transform="matrix(-0.0870535 0.734026 0.734026 0.0870535 293.665 1141.18)" width="68.98" height="68.98" rx="11.47" ry="11.47"/>
      <rect class="fil1 str1" transform="matrix(-0.0870535 0.734026 0.734026 0.0870535 287.428 1193.76)" width="68.98" height="68.98" rx="11.47" ry="11.47"/>
     </g>
     <g>
      <rect class="fil1 str1" transform="matrix(-0.0796946 0.671977 0.671977 0.0796946 466.701 1163.22)" width="68.98" height="68.98" rx="11.47" ry="11.47"/>
      <rect class="fil1 str1" transform="matrix(-0.0796946 0.671977 0.671977 0.0796946 460.992 1211.36)" width="68.98" height="68.98" rx="11.47" ry="11.47"/>
     </g>
    </g>
    <path class="fil1 str1" d="M2452.41 1312.19c0,-52.26 -42.36,-94.62 -94.62,-94.62 -52.25,0 -94.62,42.36 -94.62,94.62 0,52.27 42.37,94.62 94.62,94.62 52.26,0 94.62,-42.35 94.62,-94.62z"/>
    <path class="fil1 str1" d="M1609.85 259.17c-50.99,-11.46 -101.6,20.57 -113.06,71.57 -11.46,50.98 20.57,101.6 71.57,113.06 50.99,11.46 101.6,-20.59 113.06,-71.57 11.46,-50.99 -20.58,-101.6 -71.57,-113.06z"/>
    <path class="fil1 str1" d="M1842.25 340.17c-47.07,-22.72 -103.62,-2.98 -126.33,44.09 -22.71,47.06 -2.98,103.63 44.09,126.34 47.07,22.72 103.63,2.97 126.34,-44.09 22.71,-47.07 2.98,-103.63 -44.1,-126.34z"/>
    <path class="fil1 str1" d="M2046.09 468.37c-40.87,-32.59 -100.39,-25.88 -132.97,14.98 -32.58,40.86 -25.88,100.39 14.98,132.97 40.86,32.59 100.39,25.87 132.97,-14.98 32.59,-40.86 25.88,-100.38 -14.98,-132.97z"/>
    <path class="fil1 str1" d="M2217.92 640.46c-32.53,-40.91 -92.04,-47.7 -132.95,-15.17 -40.89,32.52 -47.69,92.04 -15.16,132.95 32.53,40.91 92.05,47.69 132.95,15.17 40.9,-32.53 47.69,-92.04 15.16,-132.95z"/>
    <path class="fil1 str1" d="M2345.47 843.74c-22.69,-47.08 -79.23,-66.86 -126.31,-44.17 -47.08,22.68 -66.86,79.23 -44.18,126.31 22.69,47.09 79.24,66.85 126.31,44.17 47.09,-22.68 66.86,-79.22 44.18,-126.31z"/>
    <path class="fil1 str1" d="M2426.49 1077.03c-11.39,-51.01 -61.96,-83.12 -112.96,-71.73 -51,11.38 -83.12,61.95 -71.73,112.96 11.38,51.01 61.96,83.12 112.96,71.73 51.01,-11.39 83.12,-61.95 71.73,-112.96z"/>
    <g>
     <g>
      <rect class="fil1 str1" transform="matrix(0.735264 0.0758904 -0.0758904 0.735264 1442.86 221.483)" width="68.98" height="68.98" rx="11.47" ry="11.47"/>
      <rect class="fil1 str1" transform="matrix(0.735264 0.0758904 -0.0758904 0.735264 1495.53 226.92)" width="68.98" height="68.98" rx="11.47" ry="11.47"/>
     </g>
     <g>
      <rect class="fil1 str1" transform="matrix(0.67311 0.0694752 -0.0694751 0.67311 1426.45 395.144)" width="68.98" height="68.98" rx="11.47" ry="11.47"/>
      <rect class="fil1 str1" transform="matrix(0.67311 0.0694752 -0.0694751 0.67311 1474.67 400.121)" width="68.98" height="68.98" rx="11.47" ry="11.47"/>
     </g>
    </g>
    <g>
     <g>
      <rect class="fil1 str1" transform="matrix(0.699804 0.238008 -0.238008 0.699804 1684.42 264.519)" width="68.98" height="68.98" rx="11.47" ry="11.47"/>
      <rect class="fil1 str1" transform="matrix(0.699804 0.238008 -0.238008 0.699804 1734.55 281.57)" width="68.98" height="68.98" rx="11.47" ry="11.47"/>
     </g>
     <g>
      <rect class="fil1 str1" transform="matrix(0.640647 0.217888 -0.217888 0.640647 1629.68 430.142)" width="68.98" height="68.98" rx="11.47" ry="11.47"/>
      <rect class="fil1 str1" transform="matrix(0.640647 0.217888 -0.217888 0.640647 1675.58 445.752)" width="68.98" height="68.98" rx="11.47" ry="11.47"/>
     </g>
    </g>
    <g>
     <g>
      <rect class="fil1 str1" transform="matrix(0.62907 0.388129 -0.388129 0.62907 1910.29 360.36)" width="68.98" height="68.98" rx="11.47" ry="11.47"/>
      <rect class="fil1 str1" transform="matrix(0.62907 0.388129 -0.388129 0.62907 1955.35 388.165)" width="68.98" height="68.98" rx="11.47" ry="11.47"/>
     </g>
     <g>
      <rect class="fil1 str1" transform="matrix(0.575893 0.355319 -0.355319 0.575893 1819.98 509.597)" width="68.98" height="68.98" rx="11.47" ry="11.47"/>
      <rect class="fil1 str1" transform="matrix(0.575893 0.355319 -0.355319 0.575893 1861.24 535.052)" width="68.98" height="68.98" rx="11.47" ry="11.47"/>
     </g>
    </g>
    <g>
     <g>
      <rect class="fil1 str1" transform="matrix(0.526628 0.518686 -0.518686 0.526628 2109.08 504.174)" width="68.98" height="68.98" rx="11.47" ry="11.47"/>
      <rect class="fil1 str1" transform="matrix(0.526628 0.518686 -0.518686 0.526628 2146.81 541.333)" width="68.98" height="68.98" rx="11.47" ry="11.47"/>
     </g>
     <g>
      <rect class="fil1 str1" transform="matrix(0.482111 0.47484 -0.47484 0.482111 1987.76 629.504)" width="68.98" height="68.98" rx="11.47" ry="11.47"/>
      <rect class="fil1 str1" transform="matrix(0.482111 0.47484 -0.47484 0.482111 2022.3 663.522)" width="68.98" height="68.98" rx="11.47" ry="11.47"/>
     </g>
    </g>
    <g>
     <g>
      <rect class="fil1 str1" transform="matrix(0.397642 0.6231 -0.6231 0.397642 2270.78 688.714)" width="68.98" height="68.98" rx="11.47" ry="11.47"/>
      <rect class="fil1 str1" transform="matrix(0.397642 0.6231 -0.6231 0.397642 2299.27 733.352)" width="68.98" height="68.98" rx="11.47" ry="11.47"/>
     </g>
     <g>
      <rect class="fil1 str1" transform="matrix(0.364028 0.570427 -0.570427 0.364029 2124.56 783.819)" width="68.98" height="68.98" rx="11.47" ry="11.47"/>
      <rect class="fil1 str1" transform="matrix(0.364028 0.570427 -0.570427 0.364029 2150.64 824.684)" width="68.98" height="68.98" rx="11.47" ry="11.47"/>
     </g>
    </g>
    <g>
     <g>
      <rect class="fil1 str1" transform="matrix(0.248614 0.696106 -0.696106 0.248614 2387.24 904.676)" width="68.98" height="68.98" rx="11.47" ry="11.47"/>
      <rect class="fil1 str1" transform="matrix(0.248614 0.696106 -0.696106 0.248614 2405.05 954.545)" width="68.98" height="68.98" rx="11.47" ry="11.47"/>
     </g>
     <g>
      <rect class="fil1 str1" transform="matrix(0.227598 0.637263 -0.637263 0.227598 2223.48 964.763)" width="68.98" height="68.98" rx="11.47" ry="11.47"/>
      <rect class="fil1 str1" transform="matrix(0.227598 0.637263 -0.637263 0.227598 2239.79 1010.42)" width="68.98" height="68.98" rx="11.47" ry="11.47"/>
     </g>
    </g>
    <g>
     <g>
      <rect class="fil1 str1" transform="matrix(0.0870535 0.734026 -0.734026 0.0870535 2452.59 1141.18)" width="68.98" height="68.98" rx="11.47" ry="11.47"/>
      <rect class="fil1 str1" transform="matrix(0.0870535 0.734026 -0.734026 0.0870535 2458.82 1193.76)" width="68.98" height="68.98" rx="11.47" ry="11.47"/>
     </g>
     <g>
      <rect class="fil1 str1" transform="matrix(0.0796946 0.671977 -0.671977 0.0796946 2279.55 1163.22)" width="68.98" height="68.98" rx="11.47" ry="11.47"/>
      <rect class="fil1 str1" transform="matrix(0.0796946 0.671977 -0.671977 0.0796946 2285.26 1211.36)" width="68.98" height="68.98" rx="11.47" ry="11.47"/>
     </g>
    </g>
    <path class="fil1 str1" d="M1373.04 2391.59c52.27,0 94.62,-42.35 94.62,-94.61 0,-52.26 -42.35,-94.62 -94.62,-94.62 -52.27,0 -94.62,42.36 -94.62,94.62 0,52.26 42.35,94.61 94.62,94.61z"/>
    <path class="fil1 str1" d="M1136.4 2365.32c51,11.46 101.61,-20.58 113.07,-71.57 11.45,-50.98 -20.58,-101.6 -71.57,-113.06 -51,-11.46 -101.61,20.59 -113.07,71.57 -11.46,50.99 20.58,101.6 71.57,113.06z"/>
    <path class="fil1 str1" d="M904 2284.32c47.07,22.71 103.62,2.97 126.34,-44.1 22.7,-47.06 2.97,-103.62 -44.1,-126.34 -47.07,-22.71 -103.63,-2.96 -126.34,44.1 -22.71,47.07 -2.97,103.62 44.1,126.34z"/>
    <path class="fil1 str1" d="M700.17 2156.12c40.86,32.58 100.38,25.88 132.97,-14.99 32.57,-40.85 25.88,-100.38 -14.99,-132.97 -40.86,-32.58 -100.39,-25.87 -132.97,14.99 -32.58,40.86 -25.88,100.38 14.99,132.97z"/>
    <path class="fil1 str1" d="M528.33 1984.03c32.53,40.9 92.04,47.69 132.95,15.16 40.9,-32.52 47.7,-92.04 15.17,-132.95 -32.53,-40.9 -92.06,-47.68 -132.95,-15.16 -40.91,32.53 -47.7,92.04 -15.17,132.95z"/>
    <path class="fil1 str1" d="M400.78 1780.74c22.69,47.09 79.23,66.86 126.32,44.18 47.07,-22.68 66.85,-79.23 44.17,-126.31 -22.69,-47.09 -79.24,-66.86 -126.31,-44.18 -47.09,22.69 -66.86,79.23 -44.18,126.31z"/>
    <path class="fil1 str1" d="M319.76 1547.46c11.39,51.01 61.96,83.12 112.97,71.73 50.99,-11.39 83.11,-61.96 71.73,-112.97 -11.39,-51.01 -61.97,-83.11 -112.97,-71.72 -51.01,11.38 -83.11,61.95 -71.73,112.96z"/>
    <g>
     <g>
      <rect class="fil1 str1" transform="matrix(-0.735264 -0.0758904 0.0758904 -0.735264 1303.39 2403)" width="68.98" height="68.98" rx="11.47" ry="11.47"/>
      <rect class="fil1 str1" transform="matrix(-0.735264 -0.0758904 0.0758904 -0.735264 1250.72 2397.57)" width="68.98" height="68.98" rx="11.47" ry="11.47"/>
     </g>
     <g>
      <rect class="fil1 str1" transform="matrix(-0.67311 -0.0694752 0.0694751 -0.67311 1319.8 2229.34)" width="68.98" height="68.98" rx="11.47" ry="11.47"/>
      <rect class="fil1 str1" transform="matrix(-0.67311 -0.0694752 0.0694751 -0.67311 1271.58 2224.37)" width="68.98" height="68.98" rx="11.47" ry="11.47"/>
     </g>
    </g>
    <g>
     <g>
      <rect class="fil1 str1" transform="matrix(-0.699804 -0.238008 0.238008 -0.699804 1061.83 2359.97)" width="68.98" height="68.98" rx="11.47" ry="11.47"/>
      <rect class="fil1 str1" transform="matrix(-0.699804 -0.238008 0.238008 -0.699804 1011.7 2342.92)" width="68.98" height="68.98" rx="11.47" ry="11.47"/>
     </g>
     <g>
      <rect class="fil1 str1" transform="matrix(-0.640647 -0.217888 0.217888 -0.640647 1116.57 2194.34)" width="68.98" height="68.98" rx="11.47" ry="11.47"/>
      <rect class="fil1 str1" transform="matrix(-0.640647 -0.217888 0.217888 -0.640647 1070.68 2178.73)" width="68.98" height="68.98" rx="11.47" ry="11.47"/>
     </g>
    </g>
    <g>
     <g>
      <rect class="fil1 str1" transform="matrix(-0.62907 -0.388129 0.388129 -0.62907 835.965 2264.13)" width="68.98" height="68.98" rx="11.47" ry="11.47"/>
      <rect class="fil1 str1" transform="matrix(-0.62907 -0.388129 0.388129 -0.62907 790.899 2236.32)" width="68.98" height="68.98" rx="11.47" ry="11.47"/>
     </g>
     <g>
      <rect class="fil1 str1" transform="matrix(-0.575893 -0.355319 0.355319 -0.575893 926.272 2114.89)" width="68.98" height="68.98" rx="11.47" ry="11.47"/>
      <rect class="fil1 str1" transform="matrix(-0.575893 -0.355319 0.355319 -0.575893 885.015 2089.43)" width="68.98" height="68.98" rx="11.47" ry="11.47"/>
     </g>
    </g>
    <g>
     <g>
      <rect class="fil1 str1" transform="matrix(-0.526628 -0.518686 0.518686 -0.526628 637.169 2120.31)" width="68.98" height="68.98" rx="11.47" ry="11.47"/>
      <rect class="fil1 str1" transform="matrix(-0.526628 -0.518686 0.518686 -0.526628 599.442 2083.15)" width="68.98" height="68.98" rx="11.47" ry="11.47"/>
     </g>
     <g>
      <rect class="fil1 str1" transform="matrix(-0.482111 -0.47484 0.47484 -0.482111 758.494 1994.98)" width="68.98" height="68.98" rx="11.47" ry="11.47"/>
      <rect class="fil1 str1" transform="matrix(-0.482111 -0.47484 0.47484 -0.482111 723.956 1960.96)" width="68.98" height="68.98" rx="11.47" ry="11.47"/>
     </g>
    </g>
    <g>
     <g>
      <rect class="fil1 str1" transform="matrix(-0.397642 -0.6231 0.6231 -0.397642 475.467 1935.77)" width="68.98" height="68.98" rx="11.47" ry="11.47"/>
      <rect class="fil1 str1" transform="matrix(-0.397642 -0.6231 0.6231 -0.397642 446.98 1891.13)" width="68.98" height="68.98" rx="11.47" ry="11.47"/>
     </g>
     <g>
      <rect class="fil1 str1" transform="matrix(-0.364028 -0.570427 0.570427 -0.364029 621.694 1840.67)" width="68.98" height="68.98" rx="11.47" ry="11.47"/>
      <rect class="fil1 str1" transform="matrix(-0.364028 -0.570427 0.570427 -0.364029 595.615 1799.8)" width="68.98" height="68.98" rx="11.47" ry="11.47"/>
     </g>
    </g>
    <g>
     <g>
      <rect class="fil1 str1" transform="matrix(-0.248614 -0.696106 0.696106 -0.248614 359.009 1719.81)" width="68.98" height="68.98" rx="11.47" ry="11.47"/>
      <rect class="fil1 str1" transform="matrix(-0.248614 -0.696106 0.696106 -0.248614 341.198 1669.94)" width="68.98" height="68.98" rx="11.47" ry="11.47"/>
     </g>
     <g>
      <rect class="fil1 str1" transform="matrix(-0.227598 -0.637263 0.637263 -0.227598 522.767 1659.72)" width="68.98" height="68.98" rx="11.47" ry="11.47"/>
      <rect class="fil1 str1" transform="matrix(-0.227598 -0.637263 0.637263 -0.227598 506.462 1614.07)" width="68.98" height="68.98" rx="11.47" ry="11.47"/>
     </g>
    </g>
    <g>
     <g>
      <rect class="fil1 str1" transform="matrix(-0.0870535 -0.734026 0.734026 -0.0870535 293.665 1483.31)" width="68.98" height="68.98" rx="11.47" ry="11.47"/>
      <rect class="fil1 str1" transform="matrix(-0.0870535 -0.734026 0.734026 -0.0870535 287.428 1430.72)" width="68.98" height="68.98" rx="11.47" ry="11.47"/>
     </g>
     <g>
      <rect class="fil1 str1" transform="matrix(-0.0796946 -0.671977 0.671977 -0.0796946 466.701 1461.27)" width="68.98" height="68.98" rx="11.47" ry="11.47"/>
      <rect class="fil1 str1" transform="matrix(-0.0796946 -0.671977 0.671977 -0.0796946 460.992 1413.13)" width="68.98" height="68.98" rx="11.47" ry="11.47"/>
     </g>
    </g>
    <path class="fil1 str1" d="M1609.85 2365.32c-50.99,11.46 -101.6,-20.58 -113.06,-71.57 -11.46,-50.98 20.57,-101.6 71.57,-113.06 50.99,-11.46 101.6,20.59 113.06,71.57 11.46,50.99 -20.58,101.6 -71.57,113.06z"/>
    <path class="fil1 str1" d="M1842.25 2284.32c-47.07,22.71 -103.62,2.97 -126.33,-44.1 -22.71,-47.06 -2.98,-103.62 44.09,-126.34 47.07,-22.71 103.63,-2.96 126.34,44.1 22.71,47.07 2.98,103.62 -44.1,126.34z"/>
    <path class="fil1 str1" d="M2046.09 2156.12c-40.87,32.58 -100.39,25.88 -132.97,-14.99 -32.58,-40.85 -25.88,-100.38 14.98,-132.97 40.86,-32.58 100.39,-25.87 132.97,14.99 32.59,40.86 25.88,100.38 -14.98,132.97z"/>
    <path class="fil1 str1" d="M2217.92 1984.03c-32.53,40.9 -92.04,47.69 -132.95,15.16 -40.89,-32.52 -47.69,-92.04 -15.16,-132.95 32.53,-40.9 92.05,-47.68 132.95,-15.16 40.9,32.53 47.69,92.04 15.16,132.95z"/>
    <path class="fil1 str1" d="M2345.47 1780.74c-22.69,47.09 -79.23,66.86 -126.31,44.18 -47.08,-22.68 -66.86,-79.23 -44.18,-126.31 22.69,-47.09 79.24,-66.86 126.31,-44.18 47.09,22.69 66.86,79.23 44.18,126.31z"/>
    <path class="fil1 str1" d="M2426.49 1547.46c-11.39,51.01 -61.96,83.12 -112.96,71.73 -51,-11.39 -83.12,-61.96 -71.73,-112.97 11.38,-51.01 61.96,-83.11 112.96,-71.72 51.01,11.38 83.12,61.95 71.73,112.96z"/>
    <g>
     <g>
      <rect class="fil1 str1" transform="matrix(0.735264 -0.0758904 -0.0758904 -0.735264 1442.86 2403)" width="68.98" height="68.98" rx="11.47" ry="11.47"/>
      <rect class="fil1 str1" transform="matrix(0.735264 -0.0758904 -0.0758904 -0.735264 1495.53 2397.57)" width="68.98" height="68.98" rx="11.47" ry="11.47"/>
     </g>
     <g>
      <rect class="fil1 str1" transform="matrix(0.67311 -0.0694752 -0.0694751 -0.67311 1426.45 2229.34)" width="68.98" height="68.98" rx="11.47" ry="11.47"/>
      <rect class="fil1 str1" transform="matrix(0.67311 -0.0694752 -0.0694751 -0.67311 1474.67 2224.37)" width="68.98" height="68.98" rx="11.47" ry="11.47"/>
     </g>
    </g>
    <g>
     <g>
      <rect class="fil1 str1" transform="matrix(0.699804 -0.238008 -0.238008 -0.699804 1684.42 2359.97)" width="68.98" height="68.98" rx="11.47" ry="11.47"/>
      <rect class="fil1 str1" transform="matrix(0.699804 -0.238008 -0.238008 -0.699804 1734.55 2342.92)" width="68.98" height="68.98" rx="11.47" ry="11.47"/>
     </g>
     <g>
      <rect class="fil1 str1" transform="matrix(0.640647 -0.217888 -0.217888 -0.640647 1629.68 2194.34)" width="68.98" height="68.98" rx="11.47" ry="11.47"/>
      <rect class="fil1 str1" transform="matrix(0.640647 -0.217888 -0.217888 -0.640647 1675.58 2178.73)" width="68.98" height="68.98" rx="11.47" ry="11.47"/>
     </g>
    </g>
    <g>
     <g>
      <rect class="fil1 str1" transform="matrix(0.62907 -0.388129 -0.388129 -0.62907 1910.29 2264.13)" width="68.98" height="68.98" rx="11.47" ry="11.47"/>
      <rect class="fil1 str1" transform="matrix(0.62907 -0.388129 -0.388129 -0.62907 1955.35 2236.32)" width="68.98" height="68.98" rx="11.47" ry="11.47"/>
     </g>
     <g>
      <rect class="fil1 str1" transform="matrix(0.575893 -0.355319 -0.355319 -0.575893 1819.98 2114.89)" width="68.98" height="68.98" rx="11.47" ry="11.47"/>
      <rect class="fil1 str1" transform="matrix(0.575893 -0.355319 -0.355319 -0.575893 1861.24 2089.43)" width="68.98" height="68.98" rx="11.47" ry="11.47"/>
     </g>
    </g>
    <g>
     <g>
      <rect class="fil1 str1" transform="matrix(0.526628 -0.518686 -0.518686 -0.526628 2109.08 2120.31)" width="68.98" height="68.98" rx="11.47" ry="11.47"/>
      <rect class="fil1 str1" transform="matrix(0.526628 -0.518686 -0.518686 -0.526628 2146.81 2083.15)" width="68.98" height="68.98" rx="11.47" ry="11.47"/>
     </g>
     <g>
      <rect class="fil1 str1" transform="matrix(0.482111 -0.47484 -0.47484 -0.482111 1987.76 1994.98)" width="68.98" height="68.98" rx="11.47" ry="11.47"/>
      <rect class="fil1 str1" transform="matrix(0.482111 -0.47484 -0.47484 -0.482111 2022.3 1960.96)" width="68.98" height="68.98" rx="11.47" ry="11.47"/>
     </g>
    </g>
    <g>
     <g>
      <rect class="fil1 str1" transform="matrix(0.397642 -0.6231 -0.6231 -0.397642 2270.78 1935.77)" width="68.98" height="68.98" rx="11.47" ry="11.47"/>
      <rect class="fil1 str1" transform="matrix(0.397642 -0.6231 -0.6231 -0.397642 2299.27 1891.13)" width="68.98" height="68.98" rx="11.47" ry="11.47"/>
     </g>
     <g>
      <rect class="fil1 str1" transform="matrix(0.364028 -0.570427 -0.570427 -0.364029 2124.56 1840.67)" width="68.98" height="68.98" rx="11.47" ry="11.47"/>
      <rect class="fil1 str1" transform="matrix(0.364028 -0.570427 -0.570427 -0.364029 2150.64 1799.8)" width="68.98" height="68.98" rx="11.47" ry="11.47"/>
     </g>
    </g>
    <g>
     <g>
      <rect class="fil1 str1" transform="matrix(0.248614 -0.696106 -0.696106 -0.248614 2387.24 1719.81)" width="68.98" height="68.98" rx="11.47" ry="11.47"/>
      <rect class="fil1 str1" transform="matrix(0.248614 -0.696106 -0.696106 -0.248614 2405.05 1669.94)" width="68.98" height="68.98" rx="11.47" ry="11.47"/>
     </g>
     <g>
      <rect class="fil1 str1" transform="matrix(0.227598 -0.637263 -0.637263 -0.227598 2223.48 1659.72)" width="68.98" height="68.98" rx="11.47" ry="11.47"/>
      <rect class="fil1 str1" transform="matrix(0.227598 -0.637263 -0.637263 -0.227598 2239.79 1614.07)" width="68.98" height="68.98" rx="11.47" ry="11.47"/>
     </g>
    </g>
    <g>
     <g>
      <rect class="fil1 str1" transform="matrix(0.0870535 -0.734026 -0.734026 -0.0870535 2452.59 1483.31)" width="68.98" height="68.98" rx="11.47" ry="11.47"/>
      <rect class="fil1 str1" transform="matrix(0.0870535 -0.734026 -0.734026 -0.0870535 2458.82 1430.72)" width="68.98" height="68.98" rx="11.47" ry="11.47"/>
     </g>
     <g>
      <rect class="fil1 str1" transform="matrix(0.0796946 -0.671977 -0.671977 -0.0796946 2279.55 1461.27)" width="68.98" height="68.98" rx="11.47" ry="11.47"/>
      <rect class="fil1 str1" transform="matrix(0.0796946 -0.671977 -0.671977 -0.0796946 2285.26 1413.13)" width="68.98" height="68.98" rx="11.47" ry="11.47"/>
     </g>
    </g>
   </g>
   <g>
    <g>
     <circle class="fil1 str2" cx="1373.04" cy="1312.14" r="808.53"/>
     <polygon class="fil0 str3" points="1373.04,859.49 1607.47,735.52 1373.04,507.93 1138.61,735.52 "/>
     <polygon class="fil0 str3" points="1693.11,992.07 1946.94,1069.78 1942.83,742.35 1615.4,738.24 "/>
     <polygon class="fil0 str3" points="1825.69,1312.14 1950.22,1546.57 2178.84,1312.14 1950.22,1077.71 "/>
     <polygon class="fil0 str3" points="1693.11,1632.21 1615.4,1886.04 1942.83,1881.93 1946.94,1554.5 "/>
     <polygon class="fil0 str3" points="1373.04,1764.79 1138.61,1889.32 1373.04,2117.94 1607.47,1889.32 "/>
     <polygon class="fil0 str3" points="1052.97,1632.21 799.14,1554.5 803.25,1881.93 1130.68,1886.04 "/>
     <polygon class="fil0 str3" points="920.39,1312.14 795.86,1077.71 567.24,1312.14 795.86,1546.57 "/>
     <polygon class="fil0 str3" points="1052.97,992.07 1130.68,738.24 803.25,742.35 799.14,1069.78 "/>
     <line class="fil0 str3" x1="1052.97" y1="992.07" x2="1373.04" y2= "859.49" />
     <line class="fil0 str3" x1="1373.04" y1="859.49" x2="1693.11" y2= "992.07" />
     <line class="fil0 str3" x1="1693.11" y1="992.07" x2="1825.69" y2= "1312.14" />
     <line class="fil0 str3" x1="1825.69" y1="1312.14" x2="1693.11" y2= "1632.21" />
     <line class="fil0 str3" x1="1693.11" y1="1632.21" x2="1373.04" y2= "1764.79" />
     <line class="fil0 str3" x1="1373.04" y1="1764.79" x2="1052.97" y2= "1632.21" />
     <line class="fil0 str3" x1="1052.97" y1="1632.21" x2="920.39" y2= "1312.14" />
     <line class="fil0 str3" x1="920.39" y1="1312.14" x2="1052.97" y2= "992.07" />
    </g>
    <path class="fil1 str1" d="M663.96 692.49c7.16,-56.55 58.79,-96.58 115.34,-89.42 56.54,7.16 96.59,58.79 89.43,115.35 -7.16,56.55 -58.81,96.58 -115.35,89.42 -56.56,-7.16 -96.58,-58.79 -89.42,-115.35z"/>
    <path class="fil1 str1" d="M1992.69 603.06c56.55,7.16 96.58,58.79 89.42,115.34 -7.16,56.54 -58.79,96.59 -115.35,89.43 -56.55,-7.16 -96.58,-58.81 -89.42,-115.35 7.16,-56.56 58.79,-96.58 115.35,-89.42z"/>
    <path class="fil1 str1" d="M2082.12 1931.79c-7.16,56.55 -58.79,96.58 -115.34,89.42 -56.54,-7.16 -96.59,-58.79 -89.43,-115.35 7.16,-56.55 58.81,-96.58 115.35,-89.42 56.56,7.16 96.58,58.79 89.42,115.35z"/>
    <path class="fil1 str1" d="M753.39 2021.22c-56.55,-7.16 -96.58,-58.79 -89.42,-115.34 7.16,-56.54 58.79,-96.59 115.35,-89.43 56.55,7.16 96.58,58.81 89.42,115.35 -7.16,56.56 -58.79,96.58 -115.35,89.42z"/>
   </g>
  </g>
 </g>
</svg>
