<?xml version="1.0" encoding="UTF-8"?>
<!DOCTYPE svg PUBLIC "-//W3C//DTD SVG 1.1//EN" "http://www.w3.org/Graphics/SVG/1.1/DTD/svg11.dtd">
<!-- Creator: CorelDRAW 2021 (64-Bit) -->
<svg xmlns="http://www.w3.org/2000/svg" xml:space="preserve" width="17.1433mm" height="17.1433mm" version="1.1" style="shape-rendering:geometricPrecision; text-rendering:geometricPrecision; image-rendering:optimizeQuality; fill-rule:evenodd; clip-rule:evenodd"
viewBox="0 0 1700.18 1700.18"
 xmlns:xlink="http://www.w3.org/1999/xlink"
 xmlns:xodm="http://www.corel.com/coreldraw/odm/2003">
 <defs>
  <style type="text/css">
   <![CDATA[
    .str3 {stroke:#898989;stroke-width:12.25;stroke-miterlimit:22.9256}
    .str2 {stroke:#2B2A29;stroke-width:12.25;stroke-miterlimit:22.9256}
    .str1 {stroke:#2B2A29;stroke-width:12.25;stroke-miterlimit:2.61313}
    .str0 {stroke:#FEFEFE;stroke-width:7.56;stroke-miterlimit:22.9256}
    .fil0 {fill:none}
    .fil1 {fill:#FEFEFE}
   ]]>
  </style>
 </defs>
 <g id="Layer_x0020_1">
  <metadata id="CorelCorpID_0Corel-Layer"/>
  <rect class="fil0 str0" x="3.78" y="3.78" width="1692.62" height="1692.62"/>
  <g id="_1982476905584">
   <path class="fil1 str1" d="M850.09 22.27c457.13,0 827.8,370.67 827.8,827.8 0,457.13 -370.66,827.81 -827.8,827.81 -457.13,0 -827.8,-370.67 -827.8,-827.81 0,-457.12 370.66,-827.8 827.8,-827.8z"/>
   <path class="fil1 str1" d="M850.09 166.93c377.29,0 683.15,305.85 683.15,683.14 0,377.3 -305.86,683.15 -683.15,683.15 -377.29,0 -683.15,-305.85 -683.15,-683.15 0,-377.29 305.86,-683.14 683.15,-683.14z"/>
   <g>
    <path class="fil1 str1" d="M850.09 166.93c377.29,0 683.15,305.85 683.15,683.14 0,377.3 -305.86,683.15 -683.15,683.15 -377.29,0 -683.15,-305.85 -683.15,-683.15 0,-377.29 305.86,-683.14 683.15,-683.14z"/>
    <path class="fil1 str1" d="M850.09 309.17c298.74,0 540.91,242.16 540.91,540.91 0,298.75 -242.16,540.92 -540.91,540.92 -298.74,0 -540.91,-242.16 -540.91,-540.92 0,-298.74 242.16,-540.91 540.91,-540.91z"/>
    <path class="fil1 str2" d="M850.09 177.86c32.55,0 58.93,26.38 58.93,58.94 0,32.54 -26.38,58.93 -58.93,58.93 -32.56,0 -58.94,-26.39 -58.94,-58.93 0,-32.56 26.38,-58.94 58.94,-58.94z"/>
    <path class="fil1 str2" d="M177.91 850.11c0,-32.56 26.38,-58.94 58.93,-58.94 32.55,0 58.94,26.38 58.94,58.94 0,32.55 -26.39,58.93 -58.94,58.93 -32.55,0 -58.93,-26.38 -58.93,-58.93z"/>
    <path class="fil1 str2" d="M702.7 194.22c31.77,-7.14 63.28,12.81 70.42,44.58 7.14,31.76 -12.81,63.28 -44.58,70.42 -31.77,7.14 -63.28,-12.82 -70.42,-44.58 -7.14,-31.77 12.81,-63.28 44.58,-70.42z"/>
    <path class="fil1 str2" d="M557.95 244.68c29.32,-14.15 64.54,-1.85 78.69,27.46 14.14,29.31 1.85,64.54 -27.47,78.69 -29.32,14.15 -64.54,1.85 -78.69,-27.46 -14.15,-29.32 -1.85,-64.54 27.46,-78.69z"/>
    <path class="fil1 str2" d="M430.99 324.53c25.45,-20.29 62.52,-16.12 82.82,9.33 20.29,25.45 16.12,62.53 -9.33,82.82 -25.46,20.3 -62.53,16.12 -82.82,-9.33 -20.3,-25.45 -16.13,-62.52 9.33,-82.82z"/>
    <path class="fil1 str2" d="M323.96 431.72c20.26,-25.48 57.32,-29.71 82.8,-9.44 25.48,20.25 29.71,57.32 9.45,82.8 -20.26,25.49 -57.33,29.7 -82.81,9.45 -25.48,-20.26 -29.7,-57.33 -9.44,-82.81z"/>
    <path class="fil1 str2" d="M244.51 558.33c14.13,-29.33 49.35,-41.64 78.68,-27.51 29.32,14.12 41.64,49.35 27.51,78.68 -14.12,29.33 -49.35,41.63 -78.68,27.51 -29.33,-14.13 -41.64,-49.35 -27.51,-78.68z"/>
    <path class="fil1 str2" d="M194.05 703.63c7.09,-31.77 38.59,-51.77 70.35,-44.67 31.77,7.09 51.77,38.58 44.68,70.35 -7.09,31.78 -38.6,51.77 -70.35,44.68 -31.78,-7.09 -51.77,-38.59 -44.68,-70.36z"/>
    <g>
     <g>
      <rect class="fil1 str2" transform="matrix(-0.461777 0.0476624 0.0476624 0.461777 806.713 170.754)" width="68.41" height="68.41" rx="11.38" ry="11.38"/>
      <rect class="fil1 str2" transform="matrix(-0.461777 0.0476624 0.0476624 0.461777 773.905 174.14)" width="68.41" height="68.41" rx="11.38" ry="11.38"/>
     </g>
     <g>
      <rect class="fil1 str2" transform="matrix(-0.422742 0.0436334 0.0436333 0.422742 816.934 278.92)" width="68.41" height="68.41" rx="11.38" ry="11.38"/>
      <rect class="fil1 str2" transform="matrix(-0.422742 0.0436334 0.0436333 0.422742 786.899 282.02)" width="68.41" height="68.41" rx="11.38" ry="11.38"/>
     </g>
    </g>
    <g>
     <g>
      <rect class="fil1 str2" transform="matrix(-0.439506 0.149479 0.149479 0.439506 656.257 197.559)" width="68.41" height="68.41" rx="11.38" ry="11.38"/>
      <rect class="fil1 str2" transform="matrix(-0.439506 0.149479 0.149479 0.439506 625.031 208.18)" width="68.41" height="68.41" rx="11.38" ry="11.38"/>
     </g>
     <g>
      <rect class="fil1 str2" transform="matrix(-0.402354 0.136843 0.136843 0.402354 690.351 300.719)" width="68.41" height="68.41" rx="11.38" ry="11.38"/>
      <rect class="fil1 str2" transform="matrix(-0.402354 0.136843 0.136843 0.402354 661.764 310.441)" width="68.41" height="68.41" rx="11.38" ry="11.38"/>
     </g>
    </g>
    <g>
     <g>
      <rect class="fil1 str2" transform="matrix(-0.395083 0.243761 0.243761 0.395083 515.572 257.254)" width="68.41" height="68.41" rx="11.38" ry="11.38"/>
      <rect class="fil1 str2" transform="matrix(-0.395083 0.243761 0.243761 0.395083 487.502 274.573)" width="68.41" height="68.41" rx="11.38" ry="11.38"/>
     </g>
     <g>
      <rect class="fil1 str2" transform="matrix(-0.361685 0.223156 0.223156 0.361685 571.821 350.208)" width="68.41" height="68.41" rx="11.38" ry="11.38"/>
      <rect class="fil1 str2" transform="matrix(-0.361685 0.223156 0.223156 0.361685 546.124 366.063)" width="68.41" height="68.41" rx="11.38" ry="11.38"/>
     </g>
    </g>
    <g>
     <g>
      <rect class="fil1 str2" transform="matrix(-0.330745 0.325757 0.325757 0.330745 391.751 346.83)" width="68.41" height="68.41" rx="11.38" ry="11.38"/>
      <rect class="fil1 str2" transform="matrix(-0.330745 0.325757 0.325757 0.330745 368.252 369.975)" width="68.41" height="68.41" rx="11.38" ry="11.38"/>
     </g>
     <g>
      <rect class="fil1 str2" transform="matrix(-0.302786 0.29822 0.29822 0.302786 467.319 424.893)" width="68.41" height="68.41" rx="11.38" ry="11.38"/>
      <rect class="fil1 str2" transform="matrix(-0.302786 0.29822 0.29822 0.302786 445.806 446.081)" width="68.41" height="68.41" rx="11.38" ry="11.38"/>
     </g>
    </g>
    <g>
     <g>
      <rect class="fil1 str2" transform="matrix(-0.249736 0.391333 0.391333 0.249736 291.033 461.772)" width="68.41" height="68.41" rx="11.38" ry="11.38"/>
      <rect class="fil1 str2" transform="matrix(-0.249736 0.391333 0.391333 0.249736 273.29 489.576)" width="68.41" height="68.41" rx="11.38" ry="11.38"/>
     </g>
     <g>
      <rect class="fil1 str2" transform="matrix(-0.228625 0.358253 0.358253 0.228625 382.112 521.009)" width="68.41" height="68.41" rx="11.38" ry="11.38"/>
      <rect class="fil1 str2" transform="matrix(-0.228625 0.358253 0.358253 0.228625 365.868 546.462)" width="68.41" height="68.41" rx="11.38" ry="11.38"/>
     </g>
    </g>
    <g>
     <g>
      <rect class="fil1 str2" transform="matrix(-0.15614 0.437184 0.437184 0.15614 218.496 596.286)" width="68.41" height="68.41" rx="11.38" ry="11.38"/>
      <rect class="fil1 str2" transform="matrix(-0.15614 0.437184 0.437184 0.15614 207.403 627.348)" width="68.41" height="68.41" rx="11.38" ry="11.38"/>
     </g>
     <g>
      <rect class="fil1 str2" transform="matrix(-0.142941 0.400228 0.400228 0.142941 320.495 633.712)" width="68.41" height="68.41" rx="11.38" ry="11.38"/>
      <rect class="fil1 str2" transform="matrix(-0.142941 0.400228 0.400228 0.142941 310.339 662.147)" width="68.41" height="68.41" rx="11.38" ry="11.38"/>
     </g>
    </g>
    <g>
     <g>
      <rect class="fil1 str2" transform="matrix(-0.0546733 0.461 0.461 0.0546733 177.796 743.593)" width="68.41" height="68.41" rx="11.38" ry="11.38"/>
      <rect class="fil1 str2" transform="matrix(-0.0546733 0.461 0.461 0.0546733 173.912 776.346)" width="68.41" height="68.41" rx="11.38" ry="11.38"/>
     </g>
     <g>
      <rect class="fil1 str2" transform="matrix(-0.0500516 0.42203 0.42203 0.0500516 285.573 757.32)" width="68.41" height="68.41" rx="11.38" ry="11.38"/>
      <rect class="fil1 str2" transform="matrix(-0.0500516 0.42203 0.42203 0.0500516 282.017 787.305)" width="68.41" height="68.41" rx="11.38" ry="11.38"/>
     </g>
    </g>
    <path class="fil1 str2" d="M1522.39 850.11c0,-32.56 -26.38,-58.94 -58.94,-58.94 -32.54,0 -58.93,26.38 -58.93,58.94 0,32.55 26.39,58.93 58.93,58.93 32.56,0 58.94,-26.38 58.94,-58.93z"/>
    <path class="fil1 str2" d="M997.6 194.22c-31.77,-7.14 -63.28,12.81 -70.42,44.58 -7.14,31.76 12.81,63.28 44.58,70.42 31.76,7.14 63.28,-12.82 70.42,-44.58 7.13,-31.77 -12.82,-63.28 -44.58,-70.42z"/>
    <path class="fil1 str2" d="M1142.35 244.68c-29.33,-14.15 -64.54,-1.85 -78.69,27.46 -14.14,29.31 -1.85,64.54 27.46,78.69 29.33,14.15 64.55,1.85 78.69,-27.46 14.15,-29.32 1.85,-64.54 -27.46,-78.69z"/>
    <path class="fil1 str2" d="M1269.3 324.53c-25.45,-20.29 -62.52,-16.12 -82.82,9.33 -20.29,25.45 -16.12,62.53 9.33,82.82 25.46,20.3 62.53,16.12 82.82,-9.33 20.3,-25.45 16.13,-62.52 -9.33,-82.82z"/>
    <path class="fil1 str2" d="M1376.33 431.72c-20.26,-25.48 -57.32,-29.71 -82.81,-9.44 -25.47,20.25 -29.7,57.32 -9.44,82.8 20.26,25.49 57.33,29.7 82.81,9.45 25.48,-20.26 29.7,-57.33 9.44,-82.81z"/>
    <path class="fil1 str2" d="M1455.78 558.33c-14.13,-29.33 -49.35,-41.64 -78.68,-27.51 -29.33,14.12 -41.64,49.35 -27.52,78.68 14.13,29.33 49.36,41.63 78.68,27.51 29.34,-14.13 41.64,-49.35 27.52,-78.68z"/>
    <path class="fil1 str2" d="M1506.24 703.63c-7.09,-31.77 -38.59,-51.77 -70.36,-44.67 -31.76,7.09 -51.77,38.58 -44.67,70.35 7.09,31.78 38.59,51.77 70.35,44.68 31.78,-7.09 51.77,-38.59 44.68,-70.36z"/>
    <g>
     <g>
      <rect class="fil1 str2" transform="matrix(0.461777 0.0476624 -0.0476624 0.461777 893.581 170.754)" width="68.41" height="68.41" rx="11.38" ry="11.38"/>
      <rect class="fil1 str2" transform="matrix(0.461777 0.0476624 -0.0476624 0.461777 926.39 174.14)" width="68.41" height="68.41" rx="11.38" ry="11.38"/>
     </g>
     <g>
      <rect class="fil1 str2" transform="matrix(0.422742 0.0436334 -0.0436333 0.422742 883.36 278.92)" width="68.41" height="68.41" rx="11.38" ry="11.38"/>
      <rect class="fil1 str2" transform="matrix(0.422742 0.0436334 -0.0436333 0.422742 913.396 282.02)" width="68.41" height="68.41" rx="11.38" ry="11.38"/>
     </g>
    </g>
    <g>
     <g>
      <rect class="fil1 str2" transform="matrix(0.439506 0.149479 -0.149479 0.439506 1044.04 197.559)" width="68.41" height="68.41" rx="11.38" ry="11.38"/>
      <rect class="fil1 str2" transform="matrix(0.439506 0.149479 -0.149479 0.439506 1075.26 208.18)" width="68.41" height="68.41" rx="11.38" ry="11.38"/>
     </g>
     <g>
      <rect class="fil1 str2" transform="matrix(0.402354 0.136843 -0.136843 0.402354 1009.94 300.719)" width="68.41" height="68.41" rx="11.38" ry="11.38"/>
      <rect class="fil1 str2" transform="matrix(0.402354 0.136843 -0.136843 0.402354 1038.53 310.441)" width="68.41" height="68.41" rx="11.38" ry="11.38"/>
     </g>
    </g>
    <g>
     <g>
      <rect class="fil1 str2" transform="matrix(0.395083 0.243761 -0.243761 0.395083 1184.72 257.254)" width="68.41" height="68.41" rx="11.38" ry="11.38"/>
      <rect class="fil1 str2" transform="matrix(0.395083 0.243761 -0.243761 0.395083 1212.79 274.573)" width="68.41" height="68.41" rx="11.38" ry="11.38"/>
     </g>
     <g>
      <rect class="fil1 str2" transform="matrix(0.361685 0.223156 -0.223156 0.361685 1128.47 350.208)" width="68.41" height="68.41" rx="11.38" ry="11.38"/>
      <rect class="fil1 str2" transform="matrix(0.361685 0.223156 -0.223156 0.361685 1154.17 366.063)" width="68.41" height="68.41" rx="11.38" ry="11.38"/>
     </g>
    </g>
    <g>
     <g>
      <rect class="fil1 str2" transform="matrix(0.330745 0.325757 -0.325757 0.330745 1308.54 346.83)" width="68.41" height="68.41" rx="11.38" ry="11.38"/>
      <rect class="fil1 str2" transform="matrix(0.330745 0.325757 -0.325757 0.330745 1332.04 369.975)" width="68.41" height="68.41" rx="11.38" ry="11.38"/>
     </g>
     <g>
      <rect class="fil1 str2" transform="matrix(0.302786 0.29822 -0.29822 0.302786 1232.98 424.893)" width="68.41" height="68.41" rx="11.38" ry="11.38"/>
      <rect class="fil1 str2" transform="matrix(0.302786 0.29822 -0.29822 0.302786 1254.49 446.081)" width="68.41" height="68.41" rx="11.38" ry="11.38"/>
     </g>
    </g>
    <g>
     <g>
      <rect class="fil1 str2" transform="matrix(0.249736 0.391333 -0.391333 0.249736 1409.26 461.772)" width="68.41" height="68.41" rx="11.38" ry="11.38"/>
      <rect class="fil1 str2" transform="matrix(0.249736 0.391333 -0.391333 0.249736 1427 489.576)" width="68.41" height="68.41" rx="11.38" ry="11.38"/>
     </g>
     <g>
      <rect class="fil1 str2" transform="matrix(0.228625 0.358253 -0.358253 0.228625 1318.18 521.009)" width="68.41" height="68.41" rx="11.38" ry="11.38"/>
      <rect class="fil1 str2" transform="matrix(0.228625 0.358253 -0.358253 0.228625 1334.43 546.462)" width="68.41" height="68.41" rx="11.38" ry="11.38"/>
     </g>
    </g>
    <g>
     <g>
      <rect class="fil1 str2" transform="matrix(0.15614 0.437184 -0.437184 0.15614 1481.8 596.286)" width="68.41" height="68.41" rx="11.38" ry="11.38"/>
      <rect class="fil1 str2" transform="matrix(0.15614 0.437184 -0.437184 0.15614 1492.89 627.348)" width="68.41" height="68.41" rx="11.38" ry="11.38"/>
     </g>
     <g>
      <rect class="fil1 str2" transform="matrix(0.142941 0.400228 -0.400228 0.142941 1379.8 633.712)" width="68.41" height="68.41" rx="11.38" ry="11.38"/>
      <rect class="fil1 str2" transform="matrix(0.142941 0.400228 -0.400228 0.142941 1389.96 662.147)" width="68.41" height="68.41" rx="11.38" ry="11.38"/>
     </g>
    </g>
    <g>
     <g>
      <rect class="fil1 str2" transform="matrix(0.0546733 0.461 -0.461 0.0546733 1522.5 743.593)" width="68.41" height="68.41" rx="11.38" ry="11.38"/>
      <rect class="fil1 str2" transform="matrix(0.0546733 0.461 -0.461 0.0546733 1526.38 776.346)" width="68.41" height="68.41" rx="11.38" ry="11.38"/>
     </g>
     <g>
      <rect class="fil1 str2" transform="matrix(0.0500516 0.42203 -0.42203 0.0500516 1414.72 757.32)" width="68.41" height="68.41" rx="11.38" ry="11.38"/>
      <rect class="fil1 str2" transform="matrix(0.0500516 0.42203 -0.42203 0.0500516 1418.28 787.305)" width="68.41" height="68.41" rx="11.38" ry="11.38"/>
     </g>
    </g>
    <path class="fil1 str2" d="M850.09 1522.43c32.55,0 58.93,-26.38 58.93,-58.94 0,-32.54 -26.38,-58.93 -58.93,-58.93 -32.56,0 -58.94,26.39 -58.94,58.93 0,32.56 26.38,58.94 58.94,58.94z"/>
    <path class="fil1 str2" d="M702.7 1506.06c31.77,7.13 63.28,-12.82 70.42,-44.58 7.14,-31.76 -12.81,-63.28 -44.58,-70.42 -31.77,-7.14 -63.28,12.82 -70.42,44.58 -7.14,31.76 12.81,63.28 44.58,70.42z"/>
    <path class="fil1 str2" d="M557.95 1455.6c29.32,14.15 64.54,1.85 78.69,-27.46 14.14,-29.31 1.85,-64.54 -27.47,-78.69 -29.32,-14.14 -64.54,-1.84 -78.69,27.47 -14.15,29.32 -1.85,64.54 27.46,78.69z"/>
    <path class="fil1 str2" d="M430.99 1375.76c25.45,20.29 62.52,16.12 82.82,-9.33 20.29,-25.45 16.12,-62.53 -9.33,-82.82 -25.46,-20.3 -62.53,-16.12 -82.82,9.33 -20.3,25.45 -16.13,62.52 9.33,82.82z"/>
    <path class="fil1 str2" d="M323.96 1268.57c20.26,25.48 57.32,29.7 82.8,9.44 25.48,-20.25 29.71,-57.32 9.45,-82.8 -20.26,-25.49 -57.33,-29.71 -82.81,-9.45 -25.48,20.26 -29.7,57.32 -9.44,82.81z"/>
    <path class="fil1 str2" d="M244.51 1141.95c14.13,29.33 49.35,41.64 78.68,27.51 29.32,-14.12 41.64,-49.35 27.51,-78.68 -14.12,-29.33 -49.35,-41.63 -78.68,-27.51 -29.33,14.13 -41.64,49.35 -27.51,78.68z"/>
    <path class="fil1 str2" d="M194.05 996.64c7.09,31.78 38.59,51.78 70.35,44.68 31.77,-7.09 51.77,-38.59 44.68,-70.35 -7.09,-31.78 -38.6,-51.77 -70.35,-44.68 -31.78,7.09 -51.77,38.59 -44.68,70.35z"/>
    <g>
     <g>
      <rect class="fil1 str2" transform="matrix(-0.461777 -0.0476624 0.0476624 -0.461777 806.713 1529.53)" width="68.41" height="68.41" rx="11.38" ry="11.38"/>
      <rect class="fil1 str2" transform="matrix(-0.461777 -0.0476624 0.0476624 -0.461777 773.905 1526.14)" width="68.41" height="68.41" rx="11.38" ry="11.38"/>
     </g>
     <g>
      <rect class="fil1 str2" transform="matrix(-0.422742 -0.0436334 0.0436333 -0.422742 816.934 1421.37)" width="68.41" height="68.41" rx="11.38" ry="11.38"/>
      <rect class="fil1 str2" transform="matrix(-0.422742 -0.0436334 0.0436333 -0.422742 786.899 1418.27)" width="68.41" height="68.41" rx="11.38" ry="11.38"/>
     </g>
    </g>
    <g>
     <g>
      <rect class="fil1 str2" transform="matrix(-0.439506 -0.149479 0.149479 -0.439506 656.257 1502.73)" width="68.41" height="68.41" rx="11.38" ry="11.38"/>
      <rect class="fil1 str2" transform="matrix(-0.439506 -0.149479 0.149479 -0.439506 625.031 1492.11)" width="68.41" height="68.41" rx="11.38" ry="11.38"/>
     </g>
     <g>
      <rect class="fil1 str2" transform="matrix(-0.402354 -0.136843 0.136843 -0.402354 690.351 1399.57)" width="68.41" height="68.41" rx="11.38" ry="11.38"/>
      <rect class="fil1 str2" transform="matrix(-0.402354 -0.136843 0.136843 -0.402354 661.764 1389.84)" width="68.41" height="68.41" rx="11.38" ry="11.38"/>
     </g>
    </g>
    <g>
     <g>
      <rect class="fil1 str2" transform="matrix(-0.395083 -0.243761 0.243761 -0.395083 515.572 1443.03)" width="68.41" height="68.41" rx="11.38" ry="11.38"/>
      <rect class="fil1 str2" transform="matrix(-0.395083 -0.243761 0.243761 -0.395083 487.502 1425.71)" width="68.41" height="68.41" rx="11.38" ry="11.38"/>
     </g>
     <g>
      <rect class="fil1 str2" transform="matrix(-0.361685 -0.223156 0.223156 -0.361685 571.821 1350.08)" width="68.41" height="68.41" rx="11.38" ry="11.38"/>
      <rect class="fil1 str2" transform="matrix(-0.361685 -0.223156 0.223156 -0.361685 546.124 1334.22)" width="68.41" height="68.41" rx="11.38" ry="11.38"/>
     </g>
    </g>
    <g>
     <g>
      <rect class="fil1 str2" transform="matrix(-0.330745 -0.325757 0.325757 -0.330745 391.751 1353.45)" width="68.41" height="68.41" rx="11.38" ry="11.38"/>
      <rect class="fil1 str2" transform="matrix(-0.330745 -0.325757 0.325757 -0.330745 368.252 1330.31)" width="68.41" height="68.41" rx="11.38" ry="11.38"/>
     </g>
     <g>
      <rect class="fil1 str2" transform="matrix(-0.302786 -0.29822 0.29822 -0.302786 467.319 1275.39)" width="68.41" height="68.41" rx="11.38" ry="11.38"/>
      <rect class="fil1 str2" transform="matrix(-0.302786 -0.29822 0.29822 -0.302786 445.806 1254.2)" width="68.41" height="68.41" rx="11.38" ry="11.38"/>
     </g>
    </g>
    <g>
     <g>
      <rect class="fil1 str2" transform="matrix(-0.249736 -0.391333 0.391333 -0.249736 291.033 1238.51)" width="68.41" height="68.41" rx="11.38" ry="11.38"/>
      <rect class="fil1 str2" transform="matrix(-0.249736 -0.391333 0.391333 -0.249736 273.29 1210.71)" width="68.41" height="68.41" rx="11.38" ry="11.38"/>
     </g>
     <g>
      <rect class="fil1 str2" transform="matrix(-0.228625 -0.358253 0.358253 -0.228625 382.112 1179.28)" width="68.41" height="68.41" rx="11.38" ry="11.38"/>
      <rect class="fil1 str2" transform="matrix(-0.228625 -0.358253 0.358253 -0.228625 365.868 1153.82)" width="68.41" height="68.41" rx="11.38" ry="11.38"/>
     </g>
    </g>
    <g>
     <g>
      <rect class="fil1 str2" transform="matrix(-0.15614 -0.437184 0.437184 -0.15614 218.496 1104)" width="68.41" height="68.41" rx="11.38" ry="11.38"/>
      <rect class="fil1 str2" transform="matrix(-0.15614 -0.437184 0.437184 -0.15614 207.403 1072.94)" width="68.41" height="68.41" rx="11.38" ry="11.38"/>
     </g>
     <g>
      <rect class="fil1 str2" transform="matrix(-0.142941 -0.400228 0.400228 -0.142941 320.495 1066.57)" width="68.41" height="68.41" rx="11.38" ry="11.38"/>
      <rect class="fil1 str2" transform="matrix(-0.142941 -0.400228 0.400228 -0.142941 310.339 1038.14)" width="68.41" height="68.41" rx="11.38" ry="11.38"/>
     </g>
    </g>
    <g>
     <g>
      <rect class="fil1 str2" transform="matrix(-0.0546733 -0.461 0.461 -0.0546733 177.796 956.692)" width="68.41" height="68.41" rx="11.38" ry="11.38"/>
      <rect class="fil1 str2" transform="matrix(-0.0546733 -0.461 0.461 -0.0546733 173.912 923.939)" width="68.41" height="68.41" rx="11.38" ry="11.38"/>
     </g>
     <g>
      <rect class="fil1 str2" transform="matrix(-0.0500516 -0.42203 0.42203 -0.0500516 285.573 942.965)" width="68.41" height="68.41" rx="11.38" ry="11.38"/>
      <rect class="fil1 str2" transform="matrix(-0.0500516 -0.42203 0.42203 -0.0500516 282.017 912.98)" width="68.41" height="68.41" rx="11.38" ry="11.38"/>
     </g>
    </g>
    <path class="fil1 str2" d="M997.6 1506.06c-31.77,7.13 -63.28,-12.82 -70.42,-44.58 -7.14,-31.76 12.81,-63.28 44.58,-70.42 31.76,-7.14 63.28,12.82 70.42,44.58 7.13,31.76 -12.82,63.28 -44.58,70.42z"/>
    <path class="fil1 str2" d="M1142.35 1455.6c-29.33,14.15 -64.54,1.85 -78.69,-27.46 -14.14,-29.31 -1.85,-64.54 27.46,-78.69 29.33,-14.14 64.55,-1.84 78.69,27.47 14.15,29.32 1.85,64.54 -27.46,78.69z"/>
    <path class="fil1 str2" d="M1269.3 1375.76c-25.45,20.29 -62.52,16.12 -82.82,-9.33 -20.29,-25.45 -16.12,-62.53 9.33,-82.82 25.46,-20.3 62.53,-16.12 82.82,9.33 20.3,25.45 16.13,62.52 -9.33,82.82z"/>
    <path class="fil1 str2" d="M1376.33 1268.57c-20.26,25.48 -57.32,29.7 -82.81,9.44 -25.47,-20.25 -29.7,-57.32 -9.44,-82.8 20.26,-25.49 57.33,-29.71 82.81,-9.45 25.48,20.26 29.7,57.32 9.44,82.81z"/>
    <path class="fil1 str2" d="M1455.78 1141.95c-14.13,29.33 -49.35,41.64 -78.68,27.51 -29.33,-14.12 -41.64,-49.35 -27.52,-78.68 14.13,-29.33 49.36,-41.63 78.68,-27.51 29.34,14.13 41.64,49.35 27.52,78.68z"/>
    <path class="fil1 str2" d="M1506.24 996.64c-7.09,31.78 -38.59,51.78 -70.36,44.68 -31.76,-7.09 -51.77,-38.59 -44.67,-70.35 7.09,-31.78 38.59,-51.77 70.35,-44.68 31.78,7.09 51.77,38.59 44.68,70.35z"/>
    <g>
     <g>
      <rect class="fil1 str2" transform="matrix(0.461777 -0.0476624 -0.0476624 -0.461777 893.581 1529.53)" width="68.41" height="68.41" rx="11.38" ry="11.38"/>
      <rect class="fil1 str2" transform="matrix(0.461777 -0.0476624 -0.0476624 -0.461777 926.39 1526.14)" width="68.41" height="68.41" rx="11.38" ry="11.38"/>
     </g>
     <g>
      <rect class="fil1 str2" transform="matrix(0.422742 -0.0436334 -0.0436333 -0.422742 883.36 1421.37)" width="68.41" height="68.41" rx="11.38" ry="11.38"/>
      <rect class="fil1 str2" transform="matrix(0.422742 -0.0436334 -0.0436333 -0.422742 913.396 1418.27)" width="68.41" height="68.41" rx="11.38" ry="11.38"/>
     </g>
    </g>
    <g>
     <g>
      <rect class="fil1 str2" transform="matrix(0.439506 -0.149479 -0.149479 -0.439506 1044.04 1502.73)" width="68.41" height="68.41" rx="11.38" ry="11.38"/>
      <rect class="fil1 str2" transform="matrix(0.439506 -0.149479 -0.149479 -0.439506 1075.26 1492.11)" width="68.41" height="68.41" rx="11.38" ry="11.38"/>
     </g>
     <g>
      <rect class="fil1 str2" transform="matrix(0.402354 -0.136843 -0.136843 -0.402354 1009.94 1399.57)" width="68.41" height="68.41" rx="11.38" ry="11.38"/>
      <rect class="fil1 str2" transform="matrix(0.402354 -0.136843 -0.136843 -0.402354 1038.53 1389.84)" width="68.41" height="68.41" rx="11.38" ry="11.38"/>
     </g>
    </g>
    <g>
     <g>
      <rect class="fil1 str2" transform="matrix(0.395083 -0.243761 -0.243761 -0.395083 1184.72 1443.03)" width="68.41" height="68.41" rx="11.38" ry="11.38"/>
      <rect class="fil1 str2" transform="matrix(0.395083 -0.243761 -0.243761 -0.395083 1212.79 1425.71)" width="68.41" height="68.41" rx="11.38" ry="11.38"/>
     </g>
     <g>
      <rect class="fil1 str2" transform="matrix(0.361685 -0.223156 -0.223156 -0.361685 1128.47 1350.08)" width="68.41" height="68.41" rx="11.38" ry="11.38"/>
      <rect class="fil1 str2" transform="matrix(0.361685 -0.223156 -0.223156 -0.361685 1154.17 1334.22)" width="68.41" height="68.41" rx="11.38" ry="11.38"/>
     </g>
    </g>
    <g>
     <g>
      <rect class="fil1 str2" transform="matrix(0.330745 -0.325757 -0.325757 -0.330745 1308.54 1353.45)" width="68.41" height="68.41" rx="11.38" ry="11.38"/>
      <rect class="fil1 str2" transform="matrix(0.330745 -0.325757 -0.325757 -0.330745 1332.04 1330.31)" width="68.41" height="68.41" rx="11.38" ry="11.38"/>
     </g>
     <g>
      <rect class="fil1 str2" transform="matrix(0.302786 -0.29822 -0.29822 -0.302786 1232.98 1275.39)" width="68.41" height="68.41" rx="11.38" ry="11.38"/>
      <rect class="fil1 str2" transform="matrix(0.302786 -0.29822 -0.29822 -0.302786 1254.49 1254.2)" width="68.41" height="68.41" rx="11.38" ry="11.38"/>
     </g>
    </g>
    <g>
     <g>
      <rect class="fil1 str2" transform="matrix(0.249736 -0.391333 -0.391333 -0.249736 1409.26 1238.51)" width="68.41" height="68.41" rx="11.38" ry="11.38"/>
      <rect class="fil1 str2" transform="matrix(0.249736 -0.391333 -0.391333 -0.249736 1427 1210.71)" width="68.41" height="68.41" rx="11.38" ry="11.38"/>
     </g>
     <g>
      <rect class="fil1 str2" transform="matrix(0.228625 -0.358253 -0.358253 -0.228625 1318.18 1179.28)" width="68.41" height="68.41" rx="11.38" ry="11.38"/>
      <rect class="fil1 str2" transform="matrix(0.228625 -0.358253 -0.358253 -0.228625 1334.43 1153.82)" width="68.41" height="68.41" rx="11.38" ry="11.38"/>
     </g>
    </g>
    <g>
     <g>
      <rect class="fil1 str2" transform="matrix(0.15614 -0.437184 -0.437184 -0.15614 1481.8 1104)" width="68.41" height="68.41" rx="11.38" ry="11.38"/>
      <rect class="fil1 str2" transform="matrix(0.15614 -0.437184 -0.437184 -0.15614 1492.89 1072.94)" width="68.41" height="68.41" rx="11.38" ry="11.38"/>
     </g>
     <g>
      <rect class="fil1 str2" transform="matrix(0.142941 -0.400228 -0.400228 -0.142941 1379.8 1066.57)" width="68.41" height="68.41" rx="11.38" ry="11.38"/>
      <rect class="fil1 str2" transform="matrix(0.142941 -0.400228 -0.400228 -0.142941 1389.96 1038.14)" width="68.41" height="68.41" rx="11.38" ry="11.38"/>
     </g>
    </g>
    <g>
     <g>
      <rect class="fil1 str2" transform="matrix(0.0546733 -0.461 -0.461 -0.0546733 1522.5 956.692)" width="68.41" height="68.41" rx="11.38" ry="11.38"/>
      <rect class="fil1 str2" transform="matrix(0.0546733 -0.461 -0.461 -0.0546733 1526.38 923.939)" width="68.41" height="68.41" rx="11.38" ry="11.38"/>
     </g>
     <g>
      <rect class="fil1 str2" transform="matrix(0.0500516 -0.42203 -0.42203 -0.0500516 1414.72 942.965)" width="68.41" height="68.41" rx="11.38" ry="11.38"/>
      <rect class="fil1 str2" transform="matrix(0.0500516 -0.42203 -0.42203 -0.0500516 1418.28 912.98)" width="68.41" height="68.41" rx="11.38" ry="11.38"/>
     </g>
    </g>
   </g>
   <g>
    <circle class="fil1 str2" cx="850.09" cy="850.08" r="503.6"/>
    <polygon class="fil0 str3" points="850.09,568.14 996.11,490.92 850.09,349.17 704.08,490.92 "/>
    <polygon class="fil0 str3" points="1049.45,650.72 1207.55,699.12 1204.99,495.18 1001.05,492.62 "/>
    <polygon class="fil0 str3" points="1132.03,850.07 1209.6,996.1 1352,850.07 1209.6,704.06 "/>
    <polygon class="fil0 str3" points="1049.45,1049.43 1001.05,1207.54 1204.99,1204.97 1207.55,1001.04 "/>
    <polygon class="fil0 str3" points="850.09,1132.02 704.08,1209.58 850.09,1351.98 996.11,1209.58 "/>
    <polygon class="fil0 str3" points="650.73,1049.43 492.64,1001.04 495.2,1204.97 699.14,1207.54 "/>
    <polygon class="fil0 str3" points="568.16,850.07 490.59,704.06 348.19,850.07 490.59,996.1 "/>
    <polygon class="fil0 str3" points="650.73,650.72 699.14,492.62 495.2,495.18 492.64,699.12 "/>
    <line class="fil0 str3" x1="650.73" y1="650.71" x2="850.09" y2= "568.14" />
    <line class="fil0 str3" x1="850.09" y1="568.14" x2="1049.45" y2= "650.72" />
    <line class="fil0 str3" x1="1049.45" y1="650.71" x2="1132.03" y2= "850.07" />
    <line class="fil0 str3" x1="1132.03" y1="850.07" x2="1049.45" y2= "1049.43" />
    <line class="fil0 str3" x1="1049.45" y1="1049.43" x2="850.09" y2= "1132.02" />
    <line class="fil0 str3" x1="850.09" y1="1132.02" x2="650.73" y2= "1049.43" />
    <line class="fil0 str3" x1="650.73" y1="1049.43" x2="568.16" y2= "850.07" />
    <line class="fil0 str3" x1="568.16" y1="850.07" x2="650.73" y2= "650.72" />
   </g>
   <path class="fil1 str2" d="M810.7 44.43c28.07,-21.75 68.43,-16.64 90.19,11.41 21.75,28.06 16.64,68.44 -11.41,90.19 -28.07,21.76 -68.44,16.64 -90.19,-11.41 -21.76,-28.07 -16.64,-68.43 11.41,-90.19z"/>
   <path class="fil1 str2" d="M44.49 889.58c-21.76,-28.06 -16.64,-68.43 11.41,-90.19 28.06,-21.75 68.43,-16.64 90.19,11.42 21.76,28.06 16.63,68.43 -11.41,90.18 -28.07,21.76 -68.43,16.65 -90.19,-11.41z"/>
   <path class="fil1 str2" d="M655.51 67.3c23.33,-26.77 63.92,-29.57 90.7,-6.25 26.77,23.32 29.57,63.92 6.25,90.69 -23.32,26.78 -63.92,29.57 -90.69,6.26 -26.78,-23.33 -29.57,-63.92 -6.26,-90.7z"/>
   <path class="fil1 str2" d="M507.68 119.78c17.7,-30.78 56.99,-41.39 87.77,-23.69 30.77,17.69 41.39,56.99 23.68,87.77 -17.69,30.78 -56.99,41.38 -87.76,23.68 -30.78,-17.69 -41.39,-56.99 -23.69,-87.76z"/>
   <path class="fil1 str2" d="M372.81 199.88c11.41,-33.63 47.9,-51.63 81.53,-40.23 33.61,11.4 51.63,47.89 40.23,81.52 -11.41,33.62 -47.91,51.63 -81.52,40.23 -33.63,-11.41 -51.64,-47.9 -40.24,-81.52z"/>
   <path class="fil1 str2" d="M255.99 304.55c4.68,-35.2 36.99,-59.92 72.19,-55.24 35.19,4.68 59.93,37 55.25,72.2 -4.68,35.2 -37.01,59.92 -72.2,55.24 -35.2,-4.68 -59.92,-37 -55.24,-72.2z"/>
   <path class="fil1 str2" d="M161.63 429.87c-2.22,-35.44 24.7,-65.95 60.14,-68.17 35.43,-2.21 65.95,24.7 68.17,60.14 2.21,35.44 -24.71,65.96 -60.14,68.17 -35.44,2.22 -65.95,-24.69 -68.17,-60.14z"/>
   <path class="fil1 str2" d="M90.84 577.91c-9.35,-34.25 10.84,-69.59 45.09,-78.93 34.24,-9.34 69.58,10.84 78.93,45.09 9.34,34.25 -10.86,69.59 -45.1,78.93 -34.25,9.34 -69.58,-10.84 -78.92,-45.09z"/>
   <path class="fil1 str2" d="M52.26 731.68c-15.87,-31.77 -2.98,-70.36 28.79,-86.23 31.76,-15.86 70.36,-2.98 86.22,28.79 15.87,31.77 2.98,70.36 -28.78,86.23 -31.78,15.86 -70.36,2.98 -86.23,-28.79z"/>
   <g>
    <g>
     <rect class="fil1 str2" transform="matrix(-0.498464 0.051449 0.051449 0.498464 804.995 26.7156)" width="68.41" height="68.41" rx="11.38" ry="11.38"/>
     <rect class="fil1 str2" transform="matrix(-0.498464 0.051449 0.051449 0.498464 769.58 30.371)" width="68.41" height="68.41" rx="11.38" ry="11.38"/>
    </g>
    <g>
     <rect class="fil1 str2" transform="matrix(-0.461777 0.0476624 0.0476624 0.461777 811.192 131.345)" width="68.41" height="68.41" rx="11.38" ry="11.38"/>
     <rect class="fil1 str2" transform="matrix(-0.461777 0.0476624 0.0476624 0.461777 778.384 134.731)" width="68.41" height="68.41" rx="11.38" ry="11.38"/>
    </g>
   </g>
   <g>
    <g>
     <rect class="fil1 str2" transform="matrix(-0.478985 0.147265 0.147265 0.478985 645.967 51.1464)" width="68.41" height="68.41" rx="11.38" ry="11.38"/>
     <rect class="fil1 str2" transform="matrix(-0.478985 0.147265 0.147265 0.478985 611.935 61.6093)" width="68.41" height="68.41" rx="11.38" ry="11.38"/>
    </g>
    <g>
     <rect class="fil1 str2" transform="matrix(-0.443732 0.136426 0.136426 0.443732 672.364 152.58)" width="68.41" height="68.41" rx="11.38" ry="11.38"/>
     <rect class="fil1 str2" transform="matrix(-0.443732 0.136426 0.136426 0.443732 640.837 162.273)" width="68.41" height="68.41" rx="11.38" ry="11.38"/>
    </g>
   </g>
   <g>
    <g>
     <rect class="fil1 str2" transform="matrix(-0.441373 0.237284 0.237284 0.441373 495.032 105.84)" width="68.41" height="68.41" rx="11.38" ry="11.38"/>
     <rect class="fil1 str2" transform="matrix(-0.441373 0.237284 0.237284 0.441373 463.673 122.698)" width="68.41" height="68.41" rx="11.38" ry="11.38"/>
    </g>
    <g>
     <rect class="fil1 str2" transform="matrix(-0.408888 0.21982 0.21982 0.408888 540.583 200.236)" width="68.41" height="68.41" rx="11.38" ry="11.38"/>
     <rect class="fil1 str2" transform="matrix(-0.408888 0.21982 0.21982 0.408888 511.532 215.854)" width="68.41" height="68.41" rx="11.38" ry="11.38"/>
    </g>
   </g>
   <g>
    <g>
     <rect class="fil1 str2" transform="matrix(-0.387303 0.317978 0.317978 0.387303 358.119 188.322)" width="68.41" height="68.41" rx="11.38" ry="11.38"/>
     <rect class="fil1 str2" transform="matrix(-0.387303 0.317978 0.317978 0.387303 330.602 210.914)" width="68.41" height="68.41" rx="11.38" ry="11.38"/>
    </g>
    <g>
     <rect class="fil1 str2" transform="matrix(-0.358797 0.294575 0.294575 0.358797 421.026 272.157)" width="68.41" height="68.41" rx="11.38" ry="11.38"/>
     <rect class="fil1 str2" transform="matrix(-0.358797 0.294575 0.294575 0.358797 395.534 293.087)" width="68.41" height="68.41" rx="11.38" ry="11.38"/>
    </g>
   </g>
   <g>
    <g>
     <rect class="fil1 str2" transform="matrix(-0.318788 0.386637 0.386637 0.318788 239.846 295.499)" width="68.41" height="68.41" rx="11.38" ry="11.38"/>
     <rect class="fil1 str2" transform="matrix(-0.318788 0.386637 0.386637 0.318788 217.197 322.969)" width="68.41" height="68.41" rx="11.38" ry="11.38"/>
    </g>
    <g>
     <rect class="fil1 str2" transform="matrix(-0.295325 0.35818 0.35818 0.295325 317.725 365.645)" width="68.41" height="68.41" rx="11.38" ry="11.38"/>
     <rect class="fil1 str2" transform="matrix(-0.295325 0.35818 0.35818 0.295325 296.743 391.093)" width="68.41" height="68.41" rx="11.38" ry="11.38"/>
    </g>
   </g>
   <g>
    <g>
     <rect class="fil1 str2" transform="matrix(-0.23457 0.442821 0.442821 0.23457 140.832 429.474)" width="68.41" height="68.41" rx="11.38" ry="11.38"/>
     <rect class="fil1 str2" transform="matrix(-0.23457 0.442821 0.442821 0.23457 124.166 460.935)" width="68.41" height="68.41" rx="11.38" ry="11.38"/>
    </g>
    <g>
     <rect class="fil1 str2" transform="matrix(-0.217306 0.410229 0.410229 0.217306 231.221 482.534)" width="68.41" height="68.41" rx="11.38" ry="11.38"/>
     <rect class="fil1 str2" transform="matrix(-0.217306 0.410229 0.410229 0.217306 215.782 511.681)" width="68.41" height="68.41" rx="11.38" ry="11.38"/>
    </g>
   </g>
   <g>
    <g>
     <rect class="fil1 str2" transform="matrix(-0.141902 0.480601 0.480601 0.141902 71.3994 578.794)" width="68.41" height="68.41" rx="11.38" ry="11.38"/>
     <rect class="fil1 str2" transform="matrix(-0.141902 0.480601 0.480601 0.141902 61.3174 612.94)" width="68.41" height="68.41" rx="11.38" ry="11.38"/>
    </g>
    <g>
     <rect class="fil1 str2" transform="matrix(-0.131458 0.445229 0.445229 0.131458 170.529 612.836)" width="68.41" height="68.41" rx="11.38" ry="11.38"/>
     <rect class="fil1 str2" transform="matrix(-0.131458 0.445229 0.445229 0.131458 161.19 644.469)" width="68.41" height="68.41" rx="11.38" ry="11.38"/>
    </g>
   </g>
   <g>
    <g>
     <rect class="fil1 str2" transform="matrix(-0.0460166 0.498995 0.498995 0.0460166 33.5751 734.938)" width="68.41" height="68.41" rx="11.38" ry="11.38"/>
     <rect class="fil1 str2" transform="matrix(-0.0460166 0.498995 0.498995 0.0460166 30.3057 770.391)" width="68.41" height="68.41" rx="11.38" ry="11.38"/>
    </g>
    <g>
     <rect class="fil1 str2" transform="matrix(-0.0426298 0.462269 0.462269 0.0426298 137.425 749.112)" width="68.41" height="68.41" rx="11.38" ry="11.38"/>
     <rect class="fil1 str2" transform="matrix(-0.0426298 0.462269 0.462269 0.0426298 134.396 781.955)" width="68.41" height="68.41" rx="11.38" ry="11.38"/>
    </g>
   </g>
   <path class="fil1 str2" d="M1655.89 889.58c21.76,-28.06 16.65,-68.43 -11.41,-90.19 -28.06,-21.75 -68.43,-16.64 -90.19,11.42 -21.75,28.06 -16.63,68.43 11.42,90.18 28.06,21.76 68.43,16.65 90.18,-11.41z"/>
   <path class="fil1 str2" d="M1044.86 67.3c-23.32,-26.77 -63.92,-29.57 -90.69,-6.25 -26.77,23.32 -29.57,63.92 -6.26,90.69 23.33,26.78 63.93,29.57 90.7,6.26 26.78,-23.33 29.57,-63.92 6.25,-90.7z"/>
   <path class="fil1 str2" d="M1192.69 119.78c-17.69,-30.78 -56.99,-41.39 -87.77,-23.69 -30.77,17.69 -41.38,56.99 -23.68,87.77 17.7,30.78 57,41.38 87.77,23.68 30.77,-17.69 41.39,-56.99 23.68,-87.76z"/>
   <path class="fil1 str2" d="M1327.57 199.88c-11.41,-33.63 -47.9,-51.63 -81.52,-40.23 -33.62,11.4 -51.63,47.89 -40.23,81.52 11.41,33.62 47.9,51.63 81.52,40.23 33.62,-11.41 51.63,-47.9 40.23,-81.52z"/>
   <path class="fil1 str2" d="M1444.4 304.55c-4.69,-35.2 -37,-59.92 -72.2,-55.24 -35.19,4.68 -59.92,37 -55.24,72.2 4.68,35.2 37,59.92 72.19,55.24 35.2,-4.68 59.93,-37 55.25,-72.2z"/>
   <path class="fil1 str2" d="M1538.74 429.87c2.22,-35.44 -24.69,-65.95 -60.13,-68.17 -35.44,-2.21 -65.96,24.7 -68.17,60.14 -2.22,35.44 24.7,65.96 60.13,68.17 35.44,2.22 65.96,-24.69 68.17,-60.14z"/>
   <path class="fil1 str2" d="M1609.54 577.91c9.34,-34.25 -10.84,-69.59 -45.09,-78.93 -34.24,-9.34 -69.59,10.84 -78.93,45.09 -9.34,34.25 10.85,69.59 45.09,78.93 34.25,9.34 69.59,-10.84 78.93,-45.09z"/>
   <path class="fil1 str2" d="M1648.11 731.68c15.87,-31.77 2.99,-70.36 -28.78,-86.23 -31.77,-15.86 -70.36,-2.98 -86.23,28.79 -15.87,31.77 -2.97,70.36 28.79,86.23 31.77,15.86 70.36,2.98 86.22,-28.79z"/>
   <g>
    <g>
     <rect class="fil1 str2" transform="matrix(0.498464 0.051449 -0.051449 0.498464 895.385 26.7156)" width="68.41" height="68.41" rx="11.38" ry="11.38"/>
     <rect class="fil1 str2" transform="matrix(0.498464 0.051449 -0.051449 0.498464 930.8 30.371)" width="68.41" height="68.41" rx="11.38" ry="11.38"/>
    </g>
    <g>
     <rect class="fil1 str2" transform="matrix(0.461777 0.0476624 -0.0476624 0.461777 889.188 131.345)" width="68.41" height="68.41" rx="11.38" ry="11.38"/>
     <rect class="fil1 str2" transform="matrix(0.461777 0.0476624 -0.0476624 0.461777 921.997 134.731)" width="68.41" height="68.41" rx="11.38" ry="11.38"/>
    </g>
   </g>
   <g>
    <g>
     <rect class="fil1 str2" transform="matrix(0.478985 0.147265 -0.147265 0.478985 1054.41 51.1464)" width="68.41" height="68.41" rx="11.38" ry="11.38"/>
     <rect class="fil1 str2" transform="matrix(0.478985 0.147265 -0.147265 0.478985 1088.44 61.6093)" width="68.41" height="68.41" rx="11.38" ry="11.38"/>
    </g>
    <g>
     <rect class="fil1 str2" transform="matrix(0.443732 0.136426 -0.136426 0.443732 1028.02 152.58)" width="68.41" height="68.41" rx="11.38" ry="11.38"/>
     <rect class="fil1 str2" transform="matrix(0.443732 0.136426 -0.136426 0.443732 1059.54 162.273)" width="68.41" height="68.41" rx="11.38" ry="11.38"/>
    </g>
   </g>
   <g>
    <g>
     <rect class="fil1 str2" transform="matrix(0.441373 0.237284 -0.237284 0.441373 1205.35 105.84)" width="68.41" height="68.41" rx="11.38" ry="11.38"/>
     <rect class="fil1 str2" transform="matrix(0.441373 0.237284 -0.237284 0.441373 1236.71 122.698)" width="68.41" height="68.41" rx="11.38" ry="11.38"/>
    </g>
    <g>
     <rect class="fil1 str2" transform="matrix(0.408888 0.21982 -0.21982 0.408888 1159.8 200.236)" width="68.41" height="68.41" rx="11.38" ry="11.38"/>
     <rect class="fil1 str2" transform="matrix(0.408888 0.21982 -0.21982 0.408888 1188.85 215.854)" width="68.41" height="68.41" rx="11.38" ry="11.38"/>
    </g>
   </g>
   <g>
    <g>
     <rect class="fil1 str2" transform="matrix(0.387303 0.317978 -0.317978 0.387303 1342.26 188.322)" width="68.41" height="68.41" rx="11.38" ry="11.38"/>
     <rect class="fil1 str2" transform="matrix(0.387303 0.317978 -0.317978 0.387303 1369.78 210.914)" width="68.41" height="68.41" rx="11.38" ry="11.38"/>
    </g>
    <g>
     <rect class="fil1 str2" transform="matrix(0.358797 0.294575 -0.294575 0.358797 1279.35 272.157)" width="68.41" height="68.41" rx="11.38" ry="11.38"/>
     <rect class="fil1 str2" transform="matrix(0.358797 0.294575 -0.294575 0.358797 1304.85 293.087)" width="68.41" height="68.41" rx="11.38" ry="11.38"/>
    </g>
   </g>
   <g>
    <g>
     <rect class="fil1 str2" transform="matrix(0.318788 0.386637 -0.386637 0.318788 1460.53 295.499)" width="68.41" height="68.41" rx="11.38" ry="11.38"/>
     <rect class="fil1 str2" transform="matrix(0.318788 0.386637 -0.386637 0.318788 1483.18 322.969)" width="68.41" height="68.41" rx="11.38" ry="11.38"/>
    </g>
    <g>
     <rect class="fil1 str2" transform="matrix(0.295325 0.35818 -0.35818 0.295325 1382.65 365.645)" width="68.41" height="68.41" rx="11.38" ry="11.38"/>
     <rect class="fil1 str2" transform="matrix(0.295325 0.35818 -0.35818 0.295325 1403.64 391.093)" width="68.41" height="68.41" rx="11.38" ry="11.38"/>
    </g>
   </g>
   <g>
    <g>
     <rect class="fil1 str2" transform="matrix(0.23457 0.442821 -0.442821 0.23457 1559.55 429.474)" width="68.41" height="68.41" rx="11.38" ry="11.38"/>
     <rect class="fil1 str2" transform="matrix(0.23457 0.442821 -0.442821 0.23457 1576.21 460.935)" width="68.41" height="68.41" rx="11.38" ry="11.38"/>
    </g>
    <g>
     <rect class="fil1 str2" transform="matrix(0.217306 0.410229 -0.410229 0.217306 1469.16 482.534)" width="68.41" height="68.41" rx="11.38" ry="11.38"/>
     <rect class="fil1 str2" transform="matrix(0.217306 0.410229 -0.410229 0.217306 1484.6 511.681)" width="68.41" height="68.41" rx="11.38" ry="11.38"/>
    </g>
   </g>
   <g>
    <g>
     <rect class="fil1 str2" transform="matrix(0.141902 0.480601 -0.480601 0.141902 1628.98 578.794)" width="68.41" height="68.41" rx="11.38" ry="11.38"/>
     <rect class="fil1 str2" transform="matrix(0.141902 0.480601 -0.480601 0.141902 1639.06 612.94)" width="68.41" height="68.41" rx="11.38" ry="11.38"/>
    </g>
    <g>
     <rect class="fil1 str2" transform="matrix(0.131458 0.445229 -0.445229 0.131458 1529.85 612.836)" width="68.41" height="68.41" rx="11.38" ry="11.38"/>
     <rect class="fil1 str2" transform="matrix(0.131458 0.445229 -0.445229 0.131458 1539.19 644.469)" width="68.41" height="68.41" rx="11.38" ry="11.38"/>
    </g>
   </g>
   <g>
    <g>
     <rect class="fil1 str2" transform="matrix(0.0460166 0.498995 -0.498995 0.0460166 1666.81 734.938)" width="68.41" height="68.41" rx="11.38" ry="11.38"/>
     <rect class="fil1 str2" transform="matrix(0.0460166 0.498995 -0.498995 0.0460166 1670.07 770.391)" width="68.41" height="68.41" rx="11.38" ry="11.38"/>
    </g>
    <g>
     <rect class="fil1 str2" transform="matrix(0.0426298 0.462269 -0.462269 0.0426298 1562.96 749.112)" width="68.41" height="68.41" rx="11.38" ry="11.38"/>
     <rect class="fil1 str2" transform="matrix(0.0426298 0.462269 -0.462269 0.0426298 1565.98 781.955)" width="68.41" height="68.41" rx="11.38" ry="11.38"/>
    </g>
   </g>
   <path class="fil1 str2" d="M810.7 1655.94c28.07,21.76 68.43,16.65 90.19,-11.41 21.75,-28.06 16.64,-68.43 -11.41,-90.19 -28.07,-21.75 -68.44,-16.63 -90.19,11.42 -21.76,28.06 -16.64,68.43 11.41,90.18z"/>
   <path class="fil1 str2" d="M655.51 1633.07c23.33,26.78 63.92,29.57 90.7,6.26 26.77,-23.32 29.57,-63.92 6.25,-90.7 -23.32,-26.78 -63.92,-29.56 -90.69,-6.26 -26.78,23.33 -29.57,63.92 -6.26,90.7z"/>
   <path class="fil1 str2" d="M507.68 1580.59c17.7,30.78 56.99,41.39 87.77,23.68 30.77,-17.69 41.39,-56.99 23.68,-87.76 -17.69,-30.78 -56.99,-41.39 -87.76,-23.69 -30.78,17.7 -41.39,56.99 -23.69,87.77z"/>
   <path class="fil1 str2" d="M372.81 1500.5c11.41,33.62 47.9,51.63 81.53,40.23 33.61,-11.41 51.63,-47.9 40.23,-81.52 -11.41,-33.63 -47.91,-51.63 -81.52,-40.23 -33.63,11.41 -51.64,47.89 -40.24,81.52z"/>
   <path class="fil1 str2" d="M255.99 1395.81c4.68,35.2 36.99,59.92 72.19,55.24 35.19,-4.68 59.93,-36.99 55.25,-72.19 -4.68,-35.2 -37.01,-59.93 -72.2,-55.25 -35.2,4.68 -59.92,37 -55.24,72.2z"/>
   <path class="fil1 str2" d="M161.63 1270.49c-2.22,35.44 24.7,65.95 60.14,68.17 35.43,2.22 65.95,-24.7 68.17,-60.14 2.21,-35.44 -24.71,-65.95 -60.14,-68.17 -35.44,-2.21 -65.95,24.7 -68.17,60.14z"/>
   <path class="fil1 str2" d="M90.84 1122.47c-9.35,34.25 10.84,69.58 45.09,78.93 34.24,9.34 69.58,-10.85 78.93,-45.1 9.34,-34.25 -10.86,-69.59 -45.1,-78.93 -34.25,-9.34 -69.58,10.85 -78.92,45.1z"/>
   <path class="fil1 str2" d="M52.26 968.7c-15.87,31.77 -2.98,70.36 28.79,86.22 31.76,15.86 70.36,2.98 86.22,-28.79 15.87,-31.77 2.98,-70.36 -28.78,-86.22 -31.78,-15.87 -70.36,-2.98 -86.23,28.79z"/>
   <g>
    <g>
     <rect class="fil1 str2" transform="matrix(-0.498464 -0.051449 0.051449 -0.498464 804.995 1673.66)" width="68.41" height="68.41" rx="11.38" ry="11.38"/>
     <rect class="fil1 str2" transform="matrix(-0.498464 -0.051449 0.051449 -0.498464 769.58 1670)" width="68.41" height="68.41" rx="11.38" ry="11.38"/>
    </g>
    <g>
     <rect class="fil1 str2" transform="matrix(-0.461777 -0.0476624 0.0476624 -0.461777 811.192 1569.03)" width="68.41" height="68.41" rx="11.38" ry="11.38"/>
     <rect class="fil1 str2" transform="matrix(-0.461777 -0.0476624 0.0476624 -0.461777 778.384 1565.64)" width="68.41" height="68.41" rx="11.38" ry="11.38"/>
    </g>
   </g>
   <g>
    <g>
     <rect class="fil1 str2" transform="matrix(-0.478985 -0.147265 0.147265 -0.478985 645.967 1649.22)" width="68.41" height="68.41" rx="11.38" ry="11.38"/>
     <rect class="fil1 str2" transform="matrix(-0.478985 -0.147265 0.147265 -0.478985 611.935 1638.76)" width="68.41" height="68.41" rx="11.38" ry="11.38"/>
    </g>
    <g>
     <rect class="fil1 str2" transform="matrix(-0.443732 -0.136426 0.136426 -0.443732 672.364 1547.79)" width="68.41" height="68.41" rx="11.38" ry="11.38"/>
     <rect class="fil1 str2" transform="matrix(-0.443732 -0.136426 0.136426 -0.443732 640.837 1538.1)" width="68.41" height="68.41" rx="11.38" ry="11.38"/>
    </g>
   </g>
   <g>
    <g>
     <rect class="fil1 str2" transform="matrix(-0.441373 -0.237284 0.237284 -0.441373 495.032 1594.53)" width="68.41" height="68.41" rx="11.38" ry="11.38"/>
     <rect class="fil1 str2" transform="matrix(-0.441373 -0.237284 0.237284 -0.441373 463.673 1577.67)" width="68.41" height="68.41" rx="11.38" ry="11.38"/>
    </g>
    <g>
     <rect class="fil1 str2" transform="matrix(-0.408888 -0.21982 0.21982 -0.408888 540.583 1500.13)" width="68.41" height="68.41" rx="11.38" ry="11.38"/>
     <rect class="fil1 str2" transform="matrix(-0.408888 -0.21982 0.21982 -0.408888 511.532 1484.52)" width="68.41" height="68.41" rx="11.38" ry="11.38"/>
    </g>
   </g>
   <g>
    <g>
     <rect class="fil1 str2" transform="matrix(-0.387303 -0.317978 0.317978 -0.387303 358.119 1512.05)" width="68.41" height="68.41" rx="11.38" ry="11.38"/>
     <rect class="fil1 str2" transform="matrix(-0.387303 -0.317978 0.317978 -0.387303 330.602 1489.46)" width="68.41" height="68.41" rx="11.38" ry="11.38"/>
    </g>
    <g>
     <rect class="fil1 str2" transform="matrix(-0.358797 -0.294575 0.294575 -0.358797 421.026 1428.21)" width="68.41" height="68.41" rx="11.38" ry="11.38"/>
     <rect class="fil1 str2" transform="matrix(-0.358797 -0.294575 0.294575 -0.358797 395.534 1407.28)" width="68.41" height="68.41" rx="11.38" ry="11.38"/>
    </g>
   </g>
   <g>
    <g>
     <rect class="fil1 str2" transform="matrix(-0.318788 -0.386637 0.386637 -0.318788 239.846 1404.87)" width="68.41" height="68.41" rx="11.38" ry="11.38"/>
     <rect class="fil1 str2" transform="matrix(-0.318788 -0.386637 0.386637 -0.318788 217.197 1377.4)" width="68.41" height="68.41" rx="11.38" ry="11.38"/>
    </g>
    <g>
     <rect class="fil1 str2" transform="matrix(-0.295325 -0.35818 0.35818 -0.295325 317.725 1334.73)" width="68.41" height="68.41" rx="11.38" ry="11.38"/>
     <rect class="fil1 str2" transform="matrix(-0.295325 -0.35818 0.35818 -0.295325 296.743 1309.28)" width="68.41" height="68.41" rx="11.38" ry="11.38"/>
    </g>
   </g>
   <g>
    <g>
     <rect class="fil1 str2" transform="matrix(-0.23457 -0.442821 0.442821 -0.23457 140.832 1270.9)" width="68.41" height="68.41" rx="11.38" ry="11.38"/>
     <rect class="fil1 str2" transform="matrix(-0.23457 -0.442821 0.442821 -0.23457 124.166 1239.44)" width="68.41" height="68.41" rx="11.38" ry="11.38"/>
    </g>
    <g>
     <rect class="fil1 str2" transform="matrix(-0.217306 -0.410229 0.410229 -0.217306 231.221 1217.84)" width="68.41" height="68.41" rx="11.38" ry="11.38"/>
     <rect class="fil1 str2" transform="matrix(-0.217306 -0.410229 0.410229 -0.217306 215.782 1188.69)" width="68.41" height="68.41" rx="11.38" ry="11.38"/>
    </g>
   </g>
   <g>
    <g>
     <rect class="fil1 str2" transform="matrix(-0.141902 -0.480601 0.480601 -0.141902 71.3994 1121.58)" width="68.41" height="68.41" rx="11.38" ry="11.38"/>
     <rect class="fil1 str2" transform="matrix(-0.141902 -0.480601 0.480601 -0.141902 61.3174 1087.43)" width="68.41" height="68.41" rx="11.38" ry="11.38"/>
    </g>
    <g>
     <rect class="fil1 str2" transform="matrix(-0.131458 -0.445229 0.445229 -0.131458 170.529 1087.53)" width="68.41" height="68.41" rx="11.38" ry="11.38"/>
     <rect class="fil1 str2" transform="matrix(-0.131458 -0.445229 0.445229 -0.131458 161.19 1055.9)" width="68.41" height="68.41" rx="11.38" ry="11.38"/>
    </g>
   </g>
   <g>
    <g>
     <rect class="fil1 str2" transform="matrix(-0.0460166 -0.498995 0.498995 -0.0460166 33.5751 965.433)" width="68.41" height="68.41" rx="11.38" ry="11.38"/>
     <rect class="fil1 str2" transform="matrix(-0.0460166 -0.498995 0.498995 -0.0460166 30.3057 929.98)" width="68.41" height="68.41" rx="11.38" ry="11.38"/>
    </g>
    <g>
     <rect class="fil1 str2" transform="matrix(-0.0426298 -0.462269 0.462269 -0.0426298 137.425 951.259)" width="68.41" height="68.41" rx="11.38" ry="11.38"/>
     <rect class="fil1 str2" transform="matrix(-0.0426298 -0.462269 0.462269 -0.0426298 134.396 918.416)" width="68.41" height="68.41" rx="11.38" ry="11.38"/>
    </g>
   </g>
   <path class="fil1 str2" d="M1044.86 1633.07c-23.32,26.78 -63.92,29.57 -90.69,6.26 -26.77,-23.32 -29.57,-63.92 -6.26,-90.7 23.33,-26.78 63.93,-29.56 90.7,-6.26 26.78,23.33 29.57,63.92 6.25,90.7z"/>
   <path class="fil1 str2" d="M1192.69 1580.59c-17.69,30.78 -56.99,41.39 -87.77,23.68 -30.77,-17.69 -41.38,-56.99 -23.68,-87.76 17.7,-30.78 57,-41.39 87.77,-23.69 30.77,17.7 41.39,56.99 23.68,87.77z"/>
   <path class="fil1 str2" d="M1327.57 1500.5c-11.41,33.62 -47.9,51.63 -81.52,40.23 -33.62,-11.41 -51.63,-47.9 -40.23,-81.52 11.41,-33.63 47.9,-51.63 81.52,-40.23 33.62,11.41 51.63,47.89 40.23,81.52z"/>
   <path class="fil1 str2" d="M1444.4 1395.81c-4.69,35.2 -37,59.92 -72.2,55.24 -35.19,-4.68 -59.92,-36.99 -55.24,-72.19 4.68,-35.2 37,-59.93 72.19,-55.25 35.2,4.68 59.93,37 55.25,72.2z"/>
   <path class="fil1 str2" d="M1538.74 1270.49c2.22,35.44 -24.69,65.95 -60.13,68.17 -35.44,2.22 -65.96,-24.7 -68.17,-60.14 -2.22,-35.44 24.7,-65.95 60.13,-68.17 35.44,-2.21 65.96,24.7 68.17,60.14z"/>
   <path class="fil1 str2" d="M1609.54 1122.47c9.34,34.25 -10.84,69.58 -45.09,78.93 -34.24,9.34 -69.59,-10.85 -78.93,-45.1 -9.34,-34.25 10.85,-69.59 45.09,-78.93 34.25,-9.34 69.59,10.85 78.93,45.1z"/>
   <path class="fil1 str2" d="M1648.11 968.7c15.87,31.77 2.99,70.36 -28.78,86.22 -31.77,15.86 -70.36,2.98 -86.23,-28.79 -15.87,-31.77 -2.97,-70.36 28.79,-86.22 31.77,-15.87 70.36,-2.98 86.22,28.79z"/>
   <g>
    <g>
     <rect class="fil1 str2" transform="matrix(0.498464 -0.051449 -0.051449 -0.498464 895.385 1673.66)" width="68.41" height="68.41" rx="11.38" ry="11.38"/>
     <rect class="fil1 str2" transform="matrix(0.498464 -0.051449 -0.051449 -0.498464 930.8 1670)" width="68.41" height="68.41" rx="11.38" ry="11.38"/>
    </g>
    <g>
     <rect class="fil1 str2" transform="matrix(0.461777 -0.0476624 -0.0476624 -0.461777 889.188 1569.03)" width="68.41" height="68.41" rx="11.38" ry="11.38"/>
     <rect class="fil1 str2" transform="matrix(0.461777 -0.0476624 -0.0476624 -0.461777 921.997 1565.64)" width="68.41" height="68.41" rx="11.38" ry="11.38"/>
    </g>
   </g>
   <g>
    <g>
     <rect class="fil1 str2" transform="matrix(0.478985 -0.147265 -0.147265 -0.478985 1054.41 1649.22)" width="68.41" height="68.41" rx="11.38" ry="11.38"/>
     <rect class="fil1 str2" transform="matrix(0.478985 -0.147265 -0.147265 -0.478985 1088.44 1638.76)" width="68.41" height="68.41" rx="11.38" ry="11.38"/>
    </g>
    <g>
     <rect class="fil1 str2" transform="matrix(0.443732 -0.136426 -0.136426 -0.443732 1028.02 1547.79)" width="68.41" height="68.41" rx="11.38" ry="11.38"/>
     <rect class="fil1 str2" transform="matrix(0.443732 -0.136426 -0.136426 -0.443732 1059.54 1538.1)" width="68.41" height="68.41" rx="11.38" ry="11.38"/>
    </g>
   </g>
   <g>
    <g>
     <rect class="fil1 str2" transform="matrix(0.441373 -0.237284 -0.237284 -0.441373 1205.35 1594.53)" width="68.41" height="68.41" rx="11.38" ry="11.38"/>
     <rect class="fil1 str2" transform="matrix(0.441373 -0.237284 -0.237284 -0.441373 1236.71 1577.67)" width="68.41" height="68.41" rx="11.38" ry="11.38"/>
    </g>
    <g>
     <rect class="fil1 str2" transform="matrix(0.408888 -0.21982 -0.21982 -0.408888 1159.8 1500.13)" width="68.41" height="68.41" rx="11.38" ry="11.38"/>
     <rect class="fil1 str2" transform="matrix(0.408888 -0.21982 -0.21982 -0.408888 1188.85 1484.52)" width="68.41" height="68.41" rx="11.38" ry="11.38"/>
    </g>
   </g>
   <g>
    <g>
     <rect class="fil1 str2" transform="matrix(0.387303 -0.317978 -0.317978 -0.387303 1342.26 1512.05)" width="68.41" height="68.41" rx="11.38" ry="11.38"/>
     <rect class="fil1 str2" transform="matrix(0.387303 -0.317978 -0.317978 -0.387303 1369.78 1489.46)" width="68.41" height="68.41" rx="11.38" ry="11.38"/>
    </g>
    <g>
     <rect class="fil1 str2" transform="matrix(0.358797 -0.294575 -0.294575 -0.358797 1279.35 1428.21)" width="68.41" height="68.41" rx="11.38" ry="11.38"/>
     <rect class="fil1 str2" transform="matrix(0.358797 -0.294575 -0.294575 -0.358797 1304.85 1407.28)" width="68.41" height="68.41" rx="11.38" ry="11.38"/>
    </g>
   </g>
   <g>
    <g>
     <rect class="fil1 str2" transform="matrix(0.318788 -0.386637 -0.386637 -0.318788 1460.53 1404.87)" width="68.41" height="68.41" rx="11.38" ry="11.38"/>
     <rect class="fil1 str2" transform="matrix(0.318788 -0.386637 -0.386637 -0.318788 1483.18 1377.4)" width="68.41" height="68.41" rx="11.38" ry="11.38"/>
    </g>
    <g>
     <rect class="fil1 str2" transform="matrix(0.295325 -0.35818 -0.35818 -0.295325 1382.65 1334.73)" width="68.41" height="68.41" rx="11.38" ry="11.38"/>
     <rect class="fil1 str2" transform="matrix(0.295325 -0.35818 -0.35818 -0.295325 1403.64 1309.28)" width="68.41" height="68.41" rx="11.38" ry="11.38"/>
    </g>
   </g>
   <g>
    <g>
     <rect class="fil1 str2" transform="matrix(0.23457 -0.442821 -0.442821 -0.23457 1559.55 1270.9)" width="68.41" height="68.41" rx="11.38" ry="11.38"/>
     <rect class="fil1 str2" transform="matrix(0.23457 -0.442821 -0.442821 -0.23457 1576.21 1239.44)" width="68.41" height="68.41" rx="11.38" ry="11.38"/>
    </g>
    <g>
     <rect class="fil1 str2" transform="matrix(0.217306 -0.410229 -0.410229 -0.217306 1469.16 1217.84)" width="68.41" height="68.41" rx="11.38" ry="11.38"/>
     <rect class="fil1 str2" transform="matrix(0.217306 -0.410229 -0.410229 -0.217306 1484.6 1188.69)" width="68.41" height="68.41" rx="11.38" ry="11.38"/>
    </g>
   </g>
   <g>
    <g>
     <rect class="fil1 str2" transform="matrix(0.141902 -0.480601 -0.480601 -0.141902 1628.98 1121.58)" width="68.41" height="68.41" rx="11.38" ry="11.38"/>
     <rect class="fil1 str2" transform="matrix(0.141902 -0.480601 -0.480601 -0.141902 1639.06 1087.43)" width="68.41" height="68.41" rx="11.38" ry="11.38"/>
    </g>
    <g>
     <rect class="fil1 str2" transform="matrix(0.131458 -0.445229 -0.445229 -0.131458 1529.85 1087.53)" width="68.41" height="68.41" rx="11.38" ry="11.38"/>
     <rect class="fil1 str2" transform="matrix(0.131458 -0.445229 -0.445229 -0.131458 1539.19 1055.9)" width="68.41" height="68.41" rx="11.38" ry="11.38"/>
    </g>
   </g>
   <g>
    <g>
     <rect class="fil1 str2" transform="matrix(0.0460166 -0.498995 -0.498995 -0.0460166 1666.81 965.433)" width="68.41" height="68.41" rx="11.38" ry="11.38"/>
     <rect class="fil1 str2" transform="matrix(0.0460166 -0.498995 -0.498995 -0.0460166 1670.07 929.98)" width="68.41" height="68.41" rx="11.38" ry="11.38"/>
    </g>
    <g>
     <rect class="fil1 str2" transform="matrix(0.0426298 -0.462269 -0.462269 -0.0426298 1562.96 951.259)" width="68.41" height="68.41" rx="11.38" ry="11.38"/>
     <rect class="fil1 str2" transform="matrix(0.0426298 -0.462269 -0.462269 -0.0426298 1565.98 918.416)" width="68.41" height="68.41" rx="11.38" ry="11.38"/>
    </g>
   </g>
   <path class="fil1 str2" d="M408.43 464.13c4.46,-35.23 36.63,-60.16 71.85,-55.7 35.22,4.45 60.16,36.62 55.7,71.84 -4.46,35.23 -36.64,60.16 -71.84,55.7 -35.23,-4.45 -60.16,-36.62 -55.71,-71.84z"/>
   <path class="fil1 str2" d="M1236.04 408.42c35.23,4.46 60.16,36.62 55.71,71.84 -4.46,35.22 -36.63,60.16 -71.85,55.7 -35.23,-4.45 -60.15,-36.63 -55.7,-71.84 4.46,-35.23 36.63,-60.16 71.84,-55.7z"/>
   <path class="fil1 str2" d="M1291.75 1236.03c-4.45,35.23 -36.62,60.16 -71.84,55.7 -35.22,-4.46 -60.16,-36.62 -55.7,-71.84 4.46,-35.23 36.63,-60.16 71.84,-55.7 35.23,4.45 60.16,36.62 55.7,71.84z"/>
   <path class="fil1 str2" d="M464.15 1291.74c-35.23,-4.46 -60.16,-36.62 -55.71,-71.84 4.46,-35.22 36.63,-60.16 71.85,-55.7 35.23,4.45 60.15,36.63 55.7,71.84 -4.46,35.23 -36.63,60.16 -71.84,55.7z"/>
  </g>
 </g>
</svg>
