<?xml version="1.0" encoding="UTF-8"?>
<!DOCTYPE svg PUBLIC "-//W3C//DTD SVG 1.1//EN" "http://www.w3.org/Graphics/SVG/1.1/DTD/svg11.dtd">
<!-- Creator: CorelDRAW 2021 (64-Bit) -->
<svg xmlns="http://www.w3.org/2000/svg" xml:space="preserve" width="150.2mm" height="150.2mm" version="1.1" style="shape-rendering:geometricPrecision; text-rendering:geometricPrecision; image-rendering:optimizeQuality; fill-rule:evenodd; clip-rule:evenodd"
viewBox="0 0 15003.5 15003.5"
 xmlns:xlink="http://www.w3.org/1999/xlink"
 xmlns:xodm="http://www.corel.com/coreldraw/odm/2003">
 <defs>
  <style type="text/css">
   <![CDATA[
    .str1 {stroke:#2B2A29;stroke-width:70.48;stroke-miterlimit:22.9256}
    .str2 {stroke:#FEFEFE;stroke-width:19.98;stroke-miterlimit:22.9256}
    .str0 {stroke:#434242;stroke-width:70.48;stroke-linecap:square;stroke-miterlimit:22.9256}
    .fil0 {fill:none}
   ]]>
  </style>
 </defs>
 <g id="Layer_x0020_1">
  <metadata id="CorelCorpID_0Corel-Layer"/>
  <g id="_2862757674496">
   <path class="fil0 str0" d="M8266.79 9463.04l-20.55 41.25c61.06,-23.08 29.93,-2.97 20.55,-41.25"/>
   <path class="fil0 str0" d="M8287.49 9442.34c87.43,29.19 151.62,-69.41 0,0"/>
   <path class="fil0 str0" d="M8411.42 9339.12c-50.79,73.73 -59.58,16.98 0,61.97 63.45,-58.99 63.45,-2.98 0,-61.97"/>
   <path class="fil0 str0" d="M12930.63 4202.86c9.63,-42.48 17.06,-87.4 20.06,-125.82 33.6,-54.82 41.35,-70.59 84.39,-123.91"/>
   <path class="fil0 str0" d="M14700.24 4015.07c-209.51,137.32 -484.26,225.05 -737.71,185.89l-295.12 -41.25c-90.93,-28.9 -111.45,-20.7 -210.74,-20.7 -200.55,-67.94 -235.2,-88.03 -421.61,-185.89 20.07,-74.18 20.07,-59.13 63.24,-123.78 81.19,-77.89 129.55,-100.82 210.74,-165.33"/>
   <line class="fil0 str0" x1="13351.17" y1="3643.46" x2="13309.05" y2= "3664.01" />
   <line class="fil0 str0" x1="13393.44" y1="3622.76" x2="13351.17" y2= "3643.46" />
   <path class="fil0 str0" d="M13456.68 3602.06c-43.78,26.65 7.44,20.7 -63.24,20.7"/>
   <path class="fil0 str0" d="M13519.93 3581.5c-43.78,26.66 7.46,20.56 -63.25,20.56"/>
   <path class="fil0 str0" d="M13646.28 3560.8c-72.07,27.4 -39.83,20.7 -126.35,20.7"/>
   <path class="fil0 str0" d="M10125.31 12002.84c116.63,-71.35 144.17,-160.55 227.14,-247.7 65.23,-49.01 47.06,-31.86 82.66,-103.37 81.32,-56.15 55.71,-11.91 82.53,-103.22 39.02,-25.02 45.27,-31.74 82.65,-61.96 49.31,-93.54 162.65,-217.46 247.7,-309.65l598.9 -743.38c104.27,-106.65 270.03,-313.82 351.05,-433.72 300.58,-307.28 648.81,-807.27 927.04,-1156.4 518.32,-650.13 1234.29,-1611.73 1654.17,-2312.66 111.56,-186.33 209.42,-378.62 289.09,-578.19 85.2,-213.45 99.95,-377.14 165.19,-578.2 10.17,-68.51 37.79,-679.59 -24.12,-1138.42 -12.73,-51.47 -46.3,-143.01 -109.07,-220.9 -25.24,-68.81 -1.37,-85.36 -126.34,-185.74l-210.89 -144.62c-83.47,-17.28 -247.07,-74.62 -337.23,-103.22l-379.5 -20.7"/>
   <path class="fil0 str0" d="M4322.76 2442.12c-105.45,136.14 -811.74,349.58 -908.56,495.54 -144.32,41.54 -375.79,334.52 -495.53,454.27 -110.07,162.95 -289.39,310.11 -433.72,454.43 -55.25,81.77 -47.07,95.77 -144.47,123.77l-44.09 102.03c-75.53,85.94 -107.39,171.28 -183.05,228.48 -54.82,169.05 -20.72,938.94 -20.72,1176.96 -25.16,77.44 -34.84,126.45 -67.01,206.58 -47.98,119.76 -85.51,143.44 5.05,206.43 31.58,-109.77 631.83,-932.23 743.38,-1053.18 38.72,-91.3 233.09,-350.61 309.81,-433.57 114.82,-271.82 893.81,-1172.04 908.55,-1362.84l61.96 0c57.19,-91.44 774.06,-654.31 908.55,-764.08 102.04,-99.93 161.15,-91.75 165.18,-206.43 180.97,-17.87 3.29,-49.9 206.44,-82.66l413.03 -41.25c76.55,-24.88 59.12,-20.71 144.61,-20.71l1404.11 -185.89c747.1,-118.11 429.26,-64.2 1424.79,123.92 353.44,66.73 1142.39,303.1 1445.51,309.81 52.41,52.42 46.31,47.65 103.21,82.51 147.16,58.99 349.43,221.33 474.99,247.85 231.01,213.13 1054.37,580.72 1177.11,743.38 258.13,157.88 798.93,888.59 1011.77,949.8 -2.09,94.44 -31.29,142.99 -20.7,206.59 84.76,244.57 177.54,378.02 309.81,598.75l61.95 351.06c-79.09,380.88 -510.94,1144.21 -747.83,1234.92 89.07,261.54 144.9,823.86 148.93,1036.62 31.88,98.01 20.7,179.48 20.7,289.11 -24.11,152.96 -56,384.13 -103.22,536.79 -118.85,205.99 -194.96,426.28 -335.42,660.85 -423.14,706.59 -1138.08,1610.69 -1667.58,2271.4 -119.75,151.18 -371.17,449.81 -474.98,619.46l0 20.7c-73.87,44.54 -38.13,8.79 -82.66,82.67 -98.61,167.27 -391.28,484.97 -412.88,516.24l-227.14 289.1c-56,82.65 -78.04,111.85 -165.33,165.18l-20.55 -20.71"/>
   <path class="fil0 str0" d="M2340.47 3970.14c-54.51,-140.16 -20.71,-358.07 -20.71,-516.23 35.3,-109.03 20.71,-249.05 20.71,-371.61"/>
   <path class="fil0 str0" d="M4382.89 6549.45c172.7,-390.13 2001.7,-267.91 1874.95,188.84 74.3,86.91 13.87,596.22 67.92,763.02l20.71 330.36c45.42,287.31 83.4,229.08 123.91,289.1 83.12,196.45 445.49,690.94 585.06,929.26 98.6,168.16 423.88,838.26 529.94,908.56l0 82.66c101.89,170.09 162.95,356.27 289.1,516.24l61.96 743.38c52.28,161.29 20.71,718.65 20.71,929.1 -38.14,240.85 -26.51,732.51 -41.41,826.05 -22.77,144.33 -36.34,450.55 -61.8,516.24l82.51 0c99.64,-59.58 483.18,-203.91 598.9,-206.44 173.37,-137.03 542,-162.94 701.98,-289.09"/>
   <path class="fil0 str0" d="M4054.36 3041.03c120.65,123.33 775.55,982.29 805.33,1094.45 -53.43,137.39 -673.57,2479.94 -739,2897.48"/>
   <path class="fil0 str0" d="M7853.92 13572.26c-132.57,51.38 -267.66,-18.32 -413.03,-41.25l-227.14 -20.71 -722.83 -103.22"/>
   <path class="fil0 str0" d="M8704.76 1847.46c20.07,-156.61 92.71,-234.09 223.17,-271.02 84.44,90.7 384.16,84.46 517.89,104.71 98.76,28.6 201.52,33.36 300.11,61.96l600.36 20.71c68.62,-19.96 131.75,-36.05 207.84,-41.4 -62.45,-193.94 -517.6,-281.66 -715.78,-309.66l-392.53 0"/>
   <path class="fil0 str0" d="M9445.82 1412.76c-84.78,29.35 -64.13,20.55 -161.54,20.55"/>
   <path class="fil0 str0" d="M9284.28 1433.3c-47.97,26.67 8.16,20.71 -69.28,20.71"/>
   <path class="fil0 str0" d="M9214.99 1454.01c-47.96,26.66 8.16,20.71 -69.27,20.71"/>
   <path class="fil0 str0" d="M9145.72 1474.72c-47.97,26.66 -24.93,19.04 -102.39,19.04"/>
   <line class="fil0 str0" x1="9043.33" y1="1493.76" x2="8997.21" y2= "1514.47" />
   <line class="fil0 str0" x1="8997.21" y1="1514.47" x2="8950.91" y2= "1535.18" />
   <line class="fil0 str0" x1="8942.96" y1="1536.17" x2="8927.93" y2= "1576.44" />
   <path class="fil0 str0" d="M10744.77 2504.1c0,-219.24 29.66,-615.44 -190.64,-781.68"/>
   <g>
    <path class="fil0 str0" d="M2333.58 3068.08c2.3,-285.83 -9.3,-654.8 239.77,-864.12 57.2,-199 456.11,-251.66 624.86,-306.33l516.24 0c125.11,40.53 253.34,49.01 330.36,165.19 130.31,37.47 196.16,219.7 234.06,389.98"/>
    <path class="fil0 str0" d="M2586.68 2207.28l239.77 61.96c252.76,42.74 392.92,63 660.87,20.71 133.45,-21.16 451.44,-131.53 557.5,-227.14"/>
   </g>
   <line class="fil0 str0" x1="5128.09" y1="2070.51" x2="5086.84" y2= "2091.06" />
   <line class="fil0 str0" x1="5086.84" y1="2091.06" x2="5045.58" y2= "2111.78" />
   <line class="fil0 str0" x1="5045.58" y1="2111.78" x2="5004.18" y2= "2132.32" />
   <line class="fil0 str0" x1="5004.18" y1="2132.32" x2="4962.91" y2= "2153.03" />
   <line class="fil0 str0" x1="4962.91" y1="2153.03" x2="4921.66" y2= "2173.74" />
   <path class="fil0 str0" d="M4921.66 2173.74c-42.89,26.65 7.3,20.55 -61.96,20.55"/>
   <line class="fil0 str0" x1="4859.69" y1="2194.29" x2="4818.3" y2= "2214.99" />
   <line class="fil0 str0" x1="4818.3" y1="2214.99" x2="4777.05" y2= "2235.69" />
   <line class="fil0 str0" x1="4777.05" y1="2235.69" x2="4735.78" y2= "2256.25" />
   <line class="fil0 str0" x1="4735.78" y1="2256.25" x2="4694.52" y2= "2276.95" />
   <path class="fil0 str0" d="M11921.88 3247.48c-145.38,56.44 -373.26,20.69 -536.95,20.69 -125.56,40.67 -293.42,20.57 -433.57,20.57 -12.07,-120.96 -546.48,-825.9 -660.86,-949.82 -9.24,-44.4 -5.06,-35.6 -20.71,-82.67"/>
   <line class="fil0 str0" x1="4694.52" y1="2276.95" x2="4653.11" y2= "2297.66" />
   <line class="fil0 str0" x1="4653.11" y1="2297.66" x2="4611.86" y2= "2318.21" />
   <line class="fil0 str0" x1="4611.86" y1="2318.21" x2="4570.59" y2= "2338.92" />
   <line class="fil0 str0" x1="4570.59" y1="2338.92" x2="4529.34" y2= "2359.46" />
   <line class="fil0 str0" x1="4529.34" y1="2359.46" x2="4487.93" y2= "2380.17" />
   <line class="fil0 str0" x1="4487.93" y1="2380.17" x2="4446.68" y2= "2400.87" />
   <line class="fil0 str0" x1="4446.68" y1="2400.87" x2="4405.42" y2= "2421.43" />
   <path class="fil0 str0" d="M4405.42 2421.43c-47.67,22.92 -8.94,20.7 -82.67,20.7"/>
   <path class="fil0 str0" d="M3992.4 3041.03c-111.12,-43.19 -424.33,-40.21 -578.2,-103.36"/>
   <path class="fil0 str0" d="M2089.91 4406.34c28.74,-199.08 -190.25,-347.62 -252.04,-384.07 -187.64,-310.95 -596.07,-289.1 -908.7,-289.1"/>
   <path class="fil0 str0" d="M929.17 3733.17c-62.41,24.72 -20.7,20.57 -103.23,20.57"/>
   <path class="fil0 str0" d="M825.94 3753.74c-42.74,26.65 7.3,20.69 -61.95,20.69"/>
   <path class="fil0 str0" d="M11730.73 6192.38c-74.94,-186.93 -496.07,-2387.86 -593.64,-2511.33 -21.6,-102.48 -112.91,-290.75 -185.74,-371.63l0 -20.69"/>
   <path class="fil0 str0" d="M6325.75 7501.31c201.52,0 514.45,61.96 681.41,61.96l722.83 -20.71c203.31,-32.17 884.28,-40.67 887.85,-41.25 125.56,-40.81 293.42,-20.71 433.73,-20.71 76.4,-24.72 58.98,-20.55 144.47,-20.55l20.71 0c130.33,-2.99 1146.12,-238.91 1300.88,-289.1 81.16,1.64 50.92,-2.99 123.9,20.55 -4.93,-65.71 -29.56,-372.02 84.11,-593.87"/>
   <line class="fil0 str0" x1="763.99" y1="3774.43" x2="722.74" y2= "3795.14" />
   <line class="fil0 str0" x1="10951.35" y1="3309.42" x2="10909.96" y2= "3330.13" />
   <line class="fil0 str0" x1="722.74" y1="3795.14" x2="681.47" y2= "3815.69" />
   <path class="fil0 str0" d="M4859.69 4135.47c385.78,72.83 769.15,162.5 1156.4,240.55 323.66,65.39 854.8,211.2 1156.26,234.28l2209.59 -289.1c132.4,-20.85 202.7,-41.25 351.05,-41.25 194.68,-179.77 685.44,-540.66 908.55,-722.68 89.67,-87.88 178.29,-144.03 268.41,-227.14"/>
   <path class="fil0 str0" d="M681.47 3815.69c-42.89,26.67 7.3,20.7 -61.96,20.7"/>
   <line class="fil0 str0" x1="619.51" y1="3836.39" x2="578.25" y2= "3856.95" />
   <path class="fil0 str0" d="M1837.87 4022.28c-49.74,79.38 -16.38,57.49 -103.37,82.53 -76.56,60.46 -126.89,76.25 -206.43,123.9l-557.5 123.92 -495.69 0c-85.34,-34.25 -151.77,-47.96 -227.13,-103.22 13.11,-61.81 18.77,-67.47 41.4,-123.92l82.52 -82.66c57.05,-77.89 127.2,-121.39 206.58,-185.89"/>
   <path class="fil0 str0" d="M9196.06 7460.05c0,-188.87 449.37,-2660.59 516.23,-3056.19 1.79,-81.17 -2.98,-50.93 20.71,-123.92"/>
   <path class="fil0 str0" d="M7007.16 7563.27l41.41 -867.3c27.71,-176.06 41.11,-701.68 41.26,-702.13 27.84,-175.92 41.25,-701.68 41.25,-702.13l41.25 -681.42"/>
   <path class="fil0 str0" d="M11733.37 6199.02c-303.86,0 -742.09,51.71 -957.17,313.84 -150.64,183.5 33.75,241.17 206.44,268.39 279.06,21.76 1270.65,124.86 1526.16,-237.1 10.34,-14.64 -1.62,-36.7 -38.22,-86.52 -135.99,-185.15 -531.78,-258.62 -737.22,-258.62z"/>
   <path class="fil0 str0" d="M6257.84 6738.29c-141.2,103.68 -493.19,99.27 -655.99,151.99 -158.03,25.02 -392.61,26.07 -557.5,0l-433.71 -82.51c-161.24,-72.66 -171.82,-65.45 -239,-127.56 -59.51,99.4 -69.15,303.53 -69.59,304.85 -23.52,72.83 -18.77,42.74 -20.55,123.92 -183.06,-63.46 -1027.87,-368.93 -1156.4,-371.76l-41.25 0c45.27,74.17 80.12,100.83 144.46,165.18l41.26 0 0 41.4 557.66 557.5c89.65,132.55 297.28,350.16 433.56,433.57 0,260.94 -18.47,801.17 20.71,1032.47 16.67,51.39 24.57,93.24 41.25,144.62l0 82.53c220.14,678.88 380.26,1261.1 676.35,1920.48 141.06,314.12 262.45,641.05 412.44,949.82 144.91,298.49 340.64,672.93 459.93,970.52 -91.3,-26.82 -46.92,-1.19 -103.22,-82.52l-536.94 -557.5c-79.53,-117.81 -204.06,-224.91 -309.66,-330.51 -94.88,-140.17 -246.8,-267.37 -371.76,-392.32 -99.79,-147.75 -260.95,-281.66 -392.32,-413.03 -94.73,-140.16 -246.81,-267.35 -371.77,-392.32 -89.66,-132.7 -232.49,-253.19 -350.89,-371.62 -89.82,-132.7 -232.66,-253.19 -351.06,-371.76 -158.64,-192.13 -459.06,-479.29 -557.66,-598.75 -315.15,-382.19 -800.27,-869.23 -1135.7,-1280.31l-743.37 -949.97c-62.4,-147.46 -193.03,-333.93 -273.91,-495.54 -102.47,-204.65 -114.24,-312.19 -180.37,-516.24 -38.64,-244.74 -53.92,-1190.63 -15.48,-1861.67 17,-78.82 20.69,-104.16 70.39,-171.85"/>
   <path class="fil0 str0" d="M3083.85 6737.23c-49.61,-33.51 -95.03,-69.71 -144.63,-103.23l-123.92 -123.91c-230.56,-155.8 -449.97,-359.85 -681.42,-516.24l-103.22 -103.23"/>
   <path class="fil0 str0" d="M4281.5 7108.99l0 289.1c-27.86,85.64 -20.71,91.9 -20.71,185.73 -112.45,-23.68 -1079.84,-760.2 -1135.69,-846.59"/>
   <path class="fil0 str0" d="M7874.47 10557.49l1177.12 -1383.54c127.49,-154.61 290.42,-323.06 392.31,-495.68 -252.76,144.03 -873.86,674.12 -991.22,640.15 76.72,-117.05 394.86,-333.48 516.23,-433.57l702.13 -578.18c103.37,-84.47 262.74,-243.08 371.62,-289.11 72.23,-28.89 33.06,10.28 61.95,-61.95 85.2,-17.73 272.13,-217.32 330.51,-289.1 130.48,-199.58 136.88,-260.35 206.43,-474.99"/>
   <path class="fil0 str0" d="M7730 9814.11l0 41.25 41.25 0c-19.81,-52.73 11.32,-21.45 -41.25,-41.25 87.28,-217.76 448.62,-704.06 598.75,-929.27 147.31,-221.03 508.2,-735.62 598.9,-949.96 74.18,-114.98 264.07,-356.57 289.11,-474.83"/>
   <path class="fil0 str0" d="M4260.79 7934.88c33.67,-86.68 29.04,-54.96 0,-144.47l0 -206.59"/>
   <path class="fil0 str0" d="M9443.89 8678.27c36.5,-28.9 44.23,-37.24 82.51,-61.96l227.15 -227.14c73.42,-108.58 300.72,-257.23 289.1,-371.62"/>
   <line class="fil0 str0" x1="8411.42" y1="9380.38" x2="8411.42" y2= "9401.09" />
   <path class="fil0 str0" d="M7771.25 9855.36c91,-26.21 71.94,-30.69 144.47,-103.22 107.69,-72.83 227.89,-164.73 330.52,-247.85"/>
   <path class="fil0 str0" d="M7585.37 9958.59c91.16,-26.22 72.09,-30.69 144.63,-103.23"/>
   <path class="fil0 str0" d="M10042.65 12106.2c73.87,-44.69 38.13,-8.79 82.66,-82.67"/>
   <path class="fil0 str0" d="M6263.79 13324.41c-39.18,62.71 -77.6,32.17 20.7,41.4l-20.7 -41.4c-48.41,-6.55 10.13,-51.98 -82.51,20.71l-125.57 -58.69c-70.29,-81.17 -132.99,-164.44 -184.24,-251.11"/>
   <path class="fil0 str0" d="M6490.92 13407.08c-66.27,-25.77 -129.57,-39.62 -206.43,-41.26"/>
   <path class="fil0 str1" d="M4436.37 6480.9c-86.59,82.1 -99.3,191.41 -28.54,228.65"/>
   <path class="fil0 str1" d="M12510.44 6538.69c135.63,374.4 147.07,656.51 174.64,1073.2"/>
  </g>
  <rect class="fil0 str2" x="9.99" y="9.99" width="14983.52" height="14983.52"/>
 </g>
</svg>
