<svg width="349px" height="64px" viewBox="0 0 349 64" xmlns="http://www.w3.org/2000/svg">
    <!-- Generator: sketchtool 63.1 (101010) - https://sketch.com -->
    <title>Carrera y Carrera</title>
    <g fill="none">
        <g fill="#C9282D">
            <g>
                <g>
                    <path d="M161.438852,8.83784348 C162.75238,8.8781913 163.968609,9.18706087 165.029162,9.61697391 C165.440595,9.78393043 165.828398,9.96897391 166.189792,10.1637565 C169.31029,11.7860174 170.842044,13.9341913 171.741359,16.0921043 C174.936916,23.2879304 159.567943,30.5769739 166.637365,35.7192348 C166.883391,35.9877565 169.042025,36.9797565 170.810075,37.3136696 C181.475367,23.5049739 202.393127,-3.73954783 209.529268,0.4288 C201.467403,-3.57398261 176.545119,33.9773217 169.800952,42.974887 C157.225832,59.7526261 144.538124,66.7995826 133.772754,61.9870609 C146.030959,64.5568 156.806059,54.9776696 167.037678,42.1526261 C168.032901,40.9060174 169.275541,39.3018435 170.705827,37.4472348 C169.28805,37.1745391 167.219765,36.5637565 166.378829,36.2270609 C153.243549,31.5606261 172.504457,22.7620174 170.429221,14.8274087 C169.472917,12.5303652 168.002322,11.7901913 167.325403,11.3561043 C165.522603,10.4225391 162.990066,9.77836522 160.450578,9.92445217 C157.414869,10.0997565 153.970506,10.9762783 151.810483,13.0799304 C153.724481,10.4573217 156.434935,8.68201739 161.438852,8.83784348 L161.438852,8.83784348 Z M123.924769,18.5004522 C123.438277,18.5004522 123.113022,18.5004522 122.62653,18.5811478 C122.465293,19.1474087 122.424984,20.4385391 122.424984,22.782887 L122.424984,27.9126261 C122.992094,27.9543652 123.23534,27.9543652 123.803841,27.9543652 C127.937632,27.9543652 129.519425,26.2973217 129.519425,23.3894957 C129.519425,19.8319304 127.492839,18.5004522 123.924769,18.5004522 L123.924769,18.5004522 Z M126.23491,28.2799304 C125.384244,28.4816696 124.491879,28.5220174 123.84276,28.5220174 C123.195031,28.5220174 122.992094,28.5623652 122.424984,28.4816696 L122.424984,32.2159304 C122.424984,36.1115826 122.748848,36.8823652 125.6678,37.1244522 C125.708109,37.1244522 125.748418,37.3679304 125.6678,37.3679304 C124.735125,37.246887 122.707149,37.1244522 121.45061,37.1244522 C119.708969,37.1244522 117.763002,37.2065391 116.505073,37.3679304 C116.424454,37.3679304 116.505073,37.1244522 116.546772,37.1244522 C119.343405,36.8406261 119.829897,36.3133217 119.829897,32.2159304 L119.829897,23.0653217 C119.829897,19.3074087 119.018151,18.5004522 117.558675,18.5004522 C117.23481,18.5004522 116.828937,18.5811478 116.343835,18.6618435 C116.303526,18.6618435 116.343835,18.458713 116.424454,18.4183652 C117.680993,18.0121043 121.086436,17.8910609 124.329252,17.8910609 C129.397107,17.8910609 132.19513,19.5105391 132.19513,22.5797565 C132.19513,24.5609739 130.775964,26.4183652 128.464433,27.4284522 C131.384774,35.7136696 140.683719,41.1397565 144.495035,41.4235826 C144.533954,41.4235826 144.574264,41.6253217 144.495035,41.6253217 C138.169251,41.6253217 127.826433,35.2155826 126.23491,28.2799304 L126.23491,28.2799304 Z M79.5219608,18.5004522 C79.0368589,18.5004522 78.7116044,18.5004522 78.2251125,18.5811478 C78.0624852,19.1474087 78.0235659,20.4385391 78.0235659,22.782887 L78.0235659,27.9126261 C78.5906764,27.9543652 78.8339223,27.9543652 79.4010329,27.9543652 C83.5362137,27.9543652 85.1180073,26.2973217 85.1180073,23.3894957 C85.1180073,19.8319304 83.0914212,18.5004522 79.5219608,18.5004522 L79.5219608,18.5004522 Z M81.8334922,28.2799304 C80.9828264,28.4816696 80.0904613,28.5220174 79.4413422,28.5220174 C78.793613,28.5220174 78.5906764,28.5623652 78.0235659,28.4816696 L78.0235659,32.2159304 C78.0235659,36.1115826 78.3474305,36.8823652 81.2663817,37.1244522 C81.308081,37.1244522 81.3470003,37.3679304 81.2663817,37.3679304 C80.3337073,37.246887 78.3071211,37.1244522 77.0505821,37.1244522 C75.3075513,37.1244522 73.3615838,37.2065391 72.1036548,37.3679304 C72.0230362,37.3679304 72.1036548,37.1244522 72.1453541,37.1244522 C74.9419874,36.8406261 75.4284793,36.3133217 75.4284793,32.2159304 L75.4284793,23.0653217 C75.4284793,19.3074087 74.6167328,18.5004522 73.1572572,18.5004522 C72.8333926,18.5004522 72.4289094,18.5811478 71.9424175,18.6618435 C71.9007182,18.6618435 71.9424175,18.458713 72.0230362,18.4183652 C73.2795752,18.0121043 76.6850183,17.8910609 79.9278341,17.8910609 C84.9956893,17.8910609 87.7937126,19.5105391 87.7937126,22.5797565 C87.7937126,24.5609739 86.3759363,26.4183652 84.0630149,27.4284522 C86.9833561,35.7136696 96.2823007,41.1397565 100.092227,41.4235826 C100.133926,41.4235826 100.172846,41.6253217 100.092227,41.6253217 C93.7692227,41.6253217 83.4250156,35.2155826 81.8334922,28.2799304 L81.8334922,28.2799304 Z M56.057763,18.5004522 C55.5712712,18.5004522 55.2474066,18.5004522 54.7595247,18.5811478 C54.5982874,19.1474087 54.5565881,20.4385391 54.5565881,22.782887 L54.5565881,27.9126261 C55.1250886,27.9543652 55.3669446,27.9543652 55.936835,27.9543652 C60.070626,27.9543652 61.6510295,26.2973217 61.6510295,23.3894957 C61.6510295,19.8319304 59.6258334,18.5004522 56.057763,18.5004522 L56.057763,18.5004522 Z M58.3679044,28.2799304 C57.5172386,28.4816696 56.6262635,28.5220174 55.9757544,28.5220174 C55.3280252,28.5220174 55.1250886,28.5623652 54.5565881,28.4816696 L54.5565881,32.2159304 C54.5565881,36.1115826 54.8818427,36.8823652 57.8007939,37.1244522 C57.8411032,37.1244522 57.8814125,37.3679304 57.8007939,37.3679304 C56.8681195,37.246887 54.8415334,37.1244522 53.5849944,37.1244522 C51.8419635,37.1244522 49.895996,37.2065391 48.639457,37.3679304 C48.5574484,37.3679304 48.639457,37.1244522 48.6797663,37.1244522 C51.4763996,36.8406261 51.9628915,36.3133217 51.9628915,32.2159304 L51.9628915,23.0653217 C51.9628915,19.3074087 51.151145,18.5004522 49.6916694,18.5004522 C49.3678048,18.5004522 48.9619316,18.5811478 48.4754398,18.6618435 C48.4365204,18.6618435 48.4754398,18.458713 48.5574484,18.4183652 C49.8139874,18.0121043 53.2208204,17.8910609 56.4636362,17.8910609 C61.5314915,17.8910609 64.3267348,19.5105391 64.3267348,22.5797565 C64.3267348,24.5609739 62.9089585,26.4183652 60.5974271,27.4284522 C63.5177683,35.7136696 72.8167129,41.1397565 76.6266392,41.4235826 C76.6683385,41.4235826 76.7086479,41.6253217 76.6266392,41.6253217 C70.3036349,41.6253217 59.9594278,35.2155826 58.3679044,28.2799304 L58.3679044,28.2799304 Z M147.853219,21.4764522 L144.367157,29.3595826 L150.644292,29.3595826 L147.853219,21.4764522 Z M155.443882,37.4096696 C153.720311,37.4096696 151.588086,37.4917565 150.314868,37.6559304 C150.232859,37.6559304 150.274558,37.4096696 150.314868,37.4096696 C151.914731,37.2441043 152.776516,37.2441043 152.776516,36.3425391 C152.776516,35.3964522 152.244155,33.9606261 151.709014,32.3995826 L150.888928,30.0190609 L144.119741,30.0190609 L143.137028,32.3995826 C142.39756,34.2041043 141.904118,35.4785391 141.904118,36.3008 C141.904118,37.0799304 142.519878,37.2037565 143.997423,37.4096696 C144.037732,37.4096696 144.079432,37.6559304 143.997423,37.6559304 C143.093938,37.5321043 142.027826,37.4096696 140.755997,37.4096696 C139.033816,37.4096696 138.746091,37.4917565 137.432563,37.6559304 C137.351944,37.6559304 137.392254,37.4096696 137.432563,37.4096696 C139.525868,37.2441043 140.632289,36.0545391 142.232153,32.4802783 L148.838712,17.5752348 L148.920721,17.5752348 L154.623796,32.4802783 C155.812226,35.642713 156.427985,37.1634087 159.463695,37.4096696 C159.504004,37.4096696 159.545703,37.6559304 159.463695,37.6559304 C158.52129,37.5321043 156.75602,37.4096696 155.443882,37.4096696 L155.443882,37.4096696 Z M110.428094,37.0799304 C110.304386,37.4917565 110.182068,37.6155826 109.812335,37.6155826 C108.705913,37.6155826 106.818325,37.4096696 104.602702,37.4096696 C101.565602,37.4096696 98.0392313,37.4500174 95.7415997,37.6559304 C95.6595911,37.6559304 95.7012904,37.4096696 95.7415997,37.4096696 C98.9816356,37.1216696 99.3096701,36.5874087 99.3096701,32.4399304 L99.3096701,23.1599304 C99.3096701,19.0110609 99.0233349,18.4378435 95.7819091,18.1915826 C95.7415997,18.1498435 95.6595911,17.9021913 95.7415997,17.9021913 C98.2435579,18.1498435 101.443284,18.1498435 104.478994,18.1498435 C106.572299,18.1498435 108.583595,18.0260174 110.182068,17.9021913 C110.10006,18.3974957 110.05836,19.2169739 110.05836,19.7512348 C110.05836,20.0795826 110.05836,20.9004522 110.10006,21.2288 C110.05836,21.2705391 109.812335,21.3122783 109.812335,21.1884522 C109.648317,19.6691478 109.032558,18.9303652 105.011355,18.9303652 L102.182752,18.9303652 C102.059044,19.8333217 101.977036,20.9839304 101.977036,22.9957565 L101.977036,27.0597565 L104.232968,27.0597565 C107.844127,27.0597565 108.090153,26.7731478 108.377879,25.3762783 C108.377879,25.3762783 108.583595,25.3762783 108.622514,25.4180174 C108.498807,25.8688 108.418188,27.1835826 108.418188,27.8820174 C108.418188,28.250713 108.458497,29.4430609 108.458497,29.7296696 C108.458497,29.7700174 108.213861,29.7296696 108.213861,29.6893217 C107.926136,28.0044522 107.67872,27.6761043 104.232968,27.6761043 L101.977036,27.6761043 L101.977036,32.0294957 C101.977036,36.3008 102.387079,36.6305391 103.822925,36.6305391 L105.382479,36.6305391 C110.140369,36.6305391 110.304386,35.7665391 110.756129,33.7129739 C110.838137,33.6726261 111.002155,33.7129739 111.043854,33.754713 C110.920146,34.5352348 110.632421,36.4635826 110.428094,37.0799304 L110.428094,37.0799304 Z M34.9037066,21.4764522 L31.4162549,29.3595826 L37.69339,29.3595826 L34.9037066,21.4764522 Z M42.4929798,37.4096696 C40.7707985,37.4096696 38.6357942,37.4917565 37.3639655,37.6559304 C37.2819569,37.6559304 37.3250461,37.4096696 37.3639655,37.4096696 C38.9652187,37.2441043 39.8256143,37.2441043 39.8256143,36.3425391 C39.8256143,35.3964522 39.2932532,33.9606261 38.7608921,32.3995826 L37.9394159,30.0190609 L31.170229,30.0190609 L30.1847355,32.3995826 C29.4480478,34.2041043 28.954606,35.4785391 28.954606,36.3008 C28.954606,37.0799304 29.5689758,37.2037565 31.0479111,37.4096696 C31.0868304,37.4096696 31.1285297,37.6559304 31.0479111,37.6559304 C30.1444262,37.5321043 29.076924,37.4096696 27.8064852,37.4096696 C26.082914,37.4096696 25.7965788,37.4917565 24.4816608,37.6559304 C24.3996522,37.6559304 24.4413515,37.4096696 24.4816608,37.4096696 C26.5749658,37.2441043 27.6841673,36.0545391 29.2826406,32.4802783 L35.8878102,17.5752348 L35.9698188,17.5752348 L41.6728935,32.4802783 C42.8613236,35.642713 43.4784733,37.1634087 46.5127926,37.4096696 C46.5544919,37.4096696 46.5948012,37.6559304 46.5127926,37.6559304 C45.5703883,37.5321043 43.8065078,37.4096696 42.4929798,37.4096696 L42.4929798,37.4096696 Z M20.93861,36.1157565 C19.6737312,37.0910609 17.530387,38.0663652 13.1964394,38.0663652 C5.2110229,38.0663652 0,32.5581913 0,26.4155826 C0,19.9334957 5.45426884,13.694887 13.342387,13.694887 C16.6547016,13.694887 20.0643146,15.1056696 20.7940524,15.6441043 C21.0859476,15.838887 21.3291935,18.9581913 21.4751411,21.1035826 C21.4751411,21.1522783 21.2318951,21.1522783 21.1832459,21.1035826 C20.5980657,18.1790609 17.9696196,14.522713 12.5153508,14.522713 C7.01243279,14.522713 3.26366545,18.2764522 3.26366545,25.0020174 C3.26366545,33.2886261 8.27870163,37.1884522 13.5383737,37.1884522 C17.3844394,37.1884522 21.0859476,34.458713 21.3778427,30.5602783 C21.3778427,30.5602783 21.6697378,30.5602783 21.6697378,30.6075826 C21.5237902,32.8030609 21.2318951,35.9209739 20.93861,36.1157565 L20.93861,36.1157565 Z M313.286864,18.5004522 C312.798982,18.5004522 312.475117,18.5004522 311.987235,18.5811478 C311.827388,19.1474087 311.787079,20.4385391 311.787079,22.782887 L311.787079,27.9126261 C312.354189,27.9543652 312.597435,27.9543652 313.165936,27.9543652 C317.299727,27.9543652 318.88152,26.2973217 318.88152,23.3894957 C318.88152,19.8319304 316.853544,18.5004522 313.286864,18.5004522 L313.286864,18.5004522 Z M315.597005,28.2799304 C314.744949,28.4816696 313.853974,28.5220174 313.204855,28.5220174 C312.555736,28.5220174 312.354189,28.5623652 311.787079,28.4816696 L311.787079,32.2159304 C311.787079,36.1115826 312.109553,36.8823652 315.029894,37.1244522 C315.070204,37.1244522 315.109123,37.3679304 315.029894,37.3679304 C314.09722,37.246887 312.069244,37.1244522 310.812705,37.1244522 C309.069674,37.1244522 307.125097,37.2065391 305.867168,37.3679304 C305.786549,37.3679304 305.867168,37.1244522 305.908867,37.1244522 C308.7055,36.8406261 309.190602,36.3133217 309.190602,32.2159304 L309.190602,23.0653217 C309.190602,19.3074087 308.378856,18.5004522 306.92077,18.5004522 C306.596905,18.5004522 306.191032,18.5811478 305.70454,18.6618435 C305.664231,18.6618435 305.70454,18.458713 305.786549,18.4183652 C307.041698,18.0121043 310.448531,17.8910609 313.691347,17.8910609 C318.757812,17.8910609 321.557225,19.5105391 321.557225,22.5797565 C321.557225,24.5609739 320.136669,26.4183652 317.825138,27.4284522 C320.746869,35.7136696 330.044423,41.1397565 333.85574,41.4235826 C333.896049,41.4235826 333.936358,41.6253217 333.85574,41.6253217 C327.531346,41.6253217 317.187138,35.2155826 315.597005,28.2799304 L315.597005,28.2799304 Z M268.884056,18.5004522 C268.398954,18.5004522 268.073699,18.5004522 267.587207,18.5811478 C267.42319,19.1474087 267.385661,20.4385391 267.385661,22.782887 L267.385661,27.9126261 C267.951381,27.9543652 268.194627,27.9543652 268.761738,27.9543652 C272.898309,27.9543652 274.480102,26.2973217 274.480102,23.3894957 C274.480102,19.8319304 272.453516,18.5004522 268.884056,18.5004522 L268.884056,18.5004522 Z M271.194197,28.2799304 C270.344921,28.4816696 269.451166,28.5220174 268.803437,28.5220174 C268.154318,28.5220174 267.951381,28.5623652 267.385661,28.4816696 L267.385661,32.2159304 C267.385661,36.1115826 267.709525,36.8823652 270.627087,37.1244522 C270.668786,37.1244522 270.709095,37.3679304 270.627087,37.3679304 C269.694412,37.246887 267.667826,37.1244522 266.411287,37.1244522 C264.669646,37.1244522 262.723679,37.2065391 261.46575,37.3679304 C261.385131,37.3679304 261.46575,37.1244522 261.507449,37.1244522 C264.302692,36.8406261 264.790574,36.3133217 264.790574,32.2159304 L264.790574,23.0653217 C264.790574,19.3074087 263.978828,18.5004522 262.519352,18.5004522 C262.195488,18.5004522 261.791004,18.5811478 261.303122,18.6618435 C261.262813,18.6618435 261.303122,18.458713 261.385131,18.4183652 C262.64167,18.0121043 266.047113,17.8910609 269.289929,17.8910609 C274.357784,17.8910609 277.154418,19.5105391 277.154418,22.5797565 C277.154418,24.5609739 275.736641,26.4183652 273.42511,27.4284522 C276.344061,35.7136696 285.643006,41.1397565 289.452932,41.4235826 C289.493241,41.4235826 289.534941,41.6253217 289.452932,41.6253217 C283.129928,41.6253217 272.787111,35.2155826 271.194197,28.2799304 L271.194197,28.2799304 Z M245.418468,18.5004522 C244.933366,18.5004522 244.608112,18.5004522 244.12162,18.5811478 C243.958992,19.1474087 243.918683,20.4385391 243.918683,22.782887 L243.918683,27.9126261 C244.487184,27.9543652 244.729039,27.9543652 245.29893,27.9543652 C249.432721,27.9543652 251.013124,26.2973217 251.013124,23.3894957 C251.013124,19.8319304 248.987928,18.5004522 245.418468,18.5004522 L245.418468,18.5004522 Z M247.731389,28.2799304 C246.877944,28.4816696 245.988358,28.5220174 245.337849,28.5220174 C244.68873,28.5220174 244.487184,28.5623652 243.918683,28.4816696 L243.918683,32.2159304 C243.918683,36.1115826 244.243938,36.8823652 247.162889,37.1244522 C247.203198,37.1244522 247.242117,37.3679304 247.162889,37.3679304 C246.228824,37.246887 244.202238,37.1244522 242.945699,37.1244522 C241.202668,37.1244522 239.258091,37.2065391 238.001552,37.3679304 C237.919543,37.3679304 238.001552,37.1244522 238.040471,37.1244522 C240.838495,36.8406261 241.324986,36.3133217 241.324986,32.2159304 L241.324986,23.0653217 C241.324986,19.3074087 240.51324,18.5004522 239.053764,18.5004522 C238.7299,18.5004522 238.324027,18.5811478 237.837535,18.6618435 C237.798615,18.6618435 237.837535,18.458713 237.919543,18.4183652 C239.174692,18.0121043 242.581525,17.8910609 245.824341,17.8910609 C250.892196,17.8910609 253.69022,19.5105391 253.69022,22.5797565 C253.69022,24.5609739 252.269663,26.4183652 249.959522,27.4284522 C252.879863,35.7136696 262.177418,41.1397565 265.988734,41.4235826 C266.030433,41.4235826 266.069353,41.6253217 265.988734,41.6253217 C259.66434,41.6253217 249.321523,35.2155826 247.731389,28.2799304 L247.731389,28.2799304 Z M337.213924,21.4764522 L333.729252,29.3595826 L340.004997,29.3595826 L337.213924,21.4764522 Z M344.804587,37.4096696 C343.081016,37.4096696 340.948791,37.4917565 339.676962,37.6559304 C339.593564,37.6559304 339.636653,37.4096696 339.676962,37.4096696 C341.275436,37.2441043 342.137221,37.2441043 342.137221,36.3425391 C342.137221,35.3964522 341.60486,33.9606261 341.072499,32.3995826 L340.251023,30.0190609 L333.481836,30.0190609 L332.497732,32.3995826 C331.761045,34.2041043 331.266213,35.4785391 331.266213,36.3008 C331.266213,37.0799304 331.881973,37.2037565 333.358128,37.4096696 C333.399827,37.4096696 333.441527,37.6559304 333.358128,37.6559304 C332.456033,37.5321043 331.389921,37.4096696 330.118092,37.4096696 C328.395911,37.4096696 328.108186,37.4917565 326.794658,37.6559304 C326.714039,37.6559304 326.752959,37.4096696 326.794658,37.4096696 C328.886573,37.2441043 329.994384,36.0545391 331.594248,32.4802783 L338.198027,17.5752348 L338.281426,17.5752348 L343.98589,32.4802783 C345.174321,35.642713 345.78869,37.1634087 348.82579,37.4096696 C348.866099,37.4096696 348.909188,37.6559304 348.82579,37.6559304 C347.881995,37.5321043 346.118115,37.4096696 344.804587,37.4096696 L344.804587,37.4096696 Z M299.790189,37.0799304 C299.666481,37.4917565 299.544163,37.6155826 299.173039,37.6155826 C298.068008,37.6155826 296.17903,37.4096696 293.964797,37.4096696 C290.927697,37.4096696 287.401326,37.4500174 285.102305,37.6559304 C285.020296,37.6559304 285.061995,37.4096696 285.102305,37.4096696 C288.342341,37.1216696 288.671765,36.5874087 288.671765,32.4399304 L288.671765,23.1599304 C288.671765,19.0110609 288.38543,18.4378435 285.144004,18.1915826 C285.102305,18.1498435 285.020296,17.9021913 285.102305,17.9021913 C287.605653,18.1498435 290.805379,18.1498435 293.839699,18.1498435 C295.934394,18.1498435 297.94569,18.0260174 299.544163,17.9021913 C299.462155,18.3974957 299.419065,19.2169739 299.419065,19.7512348 C299.419065,20.0795826 299.419065,20.9004522 299.462155,21.2288 C299.419065,21.2705391 299.173039,21.3122783 299.173039,21.1884522 C299.010412,19.6691478 298.394653,18.9303652 294.37345,18.9303652 L291.543457,18.9303652 C291.419749,19.8333217 291.33913,20.9839304 291.33913,22.9957565 L291.33913,27.0597565 L293.595063,27.0597565 C297.204832,27.0597565 297.450858,26.7731478 297.739973,25.3762783 C297.739973,25.3762783 297.94569,25.3762783 297.984609,25.4180174 C297.860901,25.8688 297.780283,27.1835826 297.780283,27.8820174 C297.780283,28.250713 297.820592,29.4430609 297.820592,29.7296696 C297.820592,29.7700174 297.575956,29.7296696 297.575956,29.6893217 C297.288231,28.0044522 297.039425,27.6761043 293.595063,27.6761043 L291.33913,27.6761043 L291.33913,32.0294957 C291.33913,36.3008 291.747784,36.6305391 293.18502,36.6305391 L294.744574,36.6305391 C299.502464,36.6305391 299.666481,35.7665391 300.116834,33.7129739 C300.200232,33.6726261 300.36564,33.7129739 300.405949,33.754713 C300.282241,34.5352348 299.994516,36.4635826 299.790189,37.0799304 L299.790189,37.0799304 Z M224.265802,21.4764522 L220.77835,29.3595826 L227.055485,29.3595826 L224.265802,21.4764522 Z M231.855075,37.4096696 C230.131503,37.4096696 227.997889,37.4917565 226.72606,37.6559304 C226.644052,37.6559304 226.685751,37.4096696 226.72606,37.4096696 C228.327314,37.2441043 229.187709,37.2441043 229.187709,36.3425391 C229.187709,35.3964522 228.655348,33.9606261 228.121597,32.3995826 L227.301511,30.0190609 L220.530934,30.0190609 L219.54683,32.3995826 C218.808753,34.2041043 218.315311,35.4785391 218.315311,36.3008 C218.315311,37.0799304 218.931071,37.2037565 220.410006,37.4096696 C220.448925,37.4096696 220.490625,37.6559304 220.410006,37.6559304 C219.506521,37.5321043 218.439019,37.4096696 217.16719,37.4096696 C215.445009,37.4096696 215.158674,37.4917565 213.843756,37.6559304 C213.761747,37.6559304 213.803446,37.4096696 213.843756,37.4096696 C215.937061,37.2441043 217.044872,36.0545391 218.644735,32.4802783 L225.249905,17.5752348 L225.331914,17.5752348 L231.034988,32.4802783 C232.223419,35.642713 232.839178,37.1634087 235.874887,37.4096696 C235.917977,37.4096696 235.956896,37.6559304 235.874887,37.6559304 C234.932483,37.5321043 233.167213,37.4096696 231.855075,37.4096696 L231.855075,37.4096696 Z M210.302095,36.1157565 C209.035826,37.0910609 206.892482,38.0663652 202.558534,38.0663652 C194.571728,38.0663652 189.360705,32.5581913 189.360705,26.4155826 C189.360705,19.9334957 194.814974,13.694887 202.704482,13.694887 C206.016797,13.694887 209.42502,15.1056696 210.154757,15.6441043 C210.448042,15.838887 210.689898,18.9581913 210.837236,21.1035826 C210.837236,21.1522783 210.59399,21.1522783 210.545341,21.1035826 C209.960161,18.1790609 207.330325,14.522713 201.877446,14.522713 C196.373138,14.522713 192.62437,18.2764522 192.62437,25.0020174 C192.62437,33.2886261 197.639407,37.1884522 202.900469,37.1884522 C206.746534,37.1884522 210.448042,34.458713 210.739938,30.5602783 C210.739938,30.5602783 211.031833,30.5602783 211.031833,30.6075826 C210.885885,32.8030609 210.59399,35.9209739 210.302095,36.1157565 L210.302095,36.1157565 Z M164.760896,41.3484522 C166.073034,41.3331478 165.220978,41.4208 165.10839,41.4208 C163.876871,41.4166261 159.12593,41.7241043 156.17223,42.1248 C147.419546,43.3115826 134.145268,46.142887 130.707855,53.9731478 C129.588924,56.5220174 131.319445,58.8023652 132.302159,60.0684522 C132.379997,60.1700174 128.347675,57.4277565 129.919738,52.5999304 C133.229273,42.4322783 154.671055,41.4639304 164.760896,41.3484522 L164.760896,41.3484522 Z M176.51037,57.7421913 L176.51037,52.8962783 L178.434098,52.8962783 L179.822684,55.8611478 C179.965852,56.1769739 180.020061,56.3063652 180.09373,56.5818435 C180.145159,56.3759304 180.192418,56.2521043 180.342536,55.9168 L181.731122,52.8962783 L183.639561,52.8962783 L183.639561,57.7421913 L182.380242,57.7421913 L182.380242,54.3515826 C182.380242,54.206887 182.402481,54.0844522 182.431671,53.8994087 C182.380242,54.0413217 182.356612,54.0969739 182.282943,54.2681043 L180.69003,57.7421913 L179.47519,57.7421913 L177.883667,54.3376696 C177.801658,54.1526261 177.784978,54.0969739 177.725209,53.8994087 C177.748839,54.1039304 177.755789,54.1456696 177.771079,54.330713 L177.771079,57.7421913 L176.51037,57.7421913 Z M190.988368,57.7421913 L193.561215,52.8962783 L195.001231,52.8962783 L197.574078,57.7421913 L196.079853,57.7421913 L195.62811,56.8294957 L192.896806,56.8294957 L192.445063,57.7421913 L190.988368,57.7421913 Z M195.198607,55.9710609 L194.404931,54.3863652 C194.367401,54.3237565 194.336822,54.2555826 194.314582,54.1943652 C194.292343,54.1317565 194.277053,54.0705391 194.270103,54.0023652 C194.247863,54.0635826 194.232574,54.1178435 194.217284,54.1734957 C194.186704,54.234713 194.163075,54.2959304 194.133885,54.3585391 L193.326309,55.9710609 L195.198607,55.9710609 Z M204.885355,57.7421913 L204.885355,52.8962783 L207.797357,52.8962783 C207.993344,52.9032348 208.18933,52.9032348 208.386707,52.9241043 C209.939311,53.0534957 210.709358,54.0413217 210.709358,55.2921043 C210.709358,55.8472348 210.556461,56.3968 210.188117,56.8434087 C209.443089,57.7282783 208.438136,57.7366261 207.63056,57.7421913 L204.885355,57.7421913 Z M207.752878,53.7533217 L206.212783,53.7533217 L206.212783,56.8837565 L207.683379,56.8837565 C208.158751,56.8768 208.702232,56.8698435 209.056676,56.410713 C209.216523,56.2117565 209.38193,55.8750609 209.38193,55.262887 C209.38193,54.8037565 209.267952,54.490713 209.116445,54.2681043 C208.768951,53.7686261 208.21296,53.7602783 207.752878,53.7533217 L207.752878,53.7533217 Z M218.534927,57.7421913 L218.534927,52.8962783 L222.198906,52.8962783 C222.802156,52.8962783 223.353977,52.9435826 223.798769,53.4110609 C224.069815,53.6990609 224.146264,54.0635826 224.146264,54.3446261 C224.146264,54.714713 224.010046,55.1543652 223.633362,55.4159304 C223.347027,55.614887 222.975903,55.6830609 222.766017,55.7164522 L224.37978,57.7421913 L222.810496,57.7421913 L221.38438,55.7929739 L219.867915,55.7929739 L219.867915,57.7421913 L218.534927,57.7421913 Z M219.867915,53.7477565 L219.867915,54.9359304 L221.995969,54.9359304 C222.282305,54.9359304 222.795206,54.8997565 222.795206,54.3585391 C222.795206,54.2625391 222.779916,54.0969739 222.689568,53.9801043 C222.592269,53.8632348 222.463002,53.7477565 221.9362,53.7477565 L219.867915,53.7477565 Z M232.014922,57.7421913 L233.35069,57.7421913 L233.35069,52.8962783 L232.014922,52.8962783 L232.014922,57.7421913 Z M241.559892,57.7421913 L241.559892,52.8962783 L244.471894,52.8962783 C244.667881,52.9032348 244.863867,52.9032348 245.059854,52.9241043 C246.615238,53.0534957 247.383895,54.0413217 247.383895,55.2921043 C247.383895,55.8472348 247.232388,56.3968 246.864044,56.8434087 C246.114846,57.7282783 245.112673,57.7366261 244.307877,57.7421913 L241.559892,57.7421913 Z M244.427415,53.7533217 L242.88732,53.7533217 L242.88732,56.8837565 L244.359306,56.8837565 C244.834678,56.8768 245.375379,56.8698435 245.731213,56.410713 C245.88967,56.2117565 246.055077,55.8750609 246.055077,55.262887 C246.055077,54.8037565 245.942489,54.490713 245.790982,54.2681043 C245.444878,53.7686261 244.886107,53.7602783 244.427415,53.7533217 L244.427415,53.7533217 Z"></path>
                </g>
            </g>
        </g>
    </g>
</svg>