<svg width="110" height="110" viewBox="0 0 110 110" fill="none" xmlns="http://www.w3.org/2000/svg">
<path d="M55.1087 3.2C55.1087 3.2 74.7287 23.03 82.7687 46.68C90.8087 70.32 87.9687 99.48 55.1087 102.16C55.1087 102.16 24.7687 104.21 23.0387 67.64C21.7087 39.71 55.1087 3.2 55.1087 3.2Z" stroke="black" stroke-linejoin="round"/>
<path d="M44.3087 16.64L55.3887 30.46L65.9287 42.58L74.1987 52.69L86.5487 68.05L75.3287 75.38L66.5887 79.05L55.1087 83.84L48.4487 88.63" stroke="black" stroke-linejoin="round"/>
<path d="M68.9587 98.83L61.7987 88.63L55.1087 83.84L44.2187 79.23L35.1587 75.41L23.0287 67.64L36.4187 52.69L44.5587 42.69L55.3887 30.46L61.0387 23.41L66.5687 16.94" stroke="black" stroke-linejoin="round"/>
<path d="M61.0387 23.41L76.7587 32.99L74.1987 52.69L71.7887 62.88L66.5887 79.05L61.7987 88.63L55.1087 102.15L48.4487 88.63L44.2187 79.23L38.8587 63.07L36.4187 52.69L34.0187 32.42L49.6687 23.6" stroke="black" stroke-linejoin="round"/>
<path d="M61.7987 88.63L80.2887 89.84L75.3287 75.38L72.0387 63.73L65.9287 42.58L61.0387 23.41L55.1087 3.2L49.6687 23.6L44.3187 43.62L38.8587 63.07L30.4987 90.93L48.4487 88.63L40.7987 99.14" stroke="black" stroke-linejoin="round"/>
</svg>
