<svg width="35" height="26" viewBox="0 0 35 26" fill="none" xmlns="http://www.w3.org/2000/svg">
<path d="M16.7547 25.5156C16.5272 25.3581 0.153062 8.92557 0.0772282 8.77974C0.0422282 8.70974 0.0130615 8.45891 0.0130615 8.22557V7.79391L2.45723 4.11891C4.18389 1.53474 4.97139 0.403073 5.12306 0.29224L5.33889 0.128906H17.3672H29.3956L29.6114 0.29224C29.7689 0.403073 30.5447 1.52307 32.2772 4.12474L34.7214 7.79391V8.22557C34.7214 8.45891 34.6922 8.70974 34.6572 8.77974C34.5814 8.92557 18.2072 25.3581 17.9797 25.5156C17.8689 25.5914 17.7172 25.6206 17.3672 25.6206C17.0172 25.6206 16.8656 25.5914 16.7547 25.5156ZM24.6297 8.49391L24.7581 8.29557H17.3847H10.0172L13.6922 15.6806L17.3672 23.0656L20.9372 15.8789C22.9031 11.9297 24.5656 8.60474 24.6297 8.49391ZM12.2281 15.5872L8.59973 8.29557H4.94806H1.29639L8.57056 15.5872C12.5664 19.6006 15.8447 22.8789 15.8506 22.8789C15.8506 22.8789 14.2231 19.6006 12.2281 15.5872ZM26.1639 15.5872L33.4381 8.29557H29.7864H26.1347L22.5064 15.5872C20.5114 19.6006 18.8839 22.8789 18.8839 22.8789C18.8897 22.8789 22.1681 19.6006 26.1639 15.5872ZM7.90556 6.91307C7.84139 6.81974 7.59056 6.31807 7.33389 5.78724C6.67473 4.40474 5.43223 1.91974 5.41473 1.94307C5.40306 1.95474 4.63306 3.11557 3.69389 4.52141L1.99639 7.07057H5.00639H8.01056L7.90556 6.91307ZM24.3322 7.04724C24.2447 6.97141 17.3906 2.05391 17.3672 2.05391C17.3439 2.05391 10.4897 6.97141 10.4022 7.04724C10.3906 7.05891 13.5231 7.07057 17.3672 7.07057C21.2114 7.07057 24.3439 7.05891 24.3322 7.04724ZM31.0406 4.52141C30.1014 3.11557 29.3314 1.95474 29.3197 1.94307C29.3022 1.91974 28.0597 4.40474 27.4006 5.78724C27.1439 6.31807 26.8931 6.81974 26.8289 6.91307L26.7239 7.07057H29.7281H32.7381L31.0406 4.52141ZM14.1881 2.79474C15.1681 2.08891 16.0314 1.46474 16.1072 1.40641C16.2414 1.29557 16.1247 1.29557 11.3764 1.29557H6.50556L7.78889 3.88557L9.06639 6.46974L10.7406 5.27391C11.6564 4.61474 13.2081 3.50057 14.1881 2.79474ZM25.8139 1.30724C24.4956 1.30141 22.3081 1.30141 20.9606 1.30724L18.5106 1.32474L21.2231 3.27891C22.7164 4.35224 24.3264 5.51307 24.7931 5.85141L25.6506 6.47557L26.9339 3.89724L28.2172 1.32474L25.8139 1.30724Z" fill="#666666"/>
</svg>
