<svg width="26" height="36" viewBox="0 0 26 36" fill="none" xmlns="http://www.w3.org/2000/svg">
<path d="M10.9172 35.2292C7.24805 34.57 4.01639 32.3067 2.07389 29.0342C1.34472 27.8092 0.901388 26.6834 0.586388 25.2542C0.434721 24.5775 0.423054 24.4084 0.399721 22.88C0.382221 21.5384 0.393888 21.1184 0.475554 20.6109C0.883888 17.9917 2.21972 15.4017 4.06889 13.6167C5.15389 12.5725 6.14555 11.8609 7.38805 11.2309C8.33305 10.7525 9.07972 10.4725 10.1356 10.21L10.9814 10L9.35389 8.65837C5.25889 5.29253 4.57639 4.7092 4.46555 4.4642C4.33139 4.17253 4.32555 3.7992 4.44222 3.5192C4.48889 3.40253 5.07222 2.6267 5.73722 1.79837C6.69972 0.596699 6.99139 0.264199 7.18389 0.170866C7.41722 0.0541992 7.54555 0.0541992 13.1339 0.0541992C18.7222 0.0541992 18.8506 0.0541992 19.0839 0.170866C19.2764 0.264199 19.5681 0.596699 20.5306 1.79837C21.1956 2.6267 21.7789 3.40253 21.8256 3.5192C21.9422 3.7992 21.9364 4.17253 21.8022 4.4642C21.6914 4.7092 21.0089 5.29253 16.9139 8.65837L15.2864 10L16.1322 10.21C18.4364 10.7817 20.3731 11.8667 22.1697 13.5875C24.0306 15.3725 25.3839 17.9917 25.7922 20.6109C25.8739 21.1184 25.8856 21.5384 25.8681 22.88C25.8447 24.4084 25.8331 24.5775 25.6814 25.2542C25.1914 27.4767 24.2639 29.2909 22.7064 31.0817C20.9622 33.0767 18.4072 34.5759 15.7297 35.1592C15.1114 35.2934 14.9189 35.305 13.3089 35.3225C11.7689 35.34 11.4831 35.3284 10.9172 35.2292ZM14.7964 34.0275C18.1622 33.555 21.1314 31.5834 22.9922 28.5734C25.7514 24.1284 25.0456 18.155 21.3356 14.5267C20.3556 13.57 19.2822 12.8117 18.0981 12.24C14.1081 10.315 9.42389 10.8575 5.92972 13.6517C4.94389 14.4392 4.20305 15.2209 3.60222 16.1134C1.04139 19.9109 0.913054 24.7642 3.27555 28.5734C5.77222 32.61 10.1414 34.675 14.7964 34.0275ZM15.1406 5.71253C15.5022 5.11753 15.8114 4.6217 15.8172 4.6042C15.8289 4.5867 14.6214 4.57503 13.1339 4.57503H10.4272L10.5381 4.75003C10.5964 4.8492 10.9231 5.38587 11.2672 5.94587C11.6172 6.50587 12.1772 7.42753 12.5156 7.99337L13.1339 9.02003L13.8047 7.90587C14.1781 7.29337 14.7789 6.30753 15.1406 5.71253ZM10.9231 7.80087C10.5672 7.2117 9.98389 6.25503 9.63972 5.6717L9.00972 4.6042H7.73222C7.03222 4.6042 6.45472 4.61587 6.45472 4.62753C6.45472 4.64503 7.00889 5.10587 7.68555 5.66587C8.36805 6.22003 9.51722 7.16503 10.2406 7.7717C10.9639 8.37253 11.5589 8.86253 11.5706 8.86253C11.5764 8.86253 11.2847 8.3842 10.9231 7.80087ZM16.1147 7.69587C16.7914 7.13587 17.8997 6.22003 18.5764 5.66587C19.2589 5.10587 19.8131 4.64503 19.8131 4.62753C19.8131 4.61587 19.2356 4.6042 18.5356 4.6042H17.2581L16.6281 5.6717C16.2839 6.25503 15.7006 7.21753 15.3389 7.8067C14.9714 8.39587 14.7206 8.84503 14.7789 8.79837C14.8372 8.7517 15.4381 8.25587 16.1147 7.69587ZM7.81972 2.6092C7.58055 2.21253 7.36472 1.88587 7.34139 1.8742C7.31805 1.86837 7.02639 2.1892 6.69972 2.5917L6.10472 3.32087H7.17805H8.25139L7.81972 2.6092ZM17.1297 2.40503C17.4272 1.89753 17.7131 1.4367 17.7597 1.3842C17.8414 1.28503 17.6197 1.2792 13.1339 1.2792C8.64806 1.2792 8.42639 1.28503 8.50805 1.3842C8.55472 1.4367 8.84055 1.89753 9.13805 2.40503L9.67472 3.32087H13.1339H16.5931L17.1297 2.40503ZM19.5681 2.5917C19.2414 2.1892 18.9497 1.86837 18.9264 1.8742C18.9031 1.88587 18.6872 2.21253 18.4481 2.6092L18.0164 3.32087H19.0897H20.1631L19.5681 2.5917Z" fill="#666666"/>
</svg>
